<?xml version="1.0" encoding="utf-8"?>
<!-- Generator: Adobe Illustrator 24.1.2, SVG Export Plug-In . SVG Version: 6.00 Build 0)  -->
<svg version="1.1" id="Layer_1" xmlns="http://www.w3.org/2000/svg" xmlns:xlink="http://www.w3.org/1999/xlink" x="0px" y="0px"
	 viewBox="0 0 200 232" enable-background="new 0 0 200 232" xml:space="preserve">
<g id="XMLID_2122_">
	<g id="_x33_">
		<g id="XMLID_2260_">
			<polygon id="XMLID_3090_" fill="#FFFFFF" points="6.6,86.5 6.6,128.2 44.2,133.2 44.2,91.6 			"/>
			<g id="XMLID_2751_">
				<path id="XMLID_3083_" fill="#909090" d="M45.3,135l-2.6-0.3V91.5L48.2,62l43.9-5.4l5.3,24.8l-7.3,36.3l-2.2-2.8
					c-0.7-0.9-1.6-1.7-2.9-2.4c-3.1-1.8-6.5-2.4-10.4-1.9c-4,0.5-8.2,2-12.3,4.4l0,0c-7.8,4.5-13.4,10.8-16.5,18.6L45.3,135z
					 M50.9,64.9l-5,26.9l0,34.5c3.5-5.7,8.5-10.4,14.8-14.1l0,0c4.6-2.6,9.1-4.3,13.5-4.8c4.6-0.6,8.8,0.2,12.5,2.3
					c0.5,0.3,1.1,0.7,1.5,1l5.9-29.3l-4.6-21.3L50.9,64.9z"/>
				<path id="XMLID_2520_" fill="#909090" d="M61.5,113.6c4.4-2.5,3.3-1.7,3.3-1.7c4.2-0.6-3.6-10.5-0.2-8.6c1.5,0.9-0.5-7,0.2-6
					l16.5-8.5l10.5-12.1l-5.3-6.3L76.4,66l-11.6,4.3l-11.3,7.9l-9.1,13.3V133C47.6,124.8,53.3,118.3,61.5,113.6z"/>
			</g>
			<path id="XMLID_3078_" fill="#FFFFFF" d="M111.1,45.4c8,4.6,12.4,9.9,13.2,16c0.8,6.1-2,12.5-8.6,19.3l0.5,0.3
				c24.1-10.8,44.9-11.1,62.5-1c11.9,6.9,16.6,15,14,24.4c-2.6,9.4-12.3,19-29.1,28.7c-6.9,4-13.8,7.4-20.7,10.2
				c-6.9,2.8-15,5.4-24.5,7.9l-28.8-16.6c8.5-1.6,16.3-3.7,23.5-6.2c7.2-2.6,13.2-5.3,18.2-8.1c7.6-4.4,12.1-8.2,13.4-11.4
				c1.3-3.2-0.3-6.2-4.8-8.8c-3.5-2-7.1-3.1-10.8-3.1c-3.7,0-8.1,0.8-13.1,2.6c-5,1.8-10.8,4.5-17.2,8.3l-7.9,4.6l-26.1-15l8.1-4.7
				c17.6-10.2,21.9-17.9,12.9-23.1c-3.4-2-7.2-2.7-11.4-2.1c-4.2,0.6-8.6,2.1-12.9,4.6c-8.2,4.7-13.9,11.2-17.2,19.5L6.6,86.5
				c2.1-6.6,5.7-12.6,10.8-17.8c5.1-5.3,12.3-10.5,21.5-15.8C52.2,45.2,65.2,40.7,78,39.4C90.9,38.1,101.9,40.1,111.1,45.4z"/>
			<path id="XMLID_2637_" fill="#E42629" d="M111.4,57.8c8,4.6,12.4,9.9,13.2,16c0.8,6.1-2,12.5-8.6,19.3l0.5,0.3
				c24.1-10.8,44.9-11.2,62.5-1c11.9,6.9,16.6,15,14,24.4c-2.6,9.4-12.3,19-29.1,28.6c-6.9,4-13.8,7.4-20.7,10.2
				c-6.9,2.8-15,5.4-24.5,7.9L89.9,147c8.5-1.6,16.3-3.7,23.5-6.2c7.2-2.6,13.2-5.3,18.2-8.1c7.6-4.4,12.1-8.2,13.4-11.4
				c1.3-3.2-0.3-6.2-4.8-8.8c-3.5-2-7.1-3.1-10.8-3.1c-3.7-0.1-8.1,0.8-13.1,2.6c-5,1.8-10.8,4.5-17.2,8.3l-7.9,4.6l-26.1-15
				l8.1-4.7C90.7,94.8,95,87.2,86,82c-3.4-2-7.2-2.7-11.5-2.1c-4.2,0.6-8.6,2.1-12.9,4.6c-8.2,4.7-13.9,11.2-17.2,19.5L6.9,98.9
				c2.1-6.6,5.7-12.6,10.8-17.8c5.1-5.3,12.3-10.5,21.5-15.8c13.3-7.7,26.3-12.2,39.1-13.5C91.1,50.5,102.2,52.5,111.4,57.8z"/>
			<g id="XMLID_2660_">
				<polygon id="XMLID_3074_" fill="#FFFFFF" points="64.8,97.3 64.8,138.9 90.8,154 90.8,112.3 				"/>
				<path id="XMLID_3075_" fill="#909090" d="M92.5,156.8l-29.3-16.9l0-43.5l1.6-0.9l27.7,16V156.8z M66.4,138l22.8,13.2v-37.9
					l-22.8-13.2V138z"/>
			</g>
			<g id="XMLID_2746_">
				<polygon id="XMLID_2636_" fill="#FFFFFF" points="118.4,151.2 118.4,192.9 89.6,176.3 89.6,134.6 				"/>
				<path id="XMLID_2745_" fill="#909090" d="M87,37.4c-2.9-0.1-6,0.1-9.1,0.4c-13,1.3-26.4,5.9-39.8,13.7
					c-9.3,5.4-16.6,10.8-21.8,16.1c-4.9,5.1-8.5,10.8-10.7,17.2L5,86.2v1.7v41.7l40.3,5.4l0.5-1.4l0-41.7c3.1-7.8,8.6-14,16.4-18.4
					c4.2-2.4,8.3-3.9,12.3-4.4c3.9-0.5,7.3,0.1,10.4,1.9c2.5,1.5,3.8,3,3.8,4.7c0,2.7-2.9,7.6-16.7,15.5l-8.9,5.1l0,1.9l27.7,16
					l8.7-5c6.4-3.7,12.1-6.4,17-8.2c4.8-1.7,9-2.5,12.5-2.5c3.4,0,6.8,1,10,2.9c5.6,3.2,4.5,5.8,4.1,6.8c-0.8,2-3.7,5.5-12.7,10.7
					c-4.8,2.8-10.8,5.5-17.9,8c-6.9,2.5-14.5,4.5-22.7,6l-1.9,0.4v2.3v41.7l30.1,17.4l1.9-0.5v-41.7c9-2.4,16.9-4.9,23.5-7.6
					c6.9-2.8,13.9-6.3,20.9-10.3c17.3-10,27.1-19.7,29.8-29.6c2.8-10.2-2.1-19-14.7-26.3c-16.7-9.6-36.4-10-58.8-1.2
					c4.2-5.6,6-11,5.2-16.2c-0.9-6.6-5.6-12.4-14-17.2C104.7,39.8,96.3,37.6,87,37.4 M42.6,131.4l-34.3-4.6V88.3L42.6,93V131.4z
					 M116.8,190.1l-25.6-14.8v-37.9l22.7,13.1l2.9,1.7V190.1z M191.1,104.1c-2.5,8.9-12,18.3-28.3,27.7c-6.8,3.9-13.7,7.3-20.5,10.1
					c-6.6,2.7-14.6,5.3-23.7,7.6l-14.3-8.3l-10.2-5.9c7-1.5,13.5-3.3,19.5-5.5c7.3-2.6,13.5-5.4,18.4-8.2c8-4.6,12.6-8.6,14.1-12.2
					c1.2-2.8,1.2-7-5.5-10.8c-3.7-2.2-7.6-3.3-11.6-3.3c-3.8,0-8.5,0.8-13.6,2.7c-5.1,1.8-11,4.6-17.5,8.4l-7.1,4.1L68,97.3l5.7-3.3
					C86,86.9,91.9,80.9,91.9,75.7c0-2.9-1.8-5.5-5.4-7.5c-3.7-2.1-7.9-2.9-12.5-2.3c-4.4,0.6-9,2.2-13.5,4.8
					c-8.1,4.7-13.9,11.1-17.4,19.1l-18.2-2.5L8.8,85.2c2.1-5.6,5.4-10.8,9.8-15.3c5-5.1,12.1-10.4,21.1-15.6c13-7.5,26-12,38.5-13.3
					c12.4-1.3,23.2,0.7,32.1,5.8c7.5,4.3,11.6,9.3,12.4,14.9c0.8,5.6-2,11.6-8.2,18l-1.4,1.5l3,1.8l0.8-0.3
					c23.5-10.5,44-10.9,61-1.1C189.2,88,193.5,95.4,191.1,104.1z"/>
			</g>
			<path id="XMLID_2519_" fill="#909090" d="M116.8,150.4v43.4l1.4,0.8l0.6-0.2c9.5-2.4,17.8-5.1,24.7-8c6.9-2.8,13.9-6.3,20.9-10.3
				c17.3-10,27.1-19.7,29.8-29.6c0.4-1.4,0.6-2.9,0.7-4.6l0-44.3L182.4,122l-21.8,14.7l-21.3,9.5L116.8,150.4z"/>
			<path id="XMLID_2301_" fill="#909090" d="M140.3,99c-3.7-2.2-7.6-3.3-11.6-3.3c-3.8,0-8.5,0.8-13.6,2.7c-5.1,1.8-11,4.6-17.5,8.4
				l-8.7,5v24.9l1.9-0.4c8.3-1.6,15.8-3.6,22.5-6c7.3-2.6,13.5-5.4,18.4-8.2c8-4.6,12.6-8.6,14.1-12.2C147,107,147,102.9,140.3,99z"
				/>
			<path id="XMLID_2562_" fill="#909090" d="M121.3,74.3l-1.9,1.6c0,0-2.6,3.4-2.6,3.8c0,1.4,1.7,0.3,5.2-1l0,0l4.1-0.3V61.5
				L121.3,74.3z"/>
		</g>
	</g>
	<g id="XMLID_1446_">
		<path id="XMLID_1445_" fill="#909090" d="M130.9,146.3c1.2-0.7,3.1-0.7,4.2,0c1.2,0.7,1.2,1.8,0,2.4
			C134,149.4,129.8,147,130.9,146.3z"/>
		<path id="XMLID_1444_" fill="#909090" d="M146.2,140c1.2,0.7,1.2,1.8,0,2.4c-1.2,0.7-3.1,0.7-4.2,0c-1.2-0.7-1.2-1.8,0-2.4
			C143.1,139.3,145,139.3,146.2,140z"/>
		<path id="XMLID_1443_" fill="#909090" d="M157.2,133.6c1.2,0.7,1.2,1.8,0,2.4c-1.2,0.7-3.1,0.7-4.2,0c-1.2-0.7-1.2-1.8,0-2.4
			C154.2,132.9,156.1,132.9,157.2,133.6z"/>
		<path id="XMLID_1442_" fill="#909090" d="M124.1,140c1.2,0.7,1.2,1.8,0,2.4c-1.2,0.7-3.1,0.7-4.2,0c-1.2-0.7-1.2-1.8,0-2.4
			C121.1,139.3,122.9,139.3,124.1,140z"/>
		<path id="XMLID_1441_" fill="#909090" d="M135.2,133.6c1.2,0.7,1.2,1.8,0,2.4c-1.2,0.7-3.1,0.7-4.2,0c-1.2-0.7-1.2-1.8,0-2.4
			C132.1,132.9,134,132.9,135.2,133.6z"/>
		<path id="XMLID_1440_" fill="#909090" d="M146.2,127.2c1.2,0.7,1.2,1.8,0,2.4c-1.2,0.7-3.1,0.7-4.2,0c-1.2-0.7-1.2-1.8,0-2.4
			C143.1,126.5,145,126.5,146.2,127.2z"/>
		<path id="XMLID_1439_" fill="#909090" d="M97.8,116.9c-1.2-0.7-1.2-1.8,0-2.4c1.2-0.7,3.1-0.7,4.2,0
			C103.2,115.1,99,117.6,97.8,116.9z"/>
		<path id="XMLID_1438_" fill="#909090" d="M108.8,110.5c-1.2-0.7-1.2-1.8,0-2.4c1.2-0.7,3.1-0.7,4.2,0c1.2,0.7,1.2,1.8,0,2.4
			C111.9,111.2,110,111.2,108.8,110.5z"/>
		<path id="XMLID_1437_" fill="#909090" d="M91,108.1c1.2,0.7,1.2,1.8,0,2.4c-1.2,0.7-3.1,0.7-4.2,0c-1.2-0.7-1.2-1.8,0-2.4
			C87.9,107.4,89.8,107.4,91,108.1z"/>
		<path id="XMLID_1436_" fill="#909090" d="M102,101.7c1.2,0.7,1.2,1.8,0,2.4c-1.2,0.7-3.1,0.7-4.2,0c-1.2-0.7-1.2-1.8,0-2.4
			C99,101,100.9,101,102,101.7z"/>
		<path id="XMLID_1435_" fill="#909090" d="M79.9,101.7c1.2,0.7,1.2,1.8,0,2.4c-1.2,0.7-3.1,0.7-4.2,0c-1.2-0.7-1.2-1.8,0-2.4
			C76.9,101,78.8,101,79.9,101.7z"/>
		<path id="XMLID_1434_" fill="#909090" d="M91,95.3c1.2,0.7,1.2,1.8,0,2.4c-1.2,0.7-3.1,0.7-4.2,0c-1.2-0.7-1.2-1.8,0-2.4
			C87.9,94.7,89.8,94.7,91,95.3z"/>
		<path id="XMLID_1433_" fill="#909090" d="M53.6,104.2c-1.2-0.7-1.2-1.8,0-2.4c1.2-0.7,3.1-0.7,4.2,0
			C59,102.4,54.8,104.8,53.6,104.2z"/>
		<path id="XMLID_1432_" fill="#909090" d="M64.7,97.8c-1.2-0.7-1.2-1.8,0-2.4c1.2-0.7,3.1-0.7,4.2,0C70.1,96,65.8,98.5,64.7,97.8z"
			/>
		<path id="XMLID_1431_" fill="#909090" d="M46.7,95.3c1.2,0.7,1.2,1.8,0,2.4c-1.2,0.7-3.1,0.7-4.2,0c-1.2-0.7-1.2-1.8,0-2.4
			C43.7,94.6,45.5,94.6,46.7,95.3z"/>
		<path id="XMLID_1430_" fill="#909090" d="M57.8,88.9c1.2,0.7,1.2,1.8,0,2.4c-1.2,0.7-3.1,0.7-4.2,0c-1.2-0.7-1.2-1.8,0-2.4
			C54.7,88.2,56.6,88.2,57.8,88.9z"/>
		<path id="XMLID_1429_" fill="#909090" d="M68.8,82.5c1.2,0.7,1.2,1.8,0,2.4c-1.2,0.7-3.1,0.7-4.2,0c-1.2-0.7-1.2-1.8,0-2.4
			C65.7,81.9,67.6,81.9,68.8,82.5z"/>
		<path id="XMLID_1428_" fill="#909090" d="M24.6,95.3c1.2,0.7,1.2,1.8,0,2.4c-1.2,0.7-3.1,0.7-4.2,0c-1.2-0.7-1.2-1.8,0-2.4
			C21.6,94.6,23.5,94.6,24.6,95.3z"/>
		<path id="XMLID_1427_" fill="#909090" d="M35.7,88.9c1.2,0.7,1.2,1.8,0,2.4c-1.2,0.7-3.1,0.7-4.2,0c-1.2-0.7-1.2-1.8,0-2.4
			C32.6,88.2,34.5,88.2,35.7,88.9z"/>
		<path id="XMLID_1426_" fill="#909090" d="M46.7,82.5c1.2,0.7,1.2,1.8,0,2.4c-1.2,0.7-3.1,0.7-4.2,0c-1.2-0.7-1.2-1.8,0-2.4
			C43.7,81.9,45.5,81.9,46.7,82.5z"/>
		<path id="XMLID_1425_" fill="#909090" d="M57.8,76.2c1.2,0.7,1.2,1.8,0,2.4c-1.2,0.7-3.1,0.7-4.2,0c-1.2-0.7-1.2-1.8,0-2.4
			C54.7,75.5,56.6,75.5,57.8,76.2z"/>
		<path id="XMLID_1424_" fill="#909090" d="M24.6,82.5c1.2,0.7,1.2,1.8,0,2.4c-1.2,0.7-3.1,0.7-4.2,0c-1.2-0.7-1.2-1.8,0-2.4
			C21.6,81.9,23.5,81.9,24.6,82.5z"/>
		<path id="XMLID_1423_" fill="#909090" d="M35.7,76.2c1.2,0.7,1.2,1.8,0,2.4c-1.2,0.7-3.1,0.7-4.2,0c-1.2-0.7-1.2-1.8,0-2.4
			C32.6,75.5,34.5,75.5,35.7,76.2z"/>
		<path id="XMLID_1422_" fill="#909090" d="M46.7,69.8c1.2,0.7,1.2,1.8,0,2.4c-1.2,0.7-3.1,0.7-4.2,0c-1.2-0.7-1.2-1.8,0-2.4
			C43.7,69.1,45.5,69.1,46.7,69.8z"/>
		<path id="XMLID_1421_" fill="#909090" d="M164.1,127.3c1.2-0.7,3.1-0.7,4.2,0c1.2,0.7,1.2,1.8,0,2.4c-1.2,0.7-3.1,0.7-4.2,0
			C162.9,129.1,162.9,128,164.1,127.3z"/>
		<path id="XMLID_1420_" fill="#909090" d="M179.4,120.9c1.2,0.7,1.2,1.8,0,2.4c-1.2,0.7-3.1,0.7-4.2,0c-1.2-0.7-1.2-1.8,0-2.4
			C176.3,120.2,178.2,120.2,179.4,120.9z"/>
		<path id="XMLID_1419_" fill="#909090" d="M186.2,117c-1.2-0.7-1.2-1.8,0-2.4c1.2-0.7,3.1-0.7,4.2,0
			C191.6,115.2,187.3,117.7,186.2,117z"/>
		<path id="XMLID_1418_" fill="#909090" d="M153,120.9c1.2-0.7,3.1-0.7,4.2,0c1.2,0.7,1.2,1.8,0,2.4c-1.2,0.7-3.1,0.7-4.2,0
			C151.9,122.7,151.9,121.6,153,120.9z"/>
		<path id="XMLID_1417_" fill="#909090" d="M168.3,114.5c1.2,0.7,1.2,1.8,0,2.4c-1.2,0.7-3.1,0.7-4.2,0c-1.2-0.7-1.2-1.8,0-2.4
			C165.3,113.9,167.1,113.9,168.3,114.5z"/>
		<path id="XMLID_1416_" fill="#909090" d="M179.4,108.2c1.2,0.7,1.2,1.8,0,2.4c-1.2,0.7-3.1,0.7-4.2,0c-1.2-0.7-1.2-1.8,0-2.4
			C176.3,107.5,178.2,107.5,179.4,108.2z"/>
		<path id="XMLID_1415_" fill="#909090" d="M190.4,101.8c1.2,0.7,1.2,1.8,0,2.4c-1.2,0.7-3.1,0.7-4.2,0c-1.2-0.7-1.2-1.8,0-2.4
			C187.3,101.1,189.2,101.1,190.4,101.8z"/>
		<path id="XMLID_1414_" fill="#909090" d="M142,114.6c1.2-0.7,3.1-0.7,4.2,0c1.2,0.7,1.2,1.8,0,2.4c-1.2,0.7-3.1,0.7-4.2,0
			C140.8,116.3,140.8,115.2,142,114.6z"/>
		<path id="XMLID_1413_" fill="#909090" d="M157.3,108.2c1.2,0.7,1.2,1.8,0,2.4s-3.1,0.7-4.2,0c-1.2-0.7-1.2-1.8,0-2.4
			C154.2,107.5,156.1,107.5,157.3,108.2z"/>
		<path id="XMLID_1412_" fill="#909090" d="M168.3,101.8c1.2,0.7,1.2,1.8,0,2.4c-1.2,0.7-3.1,0.7-4.2,0c-1.2-0.7-1.2-1.8,0-2.4
			C165.3,101.1,167.1,101.1,168.3,101.8z"/>
		<path id="XMLID_1411_" fill="#909090" d="M179.4,95.4c1.2,0.7,1.2,1.8,0,2.4c-1.2,0.7-3.1,0.7-4.2,0c-1.2-0.7-1.2-1.8,0-2.4
			C176.3,94.7,178.2,94.7,179.4,95.4z"/>
		<path id="XMLID_1410_" fill="#909090" d="M146.2,101.8c1.2,0.7,1.2,1.8,0,2.4c-1.2,0.7-3.1,0.7-4.2,0c-1.2-0.7-1.2-1.8,0-2.4
			C143.2,101.1,145.1,101.1,146.2,101.8z"/>
		<path id="XMLID_1409_" fill="#909090" d="M157.3,95.4c1.2,0.7,1.2,1.8,0,2.4c-1.2,0.7-3.1,0.7-4.2,0c-1.2-0.7-1.2-1.8,0-2.4
			C154.2,94.7,156.1,94.7,157.3,95.4z"/>
		<path id="XMLID_1408_" fill="#909090" d="M168.3,89.1c1.2,0.7,1.2,1.8,0,2.4c-1.2,0.7-3.1,0.7-4.2,0c-1.2-0.7-1.2-1.8,0-2.4
			C165.3,88.4,167.1,88.4,168.3,89.1z"/>
		<path id="XMLID_1407_" fill="#909090" d="M119.9,101.8c1.2-0.7,3.1-0.7,4.2,0c1.2,0.7,1.2,1.8,0,2.4c-1.2,0.7-3.1,0.7-4.2,0
			C118.7,103.6,118.7,102.5,119.9,101.8z"/>
		<path id="XMLID_1406_" fill="#909090" d="M135.2,95.4c1.2,0.7,1.2,1.8,0,2.4c-1.2,0.7-3.1,0.7-4.2,0c-1.2-0.7-1.2-1.8,0-2.4
			C132.1,94.7,134,94.7,135.2,95.4z"/>
		<path id="XMLID_1405_" fill="#909090" d="M146.2,89.1c1.2,0.7,1.2,1.8,0,2.4c-1.2,0.7-3.1,0.7-4.2,0c-1.2-0.7-1.2-1.8,0-2.4
			C143.2,88.4,145.1,88.4,146.2,89.1z"/>
		<path id="XMLID_1404_" fill="#909090" d="M108.9,95.4c1.2-0.7,3.1-0.7,4.2,0c1.2,0.7,1.2,1.8,0,2.4c-1.2,0.7-3.1,0.7-4.2,0
			C107.7,97.2,107.7,96.1,108.9,95.4z"/>
		<path id="XMLID_1403_" fill="#909090" d="M97.8,89.1c1.2-0.7,3.1-0.7,4.2,0c1.2,0.7,1.2,1.8,0,2.4c-1.2,0.7-3.1,0.7-4.2,0
			C96.7,90.8,96.7,89.7,97.8,89.1z"/>
		<path id="XMLID_1402_" fill="#909090" d="M113.1,82.7c1.2,0.7,1.2,1.8,0,2.4c-1.2,0.7-3.1,0.7-4.2,0c-1.2-0.7-1.2-1.8,0-2.4
			C110,82,111.9,82,113.1,82.7z"/>
		<path id="XMLID_1401_" fill="#909090" d="M86.8,82.7c1.2-0.7,3.1-0.7,4.2,0c1.2,0.7,1.2,1.8,0,2.4c-1.2,0.7-3.1,0.7-4.2,0
			S85.6,83.4,86.8,82.7z"/>
		<path id="XMLID_1400_" fill="#909090" d="M102.1,76.3c1.2,0.7,1.2,1.8,0,2.4c-1.2,0.7-3.1,0.7-4.2,0c-1.2-0.7-1.2-1.8,0-2.4
			C99,75.6,100.9,75.6,102.1,76.3z"/>
		<path id="XMLID_1399_" fill="#909090" d="M113.1,69.9c1.2,0.7,1.2,1.8,0,2.4c-1.2,0.7-3.1,0.7-4.2,0c-1.2-0.7-1.2-1.8,0-2.4
			C110,69.3,111.9,69.3,113.1,69.9z"/>
		<path id="XMLID_1398_" fill="#909090" d="M75.6,76.2c1.2-0.7,3.1-0.7,4.2,0c1.2,0.7,1.2,1.8,0,2.4c-1.2,0.7-3.1,0.7-4.2,0
			C74.5,78,74.5,76.9,75.6,76.2z"/>
		<path id="XMLID_1397_" fill="#909090" d="M90.9,69.9c1.2,0.7,1.2,1.8,0,2.4c-1.2,0.7-3.1,0.7-4.2,0c-1.2-0.7-1.2-1.8,0-2.4
			C87.9,69.2,89.8,69.2,90.9,69.9z"/>
		<path id="XMLID_1396_" fill="#909090" d="M102,63.5c1.2,0.7,1.2,1.8,0,2.4c-1.2,0.7-3.1,0.7-4.2,0c-1.2-0.7-1.2-1.8,0-2.4
			C98.9,62.8,100.8,62.8,102,63.5z"/>
		<path id="XMLID_1395_" fill="#909090" d="M64.6,69.9c1.2-0.7,3.1-0.7,4.2,0c1.2,0.7,1.2,1.8,0,2.4c-1.2,0.7-3.1,0.7-4.2,0
			C63.4,71.6,63.4,70.5,64.6,69.9z"/>
		<path id="XMLID_1394_" fill="#909090" d="M79.9,63.5c1.2,0.7,1.2,1.8,0,2.4c-1.2,0.7-3.1,0.7-4.2,0c-1.2-0.7-1.2-1.8,0-2.4
			C76.8,62.8,78.7,62.8,79.9,63.5z"/>
		<path id="XMLID_1393_" fill="#909090" d="M90.9,57.1c1.2,0.7,1.2,1.8,0,2.4c-1.2,0.7-3.1,0.7-4.2,0c-1.2-0.7-1.2-1.8,0-2.4
			C87.9,56.4,89.8,56.4,90.9,57.1z"/>
		<path id="XMLID_1392_" fill="#909090" d="M53.6,63.5c1.2-0.7,3.1-0.7,4.2,0c1.2,0.7,1.2,1.8,0,2.4c-1.2,0.7-3.1,0.7-4.2,0
			C52.4,65.3,52.4,64.2,53.6,63.5z"/>
		<path id="XMLID_1391_" fill="#909090" d="M68.8,57.1c1.2,0.7,1.2,1.8,0,2.4c-1.2,0.7-3.1,0.7-4.2,0c-1.2-0.7-1.2-1.8,0-2.4
			C65.8,56.4,67.7,56.4,68.8,57.1z"/>
	</g>
</g>
</svg>
