<?xml version="1.0" encoding="utf-8"?>
<!-- Generator: Adobe Illustrator 24.1.2, SVG Export Plug-In . SVG Version: 6.00 Build 0)  -->
<svg version="1.1" id="Layer_1" xmlns="http://www.w3.org/2000/svg" xmlns:xlink="http://www.w3.org/1999/xlink" x="0px" y="0px"
	 viewBox="0 0 200 232" enable-background="new 0 0 200 232" xml:space="preserve">
<g id="XMLID_1661_">
	<g id="_x30_">
		<g id="XMLID_2287_">
			<g id="XMLID_2547_">
				<path id="XMLID_2993_" fill="#FFFFFF" d="M154.2,97l-27.3,17.3l-13.8,8.8c0,0-9.8,2.3-19.4,4.6l-48.8-8.8
					C32.1,113.2,20,108.7,20,108.7l0,42.4l0.1,0c0.5,7.8,6.3,15,17.8,21.6c14.8,8.5,30.7,12,47.8,10.4c17.1-1.6,36.4-8.6,57.8-20.9
					c20.7-11.9,32.6-23,35.6-33.3c0.4-1.2,0.6-2.4,0.7-3.5l0,0v-0.1c0.1-0.5,0-1,0-1.5l0.1-40.9L154.2,97z"/>
				<path id="XMLID_2994_" fill="#909090" d="M77.7,185.1c-14.4,0-28-3.7-40.7-11c-11.4-6.6-17.6-14-18.5-22l-0.1,0l-0.1-1l0-44.7
					l2.2,0.8c0.1,0,12.2,4.6,24.9,10.1l48.1,8.7l18.8-4.4l41-26L181.6,80l-0.1,43.7l0,0.5c0,0.4,0,0.8,0,1.1l-0.1,0.9
					c-0.2,1.1-0.4,2.1-0.7,3c-3.2,10.8-15.1,22-36.4,34.3c-21.5,12.4-41.1,19.5-58.4,21.1C83.1,184.9,80.4,185.1,77.7,185.1z
					 M21.6,150.5l0.1,0.5c0.4,7.2,6.1,14.1,17,20.3c14.4,8.3,30.2,11.8,46.9,10.2c16.8-1.6,36-8.6,57.1-20.7
					c20.2-11.7,32-22.6,34.9-32.4c0.3-1,0.5-2.1,0.6-3.2l0-0.4c0-0.2,0-0.3,0-0.5l0-0.6l0.1-38.2l-23.2,12.9l-41.6,26.3l-19.7,4.6
					l-49.1-8.9c-9.7-4.2-18.9-7.8-22.9-9.4L21.6,150.5z"/>
			</g>
			<g id="XMLID_2657_">
				<path id="XMLID_2348_" fill="#FFFFFF" d="M136.1,74.3c-4-2.3-9.5-2.5-16.4-0.5c-6.9,2-17.2,7-31,14.9
					C75,96.7,66.5,102.6,63,106.6c-3.4,3.9-3.1,7.1,0.9,9.4c4.1,2.4,9.6,2.5,16.6,0.4c7-2.1,17.1-7,30.5-14.7
					c13.4-7.7,21.9-13.6,25.6-17.7C140.3,79.9,140.1,76.7,136.1,74.3z"/>
				<path id="XMLID_2349_" fill="#909090" d="M71.7,119.5c-3.3,0-6.1-0.7-8.5-2.1c-2.3-1.3-3.7-3-4-5c-0.4-2.1,0.5-4.4,2.7-6.9
					c3.6-4.1,12.1-10,26-18.1c13.8-8,24.4-13.1,31.4-15.1c7.3-2.1,13.2-1.9,17.6,0.6c2.3,1.3,3.6,3,3.9,4.9c0.4,2.2-0.6,4.6-3,7.2
					c-3.8,4.3-12.3,10.2-26,18.1c-13.4,7.7-23.7,12.7-30.8,14.8C77.6,119,74.5,119.5,71.7,119.5z M128.3,74.1
					c-2.4,0-5.2,0.4-8.2,1.3c-6.7,2-17.1,6.9-30.7,14.8C76,98,67.6,103.8,64.3,107.6c-1,1.2-2.2,2.9-1.9,4.3c0.2,0.9,1,1.9,2.4,2.7
					c3.7,2.1,8.8,2.2,15.3,0.3c6.8-2,17-6.9,30.1-14.5c13.2-7.6,21.7-13.5,25.2-17.4c1.6-1.8,2.4-3.4,2.2-4.5
					c-0.1-0.9-0.9-1.8-2.3-2.6v0C133.4,74.6,131,74.1,128.3,74.1z"/>
			</g>
			<path id="XMLID_2983_" fill="#FFFFFF" d="M143.5,120.5c-21.4,12.4-40.7,19.3-57.8,20.9c-17.1,1.6-33.1-1.9-47.8-10.4
				c-14.4-8.3-20.1-17.6-17.1-27.9C23.9,92.9,35.7,81.9,56.2,70C77.7,57.6,97,50.6,114.2,48.9c17.2-1.7,33.2,1.8,48,10.3
				c14.4,8.3,20,17.6,16.9,27.9C176.1,97.4,164.2,108.5,143.5,120.5z M88.7,88.8C75,96.7,66.5,102.6,63,106.6
				c-3.4,3.9-3.1,7.1,0.9,9.4c4.1,2.4,9.6,2.5,16.6,0.4c7-2.1,17.1-7,30.5-14.7c13.4-7.7,21.9-13.6,25.6-17.7
				c3.7-4.1,3.5-7.3-0.5-9.6c-4-2.3-9.5-2.5-16.4-0.5C112.8,75.9,102.5,80.9,88.7,88.8z"/>
			<path id="XMLID_3033_" fill="#E42629" d="M162.2,72.8c-14.8-8.5-30.8-12-48-10.3C97,64.1,77.6,71.2,56.1,83.6
				c-19.1,11-30.5,21.4-34.5,31V129c2.5,5.5,7.8,10.7,16.2,15.5c14.8,8.5,30.7,12,47.8,10.4c17.1-1.6,36.4-8.6,57.8-20.9
				c20.7-11.9,32.6-23,35.6-33.3C182.2,90.4,176.6,81.1,162.2,72.8z M136.6,97.5c-3.7,4.1-12.2,10-25.6,17.7
				c-13.3,7.7-23.5,12.6-30.5,14.7c-7,2.1-12.5,2-16.6-0.4c-4-2.3-4.3-5.5-0.9-9.4c3.4-3.9,12-9.9,25.6-17.8
				c13.8-8,24.1-12.9,31-14.9c6.9-2,12.4-1.8,16.4,0.5C140.1,90.2,140.2,93.4,136.6,97.5z"/>
			<polygon id="XMLID_2268_" fill="#909090" points="87,141.3 87,183.5 124.4,173.7 159.4,151.5 178.3,132.5 180.7,112.6 181.6,86 
				168.7,103.2 153.5,114.4 125.5,129.8 			"/>
			<polygon id="XMLID_2673_" fill="#909090" points="111.7,76.9 111.7,101.7 87,114 75.5,117.3 66,116.9 61.4,113.7 61.4,109 
				67.6,102.4 93.2,86.3 			"/>
			<path id="XMLID_2986_" fill="#909090" d="M77.8,143.4c-14.4,0-28-3.7-40.7-11C22,123.7,16,113.7,19.3,102.7
				c3.2-10.7,15-21.9,36.1-34.1C77,56.2,96.7,49,114.1,47.3c17.5-1.7,33.9,1.9,48.9,10.5c15.1,8.7,21,18.7,17.7,29.7
				c-3.2,10.8-15.1,22-36.4,34.3l0,0c-21.5,12.4-41.2,19.5-58.4,21.1C83.2,143.3,80.5,143.4,77.8,143.4z M122.4,50.2
				c-2.7,0-5.3,0.1-8,0.4C97.5,52.2,78.2,59.2,57,71.4c-20,11.6-31.7,22.4-34.6,32.2c-2.8,9.5,2.5,18,16.3,26
				c14.4,8.3,30.2,11.7,46.9,10.2c16.8-1.6,36-8.6,57.1-20.7c20.2-11.7,32-22.6,34.9-32.4c2.9-9.6-2.4-18.1-16.2-26
				C149.3,53.7,136.2,50.2,122.4,50.2z M71.7,119.5c-3.3,0-6.1-0.7-8.5-2.1c-2.3-1.3-3.7-3-4-5c-0.4-2.1,0.5-4.4,2.7-6.9
				c3.6-4.1,12.1-10,26-18.1c13.8-8,24.4-13.1,31.4-15.1c7.3-2.1,13.2-1.9,17.6,0.6c2.3,1.3,3.6,3,3.9,4.9c0.4,2.2-0.6,4.6-3,7.2
				c-3.8,4.3-12.3,10.2-26,18.1c-13.4,7.7-23.7,12.7-30.8,14.8C77.6,119,74.5,119.5,71.7,119.5z M89.5,90.2
				C76,98,67.6,103.8,64.3,107.6c-1,1.2-2.2,2.9-1.9,4.3c0.2,0.9,1,1.9,2.4,2.7c3.7,2.1,8.8,2.2,15.3,0.3c6.8-2,17-6.9,30.1-14.5
				c13.2-7.6,21.7-13.5,25.2-17.4c1.6-1.8,2.4-3.4,2.2-4.5c-0.1-0.9-0.9-1.8-2.3-2.6c-3.6-2.1-8.7-2.2-15.1-0.3
				C113.4,77.4,103.1,82.4,89.5,90.2L89.5,90.2z"/>
		</g>
	</g>
	<g id="XMLID_1805_">
		<path id="XMLID_1804_" fill="#909090" d="M128.2,140.8c-1.2-0.7-1.2-1.8,0-2.4c1.2-0.7,3.1-0.7,4.2,0
			C133.6,139.1,129.3,141.5,128.2,140.8z"/>
		<path id="XMLID_1803_" fill="#909090" d="M139.2,134.5c-1.2-0.7-1.2-1.8,0-2.4c1.2-0.7,3.1-0.7,4.2,0
			C144.6,132.7,140.4,135.1,139.2,134.5z"/>
		<path id="XMLID_1802_" fill="#909090" d="M150.3,128.1c-1.2-0.7-1.2-1.8,0-2.4c1.2-0.7,3.1-0.7,4.2,0
			C155.6,126.3,151.4,128.8,150.3,128.1z"/>
		<path id="XMLID_1801_" fill="#909090" d="M88.2,151.1c1.2,0.7,1.2,1.8,0,2.4c-1.2,0.7-3.1,0.7-4.2,0c-1.2-0.7-1.2-1.8,0-2.4
			C85.2,150.5,87.1,150.5,88.2,151.1z"/>
		<path id="XMLID_1800_" fill="#909090" d="M99.3,144.8c1.2,0.7,1.2,1.8,0,2.4c-1.2,0.7-3.1,0.7-4.2,0c-1.2-0.7-1.2-1.8,0-2.4
			C96.2,144.1,98.1,144.1,99.3,144.8z"/>
		<path id="XMLID_1799_" fill="#909090" d="M110.3,138.4c1.2,0.7,1.2,1.8,0,2.4c-1.2,0.7-3.1,0.7-4.2,0c-1.2-0.7-1.2-1.8,0-2.4
			C107.2,137.7,109.1,137.7,110.3,138.4z"/>
		<path id="XMLID_1798_" fill="#909090" d="M121.3,132c1.2,0.7,1.2,1.8,0,2.4c-1.2,0.7-3.1,0.7-4.2,0c-1.2-0.7-1.2-1.8,0-2.4
			C118.3,131.3,120.2,131.3,121.3,132z"/>
		<path id="XMLID_1797_" fill="#909090" d="M132.4,125.6c1.2,0.7,1.2,1.8,0,2.4c-1.2,0.7-3.1,0.7-4.2,0c-1.2-0.7-1.2-1.8,0-2.4
			C129.3,125,131.2,125,132.4,125.6z"/>
		<path id="XMLID_1796_" fill="#909090" d="M143.4,119.3c1.2,0.7,1.2,1.8,0,2.4c-1.2,0.7-3.1,0.7-4.2,0c-1.2-0.7-1.2-1.8,0-2.4
			C140.4,118.6,142.3,118.6,143.4,119.3z"/>
		<path id="XMLID_1795_" fill="#909090" d="M154.5,112.9c1.2,0.7,1.2,1.8,0,2.4c-1.2,0.7-3.1,0.7-4.2,0c-1.2-0.7-1.2-1.8,0-2.4
			C151.4,112.2,153.3,112.2,154.5,112.9z"/>
		<path id="XMLID_1794_" fill="#909090" d="M165.5,106.5c1.2,0.7,1.2,1.8,0,2.4c-1.2,0.7-3.1,0.7-4.2,0c-1.2-0.7-1.2-1.8,0-2.4
			C162.5,105.8,164.4,105.8,165.5,106.5z"/>
		<path id="XMLID_1793_" fill="#909090" d="M176.6,102.6c-1.2,0.7-3.1,0.7-4.2,0c-1.2-0.7-1.2-1.8,0-2.4c1.2-0.7,3.1-0.7,4.2,0
			C177.7,100.8,177.7,101.9,176.6,102.6z"/>
		<path id="XMLID_1792_" fill="#909090" d="M66.1,151.1c1.2,0.7,1.2,1.8,0,2.4c-1.2,0.7-3.1,0.7-4.2,0c-1.2-0.7-1.2-1.8,0-2.4
			C63.1,150.5,65,150.5,66.1,151.1z"/>
		<path id="XMLID_1791_" fill="#909090" d="M77.2,144.8c1.2,0.7,1.2,1.8,0,2.4c-1.2,0.7-3.1,0.7-4.2,0c-1.2-0.7-1.2-1.8,0-2.4
			C74.1,144.1,76,144.1,77.2,144.8z"/>
		<path id="XMLID_1790_" fill="#909090" d="M88.2,138.4c1.2,0.7,1.2,1.8,0,2.4c-1.2,0.7-3.1,0.7-4.2,0c-1.2-0.7-1.2-1.8,0-2.4
			C85.2,137.7,87.1,137.7,88.2,138.4z"/>
		<path id="XMLID_1789_" fill="#909090" d="M99.3,132c1.2,0.7,1.2,1.8,0,2.4c-1.2,0.7-3.1,0.7-4.2,0c-1.2-0.7-1.2-1.8,0-2.4
			C96.2,131.3,98.1,131.3,99.3,132z"/>
		<path id="XMLID_1788_" fill="#909090" d="M110.3,125.6c1.2,0.7,1.2,1.8,0,2.4c-1.2,0.7-3.1,0.7-4.2,0c-1.2-0.7-1.2-1.8,0-2.4
			C107.2,125,109.1,125,110.3,125.6z"/>
		<path id="XMLID_1787_" fill="#909090" d="M121.3,119.3c1.2,0.7,1.2,1.8,0,2.4c-1.2,0.7-3.1,0.7-4.2,0c-1.2-0.7-1.2-1.8,0-2.4
			C118.3,118.6,120.2,118.6,121.3,119.3z"/>
		<path id="XMLID_1786_" fill="#909090" d="M132.4,112.9c1.2,0.7,1.2,1.8,0,2.4c-1.2,0.7-3.1,0.7-4.2,0c-1.2-0.7-1.2-1.8,0-2.4
			C129.3,112.2,131.2,112.2,132.4,112.9z"/>
		<path id="XMLID_1785_" fill="#909090" d="M143.4,106.5c1.2,0.7,1.2,1.8,0,2.4c-1.2,0.7-3.1,0.7-4.2,0c-1.2-0.7-1.2-1.8,0-2.4
			C140.4,105.8,142.3,105.8,143.4,106.5z"/>
		<path id="XMLID_1784_" fill="#909090" d="M154.5,100.2c1.2,0.7,1.2,1.8,0,2.4c-1.2,0.7-3.1,0.7-4.2,0c-1.2-0.7-1.2-1.8,0-2.4
			C151.4,99.5,153.3,99.5,154.5,100.2z"/>
		<path id="XMLID_1783_" fill="#909090" d="M165.5,93.8c1.2,0.7,1.2,1.8,0,2.4c-1.2,0.7-3.1,0.7-4.2,0c-1.2-0.7-1.2-1.8,0-2.4
			C162.5,93.1,164.4,93.1,165.5,93.8z"/>
		<path id="XMLID_1782_" fill="#909090" d="M176.6,87.4c1.2,0.7,1.2,1.8,0,2.4c-1.2,0.7-3.1,0.7-4.2,0c-1.2-0.7-1.2-1.8,0-2.4
			C173.5,86.7,175.4,86.7,176.6,87.4z"/>
		<path id="XMLID_1781_" fill="#909090" d="M55.1,144.8c1.2,0.7,1.2,1.8,0,2.4c-1.2,0.7-3.1,0.7-4.2,0c-1.2-0.7-1.2-1.8,0-2.4
			C52,144.1,53.9,144.1,55.1,144.8z"/>
		<path id="XMLID_1780_" fill="#909090" d="M66.1,138.4c1.2,0.7,1.2,1.8,0,2.4c-1.2,0.7-3.1,0.7-4.2,0c-1.2-0.7-1.2-1.8,0-2.4
			C63.1,137.7,65,137.7,66.1,138.4z"/>
		<path id="XMLID_1779_" fill="#909090" d="M77.2,132c1.2,0.7,1.2,1.8,0,2.4c-1.2,0.7-3.1,0.7-4.2,0c-1.2-0.7-1.2-1.8,0-2.4
			C74.1,131.3,76,131.3,77.2,132z"/>
		<path id="XMLID_1778_" fill="#909090" d="M143.4,93.8c1.2,0.7,1.2,1.8,0,2.4c-1.2,0.7-3.1,0.7-4.2,0c-1.2-0.7-1.2-1.8,0-2.4
			C140.4,93.1,142.3,93.1,143.4,93.8z"/>
		<path id="XMLID_1777_" fill="#909090" d="M154.5,87.4c1.2,0.7,1.2,1.8,0,2.4c-1.2,0.7-3.1,0.7-4.2,0c-1.2-0.7-1.2-1.8,0-2.4
			C151.4,86.7,153.3,86.7,154.5,87.4z"/>
		<path id="XMLID_1776_" fill="#909090" d="M165.5,81c1.2,0.7,1.2,1.8,0,2.4c-1.2,0.7-3.1,0.7-4.2,0c-1.2-0.7-1.2-1.8,0-2.4
			C162.5,80.4,164.4,80.4,165.5,81z"/>
		<path id="XMLID_1775_" fill="#909090" d="M44,138.3c1.2,0.7,1.2,1.8,0,2.4c-1.2,0.7-3.1,0.7-4.2,0c-1.2-0.7-1.2-1.8,0-2.4
			C40.9,137.7,42.8,137.7,44,138.3z"/>
		<path id="XMLID_1774_" fill="#909090" d="M55,131.9c1.2,0.7,1.2,1.8,0,2.4c-1.2,0.7-3.1,0.7-4.2,0c-1.2-0.7-1.2-1.8,0-2.4
			C51.9,131.3,53.8,131.3,55,131.9z"/>
		<path id="XMLID_1773_" fill="#909090" d="M88.1,112.8c1.2,0.7,1.2,1.8,0,2.4c-1.2,0.7-3.1,0.7-4.2,0c-1.2-0.7-1.2-1.8,0-2.4
			C85.1,112.2,87,112.2,88.1,112.8z"/>
		<path id="XMLID_1772_" fill="#909090" d="M99.2,106.5c1.2,0.7,1.2,1.8,0,2.4c-1.2,0.7-3.1,0.7-4.2,0c-1.2-0.7-1.2-1.8,0-2.4
			C96.1,105.8,98,105.8,99.2,106.5z"/>
		<path id="XMLID_1771_" fill="#909090" d="M110.2,100.1c1.2,0.7,1.2,1.8,0,2.4c-1.2,0.7-3.1,0.7-4.2,0c-1.2-0.7-1.2-1.8,0-2.4
			C107.2,99.4,109,99.4,110.2,100.1z"/>
		<path id="XMLID_1770_" fill="#909090" d="M143.3,81c1.2,0.7,1.2,1.8,0,2.4c-1.2,0.7-3.1,0.7-4.2,0c-1.2-0.7-1.2-1.8,0-2.4
			C140.3,80.3,142.2,80.3,143.3,81z"/>
		<path id="XMLID_1769_" fill="#909090" d="M154.4,74.6c1.2,0.7,1.2,1.8,0,2.4c-1.2,0.7-3.1,0.7-4.2,0c-1.2-0.7-1.2-1.8,0-2.4
			C151.3,73.9,153.2,73.9,154.4,74.6z"/>
		<path id="XMLID_1768_" fill="#909090" d="M32.9,131.9c1.2,0.7,1.2,1.8,0,2.4c-1.2,0.7-3.1,0.7-4.2,0c-1.2-0.7-1.2-1.8,0-2.4
			C29.9,131.3,31.7,131.3,32.9,131.9z"/>
		<path id="XMLID_1767_" fill="#909090" d="M44,125.6c1.2,0.7,1.2,1.8,0,2.4c-1.2,0.7-3.1,0.7-4.2,0c-1.2-0.7-1.2-1.8,0-2.4
			C40.9,124.9,42.8,124.9,44,125.6z"/>
		<path id="XMLID_1766_" fill="#909090" d="M55,119.2c1.2,0.7,1.2,1.8,0,2.4c-1.2,0.7-3.1,0.7-4.2,0c-1.2-0.7-1.2-1.8,0-2.4
			C51.9,118.5,53.8,118.5,55,119.2z"/>
		<path id="XMLID_1765_" fill="#909090" d="M66,112.8c1.2,0.7,1.2,1.8,0,2.4c-1.2,0.7-3.1,0.7-4.2,0c-1.2-0.7-1.2-1.8,0-2.4
			C63,112.2,64.9,112.2,66,112.8z"/>
		<path id="XMLID_1764_" fill="#909090" d="M77.1,106.5c1.2,0.7,1.2,1.8,0,2.4c-1.2,0.7-3.1,0.7-4.2,0c-1.2-0.7-1.2-1.8,0-2.4
			C74,105.8,75.9,105.8,77.1,106.5z"/>
		<path id="XMLID_1763_" fill="#909090" d="M88.1,100.1c1.2,0.7,1.2,1.8,0,2.4c-1.2,0.7-3.1,0.7-4.2,0c-1.2-0.7-1.2-1.8,0-2.4
			C85.1,99.4,87,99.4,88.1,100.1z"/>
		<path id="XMLID_1762_" fill="#909090" d="M99.2,93.7c1.2,0.7,1.2,1.8,0,2.4c-1.2,0.7-3.1,0.7-4.2,0c-1.2-0.7-1.2-1.8,0-2.4
			C96.1,93,98,93,99.2,93.7z"/>
		<path id="XMLID_1761_" fill="#909090" d="M110.2,87.3c1.2,0.7,1.2,1.8,0,2.4c-1.2,0.7-3.1,0.7-4.2,0c-1.2-0.7-1.2-1.8,0-2.4
			C107.2,86.7,109,86.7,110.2,87.3z"/>
		<path id="XMLID_1760_" fill="#909090" d="M121.3,81c1.2,0.7,1.2,1.8,0,2.4c-1.2,0.7-3.1,0.7-4.2,0c-1.2-0.7-1.2-1.8,0-2.4
			C118.2,80.3,120.1,80.3,121.3,81z"/>
		<path id="XMLID_1759_" fill="#909090" d="M132.3,74.6c1.2,0.7,1.2,1.8,0,2.4c-1.2,0.7-3.1,0.7-4.2,0c-1.2-0.7-1.2-1.8,0-2.4
			C129.2,73.9,131.1,73.9,132.3,74.6z"/>
		<path id="XMLID_1758_" fill="#909090" d="M143.3,68.2c1.2,0.7,1.2,1.8,0,2.4c-1.2,0.7-3.1,0.7-4.2,0c-1.2-0.7-1.2-1.8,0-2.4
			C140.3,67.5,142.2,67.5,143.3,68.2z"/>
		<path id="XMLID_1757_" fill="#909090" d="M32.9,119.2c1.2,0.7,1.2,1.8,0,2.4c-1.2,0.7-3.1,0.7-4.2,0c-1.2-0.7-1.2-1.8,0-2.4
			C29.9,118.5,31.7,118.5,32.9,119.2z"/>
		<path id="XMLID_1756_" fill="#909090" d="M44,112.8c1.2,0.7,1.2,1.8,0,2.4c-1.2,0.7-3.1,0.7-4.2,0c-1.2-0.7-1.2-1.8,0-2.4
			C40.9,112.2,42.8,112.2,44,112.8z"/>
		<path id="XMLID_1755_" fill="#909090" d="M55,106.5c1.2,0.7,1.2,1.8,0,2.4c-1.2,0.7-3.1,0.7-4.2,0c-1.2-0.7-1.2-1.8,0-2.4
			C51.9,105.8,53.8,105.8,55,106.5z"/>
		<path id="XMLID_1754_" fill="#909090" d="M66,100.1c1.2,0.7,1.2,1.8,0,2.4c-1.2,0.7-3.1,0.7-4.2,0c-1.2-0.7-1.2-1.8,0-2.4
			C63,99.4,64.9,99.4,66,100.1z"/>
		<path id="XMLID_1753_" fill="#909090" d="M77.1,93.7c1.2,0.7,1.2,1.8,0,2.4c-1.2,0.7-3.1,0.7-4.2,0c-1.2-0.7-1.2-1.8,0-2.4
			C74,93,75.9,93,77.1,93.7z"/>
		<path id="XMLID_1752_" fill="#909090" d="M88.1,87.3c1.2,0.7,1.2,1.8,0,2.4c-1.2,0.7-3.1,0.7-4.2,0c-1.2-0.7-1.2-1.8,0-2.4
			C85.1,86.7,87,86.7,88.1,87.3z"/>
		<path id="XMLID_1751_" fill="#909090" d="M99.2,81c1.2,0.7,1.2,1.8,0,2.4c-1.2,0.7-3.1,0.7-4.2,0c-1.2-0.7-1.2-1.8,0-2.4
			C96.1,80.3,98,80.3,99.2,81z"/>
		<path id="XMLID_1750_" fill="#909090" d="M110.2,74.6c1.2,0.7,1.2,1.8,0,2.4c-1.2,0.7-3.1,0.7-4.2,0c-1.2-0.7-1.2-1.8,0-2.4
			C107.2,73.9,109,73.9,110.2,74.6z"/>
		<path id="XMLID_1749_" fill="#909090" d="M121.3,68.2c1.2,0.7,1.2,1.8,0,2.4c-1.2,0.7-3.1,0.7-4.2,0c-1.2-0.7-1.2-1.8,0-2.4
			C118.2,67.5,120.1,67.5,121.3,68.2z"/>
		<path id="XMLID_1748_" fill="#909090" d="M32.9,106.5c1.2,0.7,1.2,1.8,0,2.4c-1.2,0.7-3.1,0.7-4.2,0c-1.2-0.7-1.2-1.8,0-2.4
			C29.9,105.8,31.7,105.8,32.9,106.5z"/>
		<path id="XMLID_1747_" fill="#909090" d="M44,100.1c1.2,0.7,1.2,1.8,0,2.4c-1.2,0.7-3.1,0.7-4.2,0c-1.2-0.7-1.2-1.8,0-2.4
			C40.9,99.4,42.8,99.4,44,100.1z"/>
		<path id="XMLID_1746_" fill="#909090" d="M55,93.7c1.2,0.7,1.2,1.8,0,2.4c-1.2,0.7-3.1,0.7-4.2,0c-1.2-0.7-1.2-1.8,0-2.4
			C51.9,93,53.8,93,55,93.7z"/>
		<path id="XMLID_1745_" fill="#909090" d="M66,87.3c1.2,0.7,1.2,1.8,0,2.4c-1.2,0.7-3.1,0.7-4.2,0c-1.2-0.7-1.2-1.8,0-2.4
			C63,86.7,64.9,86.7,66,87.3z"/>
		<path id="XMLID_1744_" fill="#909090" d="M77.1,81c1.2,0.7,1.2,1.8,0,2.4c-1.2,0.7-3.1,0.7-4.2,0c-1.2-0.7-1.2-1.8,0-2.4
			C74,80.3,75.9,80.3,77.1,81z"/>
		<path id="XMLID_1743_" fill="#909090" d="M88.1,74.6c1.2,0.7,1.2,1.8,0,2.4c-1.2,0.7-3.1,0.7-4.2,0c-1.2-0.7-1.2-1.8,0-2.4
			C85.1,73.9,87,73.9,88.1,74.6z"/>
		<path id="XMLID_1742_" fill="#909090" d="M99.2,68.2c1.2,0.7,1.2,1.8,0,2.4c-1.2,0.7-3.1,0.7-4.2,0c-1.2-0.7-1.2-1.8,0-2.4
			C96.1,67.5,98,67.5,99.2,68.2z"/>
	</g>
</g>
</svg>
