<?xml version="1.0" encoding="utf-8"?>
<!-- Generator: Adobe Illustrator 24.1.2, SVG Export Plug-In . SVG Version: 6.00 Build 0)  -->
<svg version="1.1" id="Layer_1" xmlns="http://www.w3.org/2000/svg" xmlns:xlink="http://www.w3.org/1999/xlink" x="0px" y="0px"
	 viewBox="0 0 200 232" enable-background="new 0 0 200 232" xml:space="preserve">
<g id="XMLID_2126_">
	<g id="_x37_">
		<g id="XMLID_2605_">
			<polygon id="XMLID_3035_" fill="#FFFFFF" points="33.5,60.9 74,83.4 74,116.5 33.5,94 			"/>
			<polygon id="XMLID_3031_" fill="#FFFFFF" points="126,7.5 166.5,30 74,83.4 33.5,60.9 			"/>
			<polygon id="XMLID_2317_" fill="#E42629" points="126.9,18.5 167.4,41 74.9,94.4 34.4,71.9 			"/>
			<polygon id="XMLID_3027_" fill="#FFFFFF" points="45,202 85.5,224.5 129.5,84.4 74,116.5 72.2,115.5 			"/>
			<polygon id="XMLID_2264_" fill="#E42629" points="76.5,129 55.2,197.7 90.8,216.7 111.6,149.9 			"/>
			<path id="XMLID_2767_" fill="#909090" d="M166.5,28.1L126.8,6.1L126,5.6L33.5,59l-1.6,0.9v1.9v33.1l38.3,21.3l-27.2,86.6
				l40.5,22.5l1.9,1.1l1.3-0.8l35.9-20.7L168,54l0.1-23.1l0-1.9L166.5,28.1z M126,9.3L163.2,30l-48.3,27.9L74,81.5L36.8,60.8
				L126,9.3z M35.1,93V63.6l10.9,6.1l26.3,14.6v29.4l-1.2-0.6l0,0L35.1,93z M46.9,201.2l25.8-82.2l1.3-0.7l1.6-0.9l51.1-29.5
				L84.5,222.2L46.9,201.2z"/>
		</g>
	</g>
	<g id="XMLID_2093_">
		<g id="XMLID_1619_">
			<path id="XMLID_1618_" fill="#909090" d="M71.5,82.8c1.2,0.7,1.2,1.8,0,2.4c-1.2,0.7-3.1,0.7-4.2,0c-1.2-0.7-1.2-1.8,0-2.4
				C68.4,82.1,70.3,82.1,71.5,82.8z"/>
			<path id="XMLID_1617_" fill="#909090" d="M82.5,76.4c1.2,0.7,1.2,1.8,0,2.4c-1.2,0.7-3.1,0.7-4.2,0c-1.2-0.7-1.2-1.8,0-2.4
				C79.5,75.8,81.4,75.8,82.5,76.4z"/>
			<path id="XMLID_1616_" fill="#909090" d="M93.6,70.1c1.2,0.7,1.2,1.8,0,2.4c-1.2,0.7-3.1,0.7-4.2,0c-1.2-0.7-1.2-1.8,0-2.4
				C90.5,69.4,92.4,69.4,93.6,70.1z"/>
			<path id="XMLID_1615_" fill="#909090" d="M104.6,63.7c1.2,0.7,1.2,1.8,0,2.4c-1.2,0.7-3.1,0.7-4.2,0c-1.2-0.7-1.2-1.8,0-2.4
				C101.5,63,103.4,63,104.6,63.7z"/>
			<path id="XMLID_1614_" fill="#909090" d="M115.6,57.3c1.2,0.7,1.2,1.8,0,2.4c-1.2,0.7-3.1,0.7-4.2,0c-1.2-0.7-1.2-1.8,0-2.4
				C112.6,56.6,114.5,56.6,115.6,57.3z"/>
			<path id="XMLID_1613_" fill="#909090" d="M126.7,50.9c1.2,0.7,1.2,1.8,0,2.4c-1.2,0.7-3.1,0.7-4.2,0c-1.2-0.7-1.2-1.8,0-2.4
				C123.6,50.3,125.5,50.3,126.7,50.9z"/>
			<path id="XMLID_1612_" fill="#909090" d="M137.7,44.6c1.2,0.7,1.2,1.8,0,2.4c-1.2,0.7-3.1,0.7-4.2,0c-1.2-0.7-1.2-1.8,0-2.4
				C134.7,43.9,136.6,43.9,137.7,44.6z"/>
			<path id="XMLID_1611_" fill="#909090" d="M148.8,38.2c1.2,0.7,1.2,1.8,0,2.4c-1.2,0.7-3.1,0.7-4.2,0c-1.2-0.7-1.2-1.8,0-2.4
				C145.7,37.5,147.6,37.5,148.8,38.2z"/>
			<path id="XMLID_1610_" fill="#909090" d="M60.4,76.4c1.2,0.7,1.2,1.8,0,2.4c-1.2,0.7-3.1,0.7-4.2,0c-1.2-0.7-1.2-1.8,0-2.4
				C57.4,75.8,59.3,75.8,60.4,76.4z"/>
			<path id="XMLID_1609_" fill="#909090" d="M71.5,70.1c1.2,0.7,1.2,1.8,0,2.4c-1.2,0.7-3.1,0.7-4.2,0c-1.2-0.7-1.2-1.8,0-2.4
				C68.4,69.4,70.3,69.4,71.5,70.1z"/>
			<path id="XMLID_1608_" fill="#909090" d="M82.5,63.7c1.2,0.7,1.2,1.8,0,2.4c-1.2,0.7-3.1,0.7-4.2,0c-1.2-0.7-1.2-1.8,0-2.4
				C79.5,63,81.4,63,82.5,63.7z"/>
			<path id="XMLID_1607_" fill="#909090" d="M93.6,57.3c1.2,0.7,1.2,1.8,0,2.4c-1.2,0.7-3.1,0.7-4.2,0c-1.2-0.7-1.2-1.8,0-2.4
				C90.5,56.6,92.4,56.6,93.6,57.3z"/>
			<path id="XMLID_1606_" fill="#909090" d="M104.6,50.9c1.2,0.7,1.2,1.8,0,2.4c-1.2,0.7-3.1,0.7-4.2,0c-1.2-0.7-1.2-1.8,0-2.4
				C101.5,50.3,103.4,50.3,104.6,50.9z"/>
			<path id="XMLID_1605_" fill="#909090" d="M115.6,44.6c1.2,0.7,1.2,1.8,0,2.4c-1.2,0.7-3.1,0.7-4.2,0c-1.2-0.7-1.2-1.8,0-2.4
				C112.6,43.9,114.5,43.9,115.6,44.6z"/>
			<path id="XMLID_1604_" fill="#909090" d="M126.7,38.2c1.2,0.7,1.2,1.8,0,2.4c-1.2,0.7-3.1,0.7-4.2,0c-1.2-0.7-1.2-1.8,0-2.4
				C123.6,37.5,125.5,37.5,126.7,38.2z"/>
			<path id="XMLID_1603_" fill="#909090" d="M137.7,31.8c1.2,0.7,1.2,1.8,0,2.4c-1.2,0.7-3.1,0.7-4.2,0c-1.2-0.7-1.2-1.8,0-2.4
				C134.7,31.2,136.6,31.2,137.7,31.8z"/>
			<path id="XMLID_1602_" fill="#909090" d="M49.4,70.1c1.2,0.7,1.2,1.8,0,2.4c-1.2,0.7-3.1,0.7-4.2,0c-1.2-0.7-1.2-1.8,0-2.4
				C46.3,69.4,48.2,69.4,49.4,70.1z"/>
			<path id="XMLID_1601_" fill="#909090" d="M60.4,63.7c1.2,0.7,1.2,1.8,0,2.4c-1.2,0.7-3.1,0.7-4.2,0c-1.2-0.7-1.2-1.8,0-2.4
				C57.4,63,59.3,63,60.4,63.7z"/>
			<path id="XMLID_1584_" fill="#909090" d="M71.5,57.3c1.2,0.7,1.2,1.8,0,2.4c-1.2,0.7-3.1,0.7-4.2,0c-1.2-0.7-1.2-1.8,0-2.4
				C68.4,56.6,70.3,56.6,71.5,57.3z"/>
			<path id="XMLID_1583_" fill="#909090" d="M82.5,50.9c1.2,0.7,1.2,1.8,0,2.4c-1.2,0.7-3.1,0.7-4.2,0c-1.2-0.7-1.2-1.8,0-2.4
				C79.5,50.3,81.4,50.3,82.5,50.9z"/>
			<path id="XMLID_1575_" fill="#909090" d="M93.6,44.6c1.2,0.7,1.2,1.8,0,2.4c-1.2,0.7-3.1,0.7-4.2,0c-1.2-0.7-1.2-1.8,0-2.4
				C90.5,43.9,92.4,43.9,93.6,44.6z"/>
			<path id="XMLID_1574_" fill="#909090" d="M104.6,38.2c1.2,0.7,1.2,1.8,0,2.4c-1.2,0.7-3.1,0.7-4.2,0c-1.2-0.7-1.2-1.8,0-2.4
				C101.5,37.5,103.4,37.5,104.6,38.2z"/>
			<path id="XMLID_1566_" fill="#909090" d="M115.6,31.8c1.2,0.7,1.2,1.8,0,2.4c-1.2,0.7-3.1,0.7-4.2,0c-1.2-0.7-1.2-1.8,0-2.4
				C112.6,31.2,114.5,31.2,115.6,31.8z"/>
			<path id="XMLID_1565_" fill="#909090" d="M126.7,25.4c1.2,0.7,1.2,1.8,0,2.4c-1.2,0.7-3.1,0.7-4.2,0c-1.2-0.7-1.2-1.8,0-2.4
				C123.6,24.8,125.5,24.8,126.7,25.4z"/>
		</g>
		<g id="XMLID_1638_">
			<path id="XMLID_1637_" fill="#909090" d="M82.6,203.2c1.2,0.7,1.2,1.8,0,2.4c-1.2,0.7-3.1,0.7-4.2,0c-1.2-0.7-1.2-1.8,0-2.4
				C79.5,202.5,81.4,202.5,82.6,203.2z"/>
			<path id="XMLID_1636_" fill="#909090" d="M93.6,196.8c1.2,0.7,1.2,1.8,0,2.4c-1.2,0.7-3.1,0.7-4.2,0c-1.2-0.7-1.2-1.8,0-2.4
				C90.5,196.1,92.4,196.1,93.6,196.8z"/>
			<path id="XMLID_1635_" fill="#909090" d="M71.5,196.8c1.2,0.7,1.2,1.8,0,2.4c-1.2,0.7-3.1,0.7-4.2,0c-1.2-0.7-1.2-1.8,0-2.4
				C68.5,196.1,70.4,196.1,71.5,196.8z"/>
			<path id="XMLID_1634_" fill="#909090" d="M82.6,190.4c1.2,0.7,1.2,1.8,0,2.4c-1.2,0.7-3.1,0.7-4.2,0c-1.2-0.7-1.2-1.8,0-2.4
				C79.5,189.8,81.4,189.8,82.6,190.4z"/>
			<path id="XMLID_1633_" fill="#909090" d="M93.6,184.1c1.2,0.7,1.2,1.8,0,2.4c-1.2,0.7-3.1,0.7-4.2,0c-1.2-0.7-1.2-1.8,0-2.4
				C90.6,183.4,92.4,183.4,93.6,184.1z"/>
			<path id="XMLID_1632_" fill="#909090" d="M60.5,190.4c1.2,0.7,1.2,1.8,0,2.4c-1.2,0.7-3.1,0.7-4.2,0c-1.2-0.7-1.2-1.8,0-2.4
				C57.4,189.8,59.3,189.8,60.5,190.4z"/>
			<path id="XMLID_1631_" fill="#909090" d="M71.5,184.1c1.2,0.7,1.2,1.8,0,2.4c-1.2,0.7-3.1,0.7-4.2,0c-1.2-0.7-1.2-1.8,0-2.4
				C68.5,183.4,70.4,183.4,71.5,184.1z"/>
			<path id="XMLID_1630_" fill="#909090" d="M82.6,177.7c1.2,0.7,1.2,1.8,0,2.4c-1.2,0.7-3.1,0.7-4.2,0c-1.2-0.7-1.2-1.8,0-2.4
				C79.5,177,81.4,177,82.6,177.7z"/>
			<path id="XMLID_1629_" fill="#909090" d="M93.6,171.3c1.2,0.7,1.2,1.8,0,2.4c-1.2,0.7-3.1,0.7-4.2,0c-1.2-0.7-1.2-1.8,0-2.4
				C90.6,170.6,92.4,170.6,93.6,171.3z"/>
			<path id="XMLID_1628_" fill="#909090" d="M104.6,164.9c1.2,0.7,1.2,1.8,0,2.4c-1.2,0.7-3.1,0.7-4.2,0c-1.2-0.7-1.2-1.8,0-2.4
				C101.6,164.3,103.5,164.3,104.6,164.9z"/>
			<path id="XMLID_1627_" fill="#909090" d="M71.5,171.3c1.2,0.7,1.2,1.8,0,2.4c-1.2,0.7-3.1,0.7-4.2,0c-1.2-0.7-1.2-1.8,0-2.4
				C68.5,170.6,70.4,170.6,71.5,171.3z"/>
			<path id="XMLID_1626_" fill="#909090" d="M82.6,164.9c1.2,0.7,1.2,1.8,0,2.4c-1.2,0.7-3.1,0.7-4.2,0c-1.2-0.7-1.2-1.8,0-2.4
				C79.5,164.3,81.4,164.3,82.6,164.9z"/>
			<path id="XMLID_1625_" fill="#909090" d="M93.6,158.6c1.2,0.7,1.2,1.8,0,2.4c-1.2,0.7-3.1,0.7-4.2,0c-1.2-0.7-1.2-1.8,0-2.4
				C90.6,157.9,92.4,157.9,93.6,158.6z"/>
			<path id="XMLID_1624_" fill="#909090" d="M104.6,152.2c1.2,0.7,1.2,1.8,0,2.4c-1.2,0.7-3.1,0.7-4.2,0c-1.2-0.7-1.2-1.8,0-2.4
				C101.6,151.5,103.5,151.5,104.6,152.2z"/>
			<path id="XMLID_1623_" fill="#909090" d="M71.4,158.5c1.2,0.7,1.2,1.8,0,2.4c-1.2,0.7-3.1,0.7-4.2,0c-1.2-0.7-1.2-1.8,0-2.4
				C68.4,157.8,70.3,157.8,71.4,158.5z"/>
			<path id="XMLID_1622_" fill="#909090" d="M82.5,152.1c1.2,0.7,1.2,1.8,0,2.4c-1.2,0.7-3.1,0.7-4.2,0c-1.2-0.7-1.2-1.8,0-2.4
				C79.4,151.4,81.3,151.4,82.5,152.1z"/>
			<path id="XMLID_1621_" fill="#909090" d="M93.5,145.7c1.2,0.7,1.2,1.8,0,2.4c-1.2,0.7-3.1,0.7-4.2,0c-1.2-0.7-1.2-1.8,0-2.4
				C90.5,145.1,92.3,145.1,93.5,145.7z"/>
			<path id="XMLID_1620_" fill="#909090" d="M82.5,139.4c1.2,0.7,1.2,1.8,0,2.4c-1.2,0.7-3.1,0.7-4.2,0c-1.2-0.7-1.2-1.8,0-2.4
				C79.4,138.7,81.3,138.7,82.5,139.4z"/>
		</g>
	</g>
</g>
</svg>
