<?xml version="1.0" encoding="utf-8"?>
<!-- Generator: Adobe Illustrator 24.1.2, SVG Export Plug-In . SVG Version: 6.00 Build 0)  -->
<svg version="1.1" id="Layer_1" xmlns="http://www.w3.org/2000/svg" xmlns:xlink="http://www.w3.org/1999/xlink" x="0px" y="0px"
	 viewBox="0 0 200 232" enable-background="new 0 0 200 232" xml:space="preserve">
<g id="XMLID_2120_">
	<g id="_x31_">
		<g id="XMLID_2258_">
			<polygon id="XMLID_3122_" fill="#FFFFFF" points="23,121.6 23,163.2 56.1,182.4 56.1,140.7 			"/>
			<path id="XMLID_3126_" fill="#FFFFFF" d="M56.1,140.7L23,121.6l64-37c7.8-4.5,15.1-8.5,21.8-12c-4.5,0.3-9.7,0.3-15.4,0.1
				l-25.1-1.4l3.9-21.8l75.3,4.4l29.4,17L56.1,140.7z"/>
			<path id="XMLID_2291_" fill="#E42629" d="M57,151.5l-33.2-19.1l64-37c7.8-4.5,15.1-8.5,21.8-12c-4.5,0.3-9.7,0.3-15.4,0.1
				L69.3,82l3.9-21.8l75.3,4.4l29.4,17L57,151.5z"/>
			<path id="XMLID_2742_" fill="#909090" d="M177,69l-28.6-16.5l-77.5-4.7l-4.2,22.4v2.6l26.6,1.5c3,0.1,5.8,0.1,8.6,0.1
				c-5,2.7-10.3,5.7-15.8,8.8L23,119.7l-1.6,0.9v1.9v41.7l33.2,19.1l1.6,0.9l1.6-0.9l120.9-69.8V71.8V70L177,69z M54.5,179.6
				l-29.9-17.3v-37.9l0.4,0.2l29.5,17.1V179.6z M26.6,121.8l-0.4-0.2L87.8,86c7.7-4.4,15-8.5,21.8-12l6.6-3.5l-7.5,0.4
				c-4.5,0.3-9.6,0.3-15.2,0.1l-23.2-1.3l3.3-18.6l73.5,4.3l26.7,15.4l-7.1,4.1L56.1,138.8L26.6,121.8z"/>
			<polygon id="XMLID_2590_" fill="#909090" points="86.9,72.3 66.8,70.2 66.8,96.3 101.7,77.4 107.1,73.1 			"/>
		</g>
	</g>
	<g id="XMLID_1353_">
		<path id="XMLID_1352_" fill="#909090" d="M47.3,136.6c1.2,0.7,1.2,1.8,0,2.4c-1.2,0.7-3.1,0.7-4.2,0c-1.2-0.7-1.2-1.8,0-2.4
			C44.2,135.9,46.1,135.9,47.3,136.6z"/>
		<path id="XMLID_1351_" fill="#909090" d="M58.3,130.2c1.2,0.7,1.2,1.8,0,2.4c-1.2,0.7-3.1,0.7-4.2,0c-1.2-0.7-1.2-1.8,0-2.4
			C55.2,129.6,57.1,129.6,58.3,130.2z"/>
		<path id="XMLID_1350_" fill="#909090" d="M69.3,123.9c1.2,0.7,1.2,1.8,0,2.4c-1.2,0.7-3.1,0.7-4.2,0c-1.2-0.7-1.2-1.8,0-2.4
			C66.3,123.2,68.2,123.2,69.3,123.9z"/>
		<path id="XMLID_1349_" fill="#909090" d="M80.4,117.5c1.2,0.7,1.2,1.8,0,2.4c-1.2,0.7-3.1,0.7-4.2,0c-1.2-0.7-1.2-1.8,0-2.4
			C77.3,116.8,79.2,116.8,80.4,117.5z"/>
		<path id="XMLID_1348_" fill="#909090" d="M91.4,111.1c1.2,0.7,1.2,1.8,0,2.4c-1.2,0.7-3.1,0.7-4.2,0c-1.2-0.7-1.2-1.8,0-2.4
			C88.4,110.4,90.3,110.4,91.4,111.1z"/>
		<path id="XMLID_1347_" fill="#909090" d="M102.5,104.7c1.2,0.7,1.2,1.8,0,2.4s-3.1,0.7-4.2,0c-1.2-0.7-1.2-1.8,0-2.4
			C99.4,104.1,101.3,104.1,102.5,104.7z"/>
		<path id="XMLID_1346_" fill="#909090" d="M113.5,98.4c1.2,0.7,1.2,1.8,0,2.4c-1.2,0.7-3.1,0.7-4.2,0c-1.2-0.7-1.2-1.8,0-2.4
			C110.5,97.7,112.4,97.7,113.5,98.4z"/>
		<path id="XMLID_1345_" fill="#909090" d="M124.6,92c1.2,0.7,1.2,1.8,0,2.4c-1.2,0.7-3.1,0.7-4.2,0c-1.2-0.7-1.2-1.8,0-2.4
			C121.5,91.3,123.4,91.3,124.6,92z"/>
		<path id="XMLID_1344_" fill="#909090" d="M135.6,85.6c1.2,0.7,1.2,1.8,0,2.4c-1.2,0.7-3.1,0.7-4.2,0c-1.2-0.7-1.2-1.8,0-2.4
			C132.5,84.9,134.4,84.9,135.6,85.6z"/>
		<path id="XMLID_1343_" fill="#909090" d="M146.6,79.2c1.2,0.7,1.2,1.8,0,2.4c-1.2,0.7-3.1,0.7-4.2,0c-1.2-0.7-1.2-1.8,0-2.4
			C143.6,78.6,145.5,78.6,146.6,79.2z"/>
		<path id="XMLID_1342_" fill="#909090" d="M157.7,72.9c1.2,0.7,1.2,1.8,0,2.4c-1.2,0.7-3.1,0.7-4.2,0c-1.2-0.7-1.2-1.8,0-2.4
			C154.6,72.2,156.5,72.2,157.7,72.9z"/>
		<path id="XMLID_1341_" fill="#909090" d="M36.2,130.2c1.2,0.7,1.2,1.8,0,2.4c-1.2,0.7-3.1,0.7-4.2,0c-1.2-0.7-1.2-1.8,0-2.4
			C33.2,129.6,35,129.6,36.2,130.2z"/>
		<ellipse id="XMLID_1340_" fill="#909090" cx="45.1" cy="125.1" rx="3" ry="1.7"/>
		<path id="XMLID_1339_" fill="#909090" d="M58.3,117.5c1.2,0.7,1.2,1.8,0,2.4c-1.2,0.7-3.1,0.7-4.2,0c-1.2-0.7-1.2-1.8,0-2.4
			C55.2,116.8,57.1,116.8,58.3,117.5z"/>
		<path id="XMLID_1338_" fill="#909090" d="M69.3,111.1c1.2,0.7,1.2,1.8,0,2.4c-1.2,0.7-3.1,0.7-4.2,0c-1.2-0.7-1.2-1.8,0-2.4
			C66.3,110.4,68.2,110.4,69.3,111.1z"/>
		<path id="XMLID_1337_" fill="#909090" d="M80.4,104.7c1.2,0.7,1.2,1.8,0,2.4c-1.2,0.7-3.1,0.7-4.2,0c-1.2-0.7-1.2-1.8,0-2.4
			C77.3,104.1,79.2,104.1,80.4,104.7z"/>
		<path id="XMLID_1336_" fill="#909090" d="M91.4,98.4c1.2,0.7,1.2,1.8,0,2.4c-1.2,0.7-3.1,0.7-4.2,0c-1.2-0.7-1.2-1.8,0-2.4
			C88.4,97.7,90.3,97.7,91.4,98.4z"/>
		<path id="XMLID_1335_" fill="#909090" d="M102.5,92c1.2,0.7,1.2,1.8,0,2.4c-1.2,0.7-3.1,0.7-4.2,0c-1.2-0.7-1.2-1.8,0-2.4
			C99.4,91.3,101.3,91.3,102.5,92z"/>
		<path id="XMLID_1334_" fill="#909090" d="M113.5,85.6c1.2,0.7,1.2,1.8,0,2.4c-1.2,0.7-3.1,0.7-4.2,0c-1.2-0.7-1.2-1.8,0-2.4
			C110.5,84.9,112.4,84.9,113.5,85.6z"/>
		<path id="XMLID_1333_" fill="#909090" d="M124.6,79.2c1.2,0.7,1.2,1.8,0,2.4c-1.2,0.7-3.1,0.7-4.2,0c-1.2-0.7-1.2-1.8,0-2.4
			C121.5,78.6,123.4,78.6,124.6,79.2z"/>
		<path id="XMLID_1332_" fill="#909090" d="M135.6,72.9c1.2,0.7,1.2,1.8,0,2.4c-1.2,0.7-3.1,0.7-4.2,0c-1.2-0.7-1.2-1.8,0-2.4
			C132.5,72.2,134.4,72.2,135.6,72.9z"/>
		<path id="XMLID_1331_" fill="#909090" d="M146.6,66.5c1.2,0.7,1.2,1.8,0,2.4c-1.2,0.7-3.1,0.7-4.2,0c-1.2-0.7-1.2-1.8,0-2.4
			C143.6,65.8,145.5,65.8,146.6,66.5z"/>
		<path id="XMLID_1330_" fill="#909090" d="M102.4,79.2c1.2,0.7,1.2,1.8,0,2.4c-1.2,0.7-3.1,0.7-4.2,0c-1.2-0.7-1.2-1.8,0-2.4
			C99.3,78.5,101.2,78.5,102.4,79.2z"/>
		<path id="XMLID_1329_" fill="#909090" d="M113.4,72.8c1.2,0.7,1.2,1.8,0,2.4c-1.2,0.7-3.1,0.7-4.2,0c-1.2-0.7-1.2-1.8,0-2.4
			C110.4,72.1,112.3,72.1,113.4,72.8z"/>
		<path id="XMLID_1328_" fill="#909090" d="M124.5,66.4c1.2,0.7,1.2,1.8,0,2.4c-1.2,0.7-3.1,0.7-4.2,0c-1.2-0.7-1.2-1.8,0-2.4
			C121.4,65.8,123.3,65.8,124.5,66.4z"/>
		<path id="XMLID_1327_" fill="#909090" d="M91.3,72.8c1.2,0.7,1.2,1.8,0,2.4c-1.2,0.7-3.1,0.7-4.2,0c-1.2-0.7-1.2-1.8,0-2.4
			C88.3,72.1,90.2,72.1,91.3,72.8z"/>
		<path id="XMLID_1326_" fill="#909090" d="M102.4,66.4c1.2,0.7,1.2,1.8,0,2.4c-1.2,0.7-3.1,0.7-4.2,0c-1.2-0.7-1.2-1.8,0-2.4
			C99.3,65.8,101.2,65.8,102.4,66.4z"/>
		<path id="XMLID_1325_" fill="#909090" d="M80.3,66.4c1.2,0.7,1.2,1.8,0,2.4c-1.2,0.7-3.1,0.7-4.2,0c-1.2-0.7-1.2-1.8,0-2.4
			C77.2,65.8,79.1,65.8,80.3,66.4z"/>
	</g>
</g>
</svg>
