<?xml version="1.0" encoding="utf-8"?>
<!-- Generator: Adobe Illustrator 24.1.2, SVG Export Plug-In . SVG Version: 6.00 Build 0)  -->
<svg version="1.1" id="Layer_1" xmlns="http://www.w3.org/2000/svg" xmlns:xlink="http://www.w3.org/1999/xlink" x="0px" y="0px"
	 viewBox="0 0 200 232" enable-background="new 0 0 200 232" xml:space="preserve">
<g id="XMLID_2121_">
	<g id="_x32_">
		<g id="XMLID_2259_">
			<g id="XMLID_2659_">
				<path id="XMLID_2589_" fill="#FFFFFF" d="M104.8,82.4l2.6,14.1l12.3,42.6l20.2-11c4.4-2.2,7.8-4,9.9-5.4c4.7-3,8.6-6.3,11.4-9.8
					c2.9-3.5,5-7.6,6.4-12.2c1.4-4.6,2.1-10,2.1-16.4c0-8.5-2-17.2-5.9-26.3c-3.9-9.1-9.4-17.5-16.5-25.3
					c-7.1-7.8-15.2-14.3-24.2-19.5c-7.2-4.2-13.7-7.1-19.5-8.7c-5.8-1.6-11.1-2.3-16-1.9c-4.9,0.4-11,2.2-18.2,5.5L28.3,31.8
					L79.8,48L104.8,82.4z"/>
				<path id="XMLID_3107_" fill="#909090" d="M117.3,142l-11.5-45L103.2,83L78.8,49.4L26.1,31L68.4,6.7c7.5-3.4,13.8-5.3,18.9-5.7
					c5.1-0.4,10.7,0.3,16.6,2c5.9,1.7,12.5,4.6,19.8,8.8c9.2,5.3,17.4,12,24.6,19.8c7.2,7.9,12.9,16.6,16.8,25.7c4,9.2,6,18.3,6,27
					c0,6.5-0.7,12.1-2.1,16.8c-1.4,4.8-3.7,9.1-6.7,12.7c-3,3.7-6.9,7.1-11.8,10.2c-2.2,1.4-5.6,3.2-10.1,5.5L117.3,142z M32.3,31.3
					l48.5,15.3l25.5,35.4l2.6,14.1l11.7,40.6l18.4-10c4.4-2.2,7.7-4,9.8-5.4c4.6-2.9,8.3-6.1,11-9.5c2.7-3.4,4.8-7.3,6.1-11.6
					c1.3-4.4,2-9.8,2-15.9c0-8.2-1.9-16.8-5.8-25.7c-3.8-8.9-9.3-17.2-16.3-24.8c-7-7.6-15-14.1-23.9-19.2c-7.1-4.1-13.5-7-19.1-8.5
					c-5.6-1.6-10.8-2.2-15.5-1.8c-4.7,0.4-10.6,2.1-17.6,5.3L32.3,31.3z"/>
			</g>
			<path id="XMLID_3102_" fill="#FFFFFF" d="M131.3,229.2L29.8,170.6v-28.7L64,121.7c9.8-6.1,16.1-10.5,19.1-13.1
				c3-2.6,5.1-5.1,6.3-7.5c1.2-2.4,1.8-5.3,1.8-8.7c0-4.2-1.2-8.2-3.5-12c-2.4-3.8-5.7-6.9-9.9-9.4c-4.4-2.5-8.8-3.7-13.3-3.3
				c-4.5,0.3-9.6,1.7-15.3,4.1l-20.8-40c7.2-3.3,13.3-5.1,18.2-5.5c4.9-0.4,10.2,0.3,16,1.9c5.8,1.6,12.3,4.5,19.5,8.7
				c9.1,5.2,17.1,11.7,24.2,19.5c7.1,7.8,12.6,16.2,16.5,25.3c3.9,9.1,5.9,17.8,5.9,26.3c0,6.3-0.7,11.8-2.1,16.4
				c-1.4,4.6-3.5,8.6-6.4,12.2c-2.9,3.5-6.7,6.8-11.4,9.8c-4.8,3-14.9,8.1-30.4,15.2v1.1l52.9,30.5V229.2z"/>
			<polygon id="XMLID_2357_" fill="#909090" points="118.6,73.3 160,50.6 169.5,73.3 169.5,92.8 164.2,108.4 151.8,121.4 
				119.6,139.2 127.4,127.1 130.1,109.5 128.8,95.2 			"/>
			<path id="XMLID_3104_" fill="#E42629" d="M110.2,67.9c0.1,0.1,0.2,0.3,0.4,0.4L150.8,44c-7-7.7-15-14.1-24-19.2
				c-7.2-4.2-13.7-7.1-19.5-8.7c-5.8-1.6-11.1-2.3-16-1.9c-4.9,0.4-11,2.2-18.2,5.5L32.3,43.3c7.2-3.3,13.3-5.1,18.2-5.5
				c4.9-0.4,10.2,0.3,16,1.9c5.8,1.6,12.3,4.5,19.5,8.7C95,53.6,103.1,60.1,110.2,67.9z"/>
			<g id="XMLID_2744_">
				<polygon id="XMLID_3110_" fill="#FFFFFF" points="78.4,161.5 119.3,139 172.2,169.6 131.3,193.2 78.4,162.6 				"/>
				<polygon id="XMLID_2682_" fill="#E42629" points="80.1,171.4 121,148.9 173.9,179.4 133,203 80.1,172.5 				"/>
			</g>
			<path id="XMLID_3115_" fill="#909090" d="M172.2,167.7l-40.9,23.6l-50.5-29.1c14.7-6.8,24.1-11.5,28.8-14.5
				c4.9-3.1,8.9-6.5,11.8-10.2c3-3.7,5.2-8,6.7-12.7c1.4-4.7,2.1-10.4,2.1-16.8c0-8.7-2-17.7-6-27c-4-9.2-9.6-17.8-16.8-25.7
				c-7.2-7.9-15.5-14.5-24.6-19.8c-7.3-4.2-14-7.2-19.8-8.8c-5.9-1.7-11.5-2.3-16.6-2c-5.1,0.4-11.4,2.3-18.7,5.6L26.1,31l22.2,42.9
				l1.4-0.6c5.5-2.3,10.4-3.6,14.7-3.9c4.1-0.3,8.3,0.8,12.4,3.1c4,2.3,7.2,5.3,9.4,8.8c2.2,3.5,3.3,7.3,3.3,11.1
				c0,3.1-0.5,5.8-1.6,8c-1.1,2.2-3.1,4.5-5.9,7c-2.9,2.5-9.3,6.9-18.9,12.9L28.2,141v30.6l101.5,58.6l1.6,0.9l1.6-0.9l40.9-23.6
				v-37.9L172.2,167.7z M129.7,226.4l-98.3-56.7v-26.9l33.4-19.7c9.9-6.3,16.2-10.6,19.3-13.2c3.1-2.7,5.4-5.4,6.7-8
				c1.3-2.6,1.9-5.8,1.9-9.4c0-4.5-1.3-8.8-3.8-12.8c-2.5-4-6-7.3-10.5-9.9c-4.7-2.7-9.5-3.9-14.3-3.6c-4.3,0.3-9.1,1.5-14.4,3.6
				L30.5,32.5c6.3-2.8,11.7-4.3,16.1-4.6c4.7-0.4,9.9,0.3,15.5,1.8c5.6,1.6,12,4.5,19.1,8.5C90,43.4,98.1,49.9,105,57.5
				c7,7.6,12.4,16,16.3,24.8c3.8,8.8,5.8,17.5,5.8,25.7c0,6.1-0.7,11.5-2,15.9c-1.3,4.4-3.3,8.3-6.1,11.6c-2.7,3.4-6.5,6.6-11,9.5
				c-4.6,2.9-14.8,8-30.2,15.1l-0.9,0.4v3.1l52.9,30.5V226.4z"/>
			<path id="XMLID_2561_" fill="#909090" d="M121.2,138.2c-0.1,0-0.3,0-0.3,0l-3.2,1.7l51.3,29.7l-37.7,21.8l-50.5-29.1l-4.1,1.4
				l53.7,31l0.8,0.5l42.5-24.5v-1.9L121.2,138.2z"/>
		</g>
	</g>
	<g id="XMLID_2086_">
		<g id="XMLID_1373_">
			<path id="XMLID_1372_" fill="#909090" d="M111,57.5c1.2,0.7,1.2,1.8,0,2.4c-1.2,0.7-3.1,0.7-4.2,0c-1.2-0.7-1.2-1.8,0-2.4
				C108,56.8,109.9,56.8,111,57.5z"/>
			<path id="XMLID_1371_" fill="#909090" d="M122.1,51.1c1.2,0.7,1.2,1.8,0,2.4c-1.2,0.7-3.1,0.7-4.2,0c-1.2-0.7-1.2-1.8,0-2.4
				C119,50.5,120.9,50.5,122.1,51.1z"/>
			<ellipse id="XMLID_1370_" fill="#909090" cx="131" cy="46" rx="3" ry="1.7"/>
			<path id="XMLID_1369_" fill="#909090" d="M144.1,38.4c1.2,0.7,1.2,1.8,0,2.4c-1.2,0.7-3.1,0.7-4.2,0c-1.2-0.7-1.2-1.8,0-2.4
				C141.1,37.7,143,37.7,144.1,38.4z"/>
			<path id="XMLID_1368_" fill="#909090" d="M100,51.1c1.2,0.7,1.2,1.8,0,2.4c-1.2,0.7-3.1,0.7-4.2,0c-1.2-0.7-1.2-1.8,0-2.4
				C96.9,50.5,98.8,50.5,100,51.1z"/>
			<path id="XMLID_1367_" fill="#909090" d="M111,44.8c1.2,0.7,1.2,1.8,0,2.4c-1.2,0.7-3.1,0.7-4.2,0c-1.2-0.7-1.2-1.8,0-2.4
				C108,44.1,109.9,44.1,111,44.8z"/>
			<path id="XMLID_1366_" fill="#909090" d="M122.1,38.4c1.2,0.7,1.2,1.8,0,2.4c-1.2,0.7-3.1,0.7-4.2,0c-1.2-0.7-1.2-1.8,0-2.4
				C119,37.7,120.9,37.7,122.1,38.4z"/>
			<path id="XMLID_1365_" fill="#909090" d="M133.1,32c1.2,0.7,1.2,1.8,0,2.4c-1.2,0.7-3.1,0.7-4.2,0c-1.2-0.7-1.2-1.8,0-2.4
				C130,31.3,131.9,31.3,133.1,32z"/>
			<path id="XMLID_1364_" fill="#909090" d="M88.9,44.8c1.2,0.7,1.2,1.8,0,2.4c-1.2,0.7-3.1,0.7-4.2,0c-1.2-0.7-1.2-1.8,0-2.4
				C85.9,44.1,87.8,44.1,88.9,44.8z"/>
			<path id="XMLID_1363_" fill="#909090" d="M100,38.4c1.2,0.7,1.2,1.8,0,2.4c-1.2,0.7-3.1,0.7-4.2,0c-1.2-0.7-1.2-1.8,0-2.4
				C96.9,37.7,98.8,37.7,100,38.4z"/>
			<path id="XMLID_1362_" fill="#909090" d="M111,32c1.2,0.7,1.2,1.8,0,2.4c-1.2,0.7-3.1,0.7-4.2,0c-1.2-0.7-1.2-1.8,0-2.4
				C108,31.3,109.9,31.3,111,32z"/>
			<path id="XMLID_1361_" fill="#909090" d="M122.1,25.6c1.2,0.7,1.2,1.8,0,2.4c-1.2,0.7-3.1,0.7-4.2,0c-1.2-0.7-1.2-1.8,0-2.4
				C119,25,120.9,25,122.1,25.6z"/>
			<path id="XMLID_1360_" fill="#909090" d="M77.9,38.4c1.2,0.7,1.2,1.8,0,2.4c-1.2,0.7-3.1,0.7-4.2,0c-1.2-0.7-1.2-1.8,0-2.4
				C74.8,37.7,76.7,37.7,77.9,38.4z"/>
			<path id="XMLID_1359_" fill="#909090" d="M88.9,32c1.2,0.7,1.2,1.8,0,2.4c-1.2,0.7-3.1,0.7-4.2,0c-1.2-0.7-1.2-1.8,0-2.4
				C85.9,31.3,87.8,31.3,88.9,32z"/>
			<path id="XMLID_1358_" fill="#909090" d="M100,25.6c1.2,0.7,1.2,1.8,0,2.4c-1.2,0.7-3.1,0.7-4.2,0c-1.2-0.7-1.2-1.8,0-2.4
				C96.9,25,98.8,25,100,25.6z"/>
			<path id="XMLID_1357_" fill="#909090" d="M111,19.3c1.2,0.7,1.2,1.8,0,2.4c-1.2,0.7-3.1,0.7-4.2,0c-1.2-0.7-1.2-1.8,0-2.4
				C108,18.6,109.9,18.6,111,19.3z"/>
			<path id="XMLID_1356_" fill="#909090" d="M66.7,31.9c1.2,0.7,1.2,1.8,0,2.4c-1.2,0.7-3.1,0.7-4.2,0c-1.2-0.7-1.2-1.8,0-2.4
				C63.7,31.3,65.6,31.3,66.7,31.9z"/>
			<path id="XMLID_1355_" fill="#909090" d="M77.8,25.6c1.2,0.7,1.2,1.8,0,2.4c-1.2,0.7-3.1,0.7-4.2,0c-1.2-0.7-1.2-1.8,0-2.4
				C74.7,24.9,76.6,24.9,77.8,25.6z"/>
			<path id="XMLID_1354_" fill="#909090" d="M88.8,19.2c1.2,0.7,1.2,1.8,0,2.4c-1.2,0.7-3.1,0.7-4.2,0c-1.2-0.7-1.2-1.8,0-2.4
				C85.8,18.5,87.7,18.5,88.8,19.2z"/>
		</g>
		<g id="XMLID_1390_">
			<path id="XMLID_1389_" fill="#909090" d="M125.2,191.2c1.2,0.7,1.2,1.8,0,2.4c-1.2,0.7-3.1,0.7-4.2,0c-1.2-0.7-1.2-1.8,0-2.4
				C122.2,190.5,124,190.5,125.2,191.2z"/>
			<path id="XMLID_1388_" fill="#909090" d="M136.3,184.8c1.2,0.7,1.2,1.8,0,2.4c-1.2,0.7-3.1,0.7-4.2,0c-1.2-0.7-1.2-1.8,0-2.4
				C133.2,184.1,135.1,184.1,136.3,184.8z"/>
			<path id="XMLID_1387_" fill="#909090" d="M147.3,178.4c1.2,0.7,1.2,1.8,0,2.4c-1.2,0.7-3.1,0.7-4.2,0c-1.2-0.7-1.2-1.8,0-2.4
				C144.2,177.7,146.1,177.7,147.3,178.4z"/>
			<path id="XMLID_1386_" fill="#909090" d="M158.3,172c1.2,0.7,1.2,1.8,0,2.4c-1.2,0.7-3.1,0.7-4.2,0c-1.2-0.7-1.2-1.8,0-2.4
				C155.3,171.4,157.2,171.4,158.3,172z"/>
			<path id="XMLID_1385_" fill="#909090" d="M114.2,184.8c1.2,0.7,1.2,1.8,0,2.4c-1.2,0.7-3.1,0.7-4.2,0c-1.2-0.7-1.2-1.8,0-2.4
				C111.1,184.1,113,184.1,114.2,184.8z"/>
			<path id="XMLID_1384_" fill="#909090" d="M125.2,178.4c1.2,0.7,1.2,1.8,0,2.4c-1.2,0.7-3.1,0.7-4.2,0c-1.2-0.7-1.2-1.8,0-2.4
				C122.2,177.7,124,177.7,125.2,178.4z"/>
			<path id="XMLID_1383_" fill="#909090" d="M136.3,172c1.2,0.7,1.2,1.8,0,2.4c-1.2,0.7-3.1,0.7-4.2,0c-1.2-0.7-1.2-1.8,0-2.4
				C133.2,171.4,135.1,171.4,136.3,172z"/>
			<path id="XMLID_1382_" fill="#909090" d="M147.3,165.7c1.2,0.7,1.2,1.8,0,2.4c-1.2,0.7-3.1,0.7-4.2,0c-1.2-0.7-1.2-1.8,0-2.4
				C144.2,165,146.1,165,147.3,165.7z"/>
			<path id="XMLID_1381_" fill="#909090" d="M103.1,178.4c1.2,0.7,1.2,1.8,0,2.4c-1.2,0.7-3.1,0.7-4.2,0c-1.2-0.7-1.2-1.8,0-2.4
				C100.1,177.7,102,177.7,103.1,178.4z"/>
			<path id="XMLID_1380_" fill="#909090" d="M114.2,172c1.2,0.7,1.2,1.8,0,2.4c-1.2,0.7-3.1,0.7-4.2,0c-1.2-0.7-1.2-1.8,0-2.4
				C111.1,171.4,113,171.4,114.2,172z"/>
			<path id="XMLID_1379_" fill="#909090" d="M125.2,165.7c1.2,0.7,1.2,1.8,0,2.4c-1.2,0.7-3.1,0.7-4.2,0c-1.2-0.7-1.2-1.8,0-2.4
				C122.2,165,124,165,125.2,165.7z"/>
			<path id="XMLID_1378_" fill="#909090" d="M136.3,159.3c1.2,0.7,1.2,1.8,0,2.4c-1.2,0.7-3.1,0.7-4.2,0c-1.2-0.7-1.2-1.8,0-2.4
				C133.2,158.6,135.1,158.6,136.3,159.3z"/>
			<path id="XMLID_1377_" fill="#909090" d="M92.1,172c1.2,0.7,1.2,1.8,0,2.4c-1.2,0.7-3.1,0.7-4.2,0c-1.2-0.7-1.2-1.8,0-2.4
				C89,171.4,90.9,171.4,92.1,172z"/>
			<path id="XMLID_1376_" fill="#909090" d="M103.1,165.7c1.2,0.7,1.2,1.8,0,2.4c-1.2,0.7-3.1,0.7-4.2,0c-1.2-0.7-1.2-1.8,0-2.4
				C100.1,165,102,165,103.1,165.7z"/>
			<path id="XMLID_1375_" fill="#909090" d="M114.2,159.3c1.2,0.7,1.2,1.8,0,2.4c-1.2,0.7-3.1,0.7-4.2,0c-1.2-0.7-1.2-1.8,0-2.4
				C111.1,158.6,113,158.6,114.2,159.3z"/>
			<path id="XMLID_1374_" fill="#909090" d="M125.2,152.9c1.2,0.7,1.2,1.8,0,2.4c-1.2,0.7-3.1,0.7-4.2,0c-1.2-0.7-1.2-1.8,0-2.4
				C122.2,152.2,124,152.2,125.2,152.9z"/>
		</g>
	</g>
</g>
</svg>
