<?xml version="1.0" encoding="utf-8"?>
<!-- Generator: Adobe Illustrator 24.1.2, SVG Export Plug-In . SVG Version: 6.00 Build 0)  -->
<svg version="1.1" id="Layer_1" xmlns="http://www.w3.org/2000/svg" xmlns:xlink="http://www.w3.org/1999/xlink" x="0px" y="0px"
	 viewBox="0 0 200 232" enable-background="new 0 0 200 232" xml:space="preserve">
<g id="XMLID_2123_">
	<g id="_x34_">
		<g id="XMLID_2747_">
			<polygon id="XMLID_2630_" fill="#FFFFFF" points="70.5,182.2 123.8,61.4 83.4,38.9 30.1,159.7 			"/>
			<polygon id="XMLID_3059_" fill="#FFFFFF" points="30.1,159.7 70.5,182.2 70.5,211.5 30.1,189 			"/>
			<polygon id="XMLID_3055_" fill="#FFFFFF" points="121.6,210.7 97.8,195.8 101.9,148.2 124,103.5 			"/>
			<polygon id="XMLID_3051_" fill="#FFFFFF" points="169.9,124.3 155.8,116.1 155.8,132.4 			"/>
			<polygon id="XMLID_3047_" fill="#FFFFFF" points="83.4,38.9 123.8,61.4 155.8,43 115.4,20.5 			"/>
			<polygon id="XMLID_2613_" fill="#E42629" points="84.1,49.5 124.6,72.1 156.6,53.6 116.1,31.1 			"/>
			<polygon id="XMLID_2612_" fill="#E42629" points="110.5,145.5 117.2,149.2 106.2,155.4 			"/>
			<polygon id="XMLID_2261_" fill="#E42629" points="79.8,59.3 38,155.4 77.2,177.2 120.2,81.8 			"/>
			<path id="XMLID_3064_" fill="#909090" d="M171.6,123.4l-1.6-0.9l-12.5-7.3V43.9V42l-1.6-0.9l-40.5-22.5l-32,18.5l-1.2,0.7
				l-0.8,1.8l-52,117.8l-0.9,1.9v1.3V190l40.5,22.5l1.6,0.9l1.6-0.9l25.6-14.8l22.3,13.9l1.6,1l1.6-0.9l34.2-19.7v-28.6l14.1-8.2
				v-29.9V123.4z M166.7,124.3l-9.3,5.4v-10.8L166.7,124.3z M120,135v16.3l-16.1,9.3l12.3-28.1c1.5-3.5,2.8-7,4.1-10.6
				C120.1,127.3,120,131.7,120,135z M115.4,22.3L152.6,43L139,50.8l-15.2,8.7L86.6,38.9L115.4,22.3z M84.1,41.2l37.6,20.9l-5.6,12.7
				L69.8,179.9L32.1,159L84.1,41.2z M68.9,208.8l-37.2-20.7v-25.7l37.2,20.7V208.8z M100.9,195.9l19.1-11v22.9L100.9,195.9z"/>
		</g>
	</g>
	<g id="XMLID_1485_">
		<g id="XMLID_1456_">
			<path id="XMLID_1455_" fill="#909090" d="M118,61.9c1.2,0.7,1.2,1.8,0,2.4c-1.2,0.7-3.1,0.7-4.2,0c-1.2-0.7-1.2-1.8,0-2.4
				C115,61.2,116.8,61.2,118,61.9z"/>
			<path id="XMLID_1454_" fill="#909090" d="M129,55.5c1.2,0.7,1.2,1.8,0,2.4c-1.2,0.7-3.1,0.7-4.2,0c-1.2-0.7-1.2-1.8,0-2.4
				C126,54.9,127.9,54.9,129,55.5z"/>
			<path id="XMLID_1453_" fill="#909090" d="M140.1,49.2c1.2,0.7,1.2,1.8,0,2.4c-1.2,0.7-3.1,0.7-4.2,0c-1.2-0.7-1.2-1.8,0-2.4
				C137,48.5,138.9,48.5,140.1,49.2z"/>
			<path id="XMLID_1452_" fill="#909090" d="M107,55.5c1.2,0.7,1.2,1.8,0,2.4c-1.2,0.7-3.1,0.7-4.2,0c-1.2-0.7-1.2-1.8,0-2.4
				C103.9,54.9,105.8,54.9,107,55.5z"/>
			<path id="XMLID_1451_" fill="#909090" d="M118,49.2c1.2,0.7,1.2,1.8,0,2.4c-1.2,0.7-3.1,0.7-4.2,0c-1.2-0.7-1.2-1.8,0-2.4
				C115,48.5,116.8,48.5,118,49.2z"/>
			<path id="XMLID_1450_" fill="#909090" d="M129,42.8c1.2,0.7,1.2,1.8,0,2.4c-1.2,0.7-3.1,0.7-4.2,0c-1.2-0.7-1.2-1.8,0-2.4
				C126,42.1,127.9,42.1,129,42.8z"/>
			<path id="XMLID_1449_" fill="#909090" d="M95.9,49.2c1.2,0.7,1.2,1.8,0,2.4c-1.2,0.7-3.1,0.7-4.2,0c-1.2-0.7-1.2-1.8,0-2.4
				C92.9,48.5,94.8,48.5,95.9,49.2z"/>
			<path id="XMLID_1448_" fill="#909090" d="M107,42.8c1.2,0.7,1.2,1.8,0,2.4c-1.2,0.7-3.1,0.7-4.2,0c-1.2-0.7-1.2-1.8,0-2.4
				C103.9,42.1,105.8,42.1,107,42.8z"/>
			<path id="XMLID_1447_" fill="#909090" d="M118,36.4c1.2,0.7,1.2,1.8,0,2.4c-1.2,0.7-3.1,0.7-4.2,0c-1.2-0.7-1.2-1.8,0-2.4
				C115,35.7,116.8,35.7,118,36.4z"/>
		</g>
		<g id="XMLID_1484_">
			<path id="XMLID_1483_" fill="#909090" d="M72.7,163.5c1.2,0.7,1.2,1.8,0,2.4c-1.2,0.7-3.1,0.7-4.2,0c-1.2-0.7-1.2-1.8,0-2.4
				C69.6,162.9,71.5,162.9,72.7,163.5z"/>
			<path id="XMLID_1482_" fill="#909090" d="M61.6,157.2c1.2,0.7,1.2,1.8,0,2.4c-1.2,0.7-3.1,0.7-4.2,0c-1.2-0.7-1.2-1.8,0-2.4
				C58.6,156.5,60.5,156.5,61.6,157.2z"/>
			<path id="XMLID_1481_" fill="#909090" d="M72.7,150.8c1.2,0.7,1.2,1.8,0,2.4c-1.2,0.7-3.1,0.7-4.2,0c-1.2-0.7-1.2-1.8,0-2.4
				C69.6,150.1,71.5,150.1,72.7,150.8z"/>
			<path id="XMLID_1480_" fill="#909090" d="M83.7,144.4c1.2,0.7,1.2,1.8,0,2.4c-1.2,0.7-3.1,0.7-4.2,0c-1.2-0.7-1.2-1.8,0-2.4
				C80.7,143.7,82.5,143.7,83.7,144.4z"/>
			<path id="XMLID_1479_" fill="#909090" d="M50.6,150.8c1.2,0.7,1.2,1.8,0,2.4c-1.2,0.7-3.1,0.7-4.2,0c-1.2-0.7-1.2-1.8,0-2.4
				C47.5,150.1,49.4,150.1,50.6,150.8z"/>
			<path id="XMLID_1478_" fill="#909090" d="M61.6,144.4c1.2,0.7,1.2,1.8,0,2.4c-1.2,0.7-3.1,0.7-4.2,0c-1.2-0.7-1.2-1.8,0-2.4
				C58.6,143.7,60.5,143.7,61.6,144.4z"/>
			<path id="XMLID_1477_" fill="#909090" d="M72.7,138c1.2,0.7,1.2,1.8,0,2.4c-1.2,0.7-3.1,0.7-4.2,0c-1.2-0.7-1.2-1.8,0-2.4
				C69.6,137.4,71.5,137.4,72.7,138z"/>
			<path id="XMLID_1476_" fill="#909090" d="M83.7,131.7c1.2,0.7,1.2,1.8,0,2.4c-1.2,0.7-3.1,0.7-4.2,0c-1.2-0.7-1.2-1.8,0-2.4
				C80.7,131,82.5,131,83.7,131.7z"/>
			<path id="XMLID_1475_" fill="#909090" d="M94.8,125.3c1.2,0.7,1.2,1.8,0,2.4c-1.2,0.7-3.1,0.7-4.2,0c-1.2-0.7-1.2-1.8,0-2.4
				C91.7,124.6,93.6,124.6,94.8,125.3z"/>
			<path id="XMLID_1474_" fill="#909090" d="M50.6,138c1.2,0.7,1.2,1.8,0,2.4c-1.2,0.7-3.1,0.7-4.2,0c-1.2-0.7-1.2-1.8,0-2.4
				C47.5,137.4,49.4,137.4,50.6,138z"/>
			<path id="XMLID_1473_" fill="#909090" d="M61.6,131.7c1.2,0.7,1.2,1.8,0,2.4c-1.2,0.7-3.1,0.7-4.2,0c-1.2-0.7-1.2-1.8,0-2.4
				C58.6,131,60.5,131,61.6,131.7z"/>
			<path id="XMLID_1472_" fill="#909090" d="M72.7,125.3c1.2,0.7,1.2,1.8,0,2.4c-1.2,0.7-3.1,0.7-4.2,0c-1.2-0.7-1.2-1.8,0-2.4
				C69.6,124.6,71.5,124.6,72.7,125.3z"/>
			<path id="XMLID_1471_" fill="#909090" d="M83.7,118.9c1.2,0.7,1.2,1.8,0,2.4c-1.2,0.7-3.1,0.7-4.2,0c-1.2-0.7-1.2-1.8,0-2.4
				C80.7,118.2,82.5,118.2,83.7,118.9z"/>
			<path id="XMLID_1470_" fill="#909090" d="M94.8,112.5c1.2,0.7,1.2,1.8,0,2.4c-1.2,0.7-3.1,0.7-4.2,0c-1.2-0.7-1.2-1.8,0-2.4
				C91.7,111.9,93.6,111.9,94.8,112.5z"/>
			<path id="XMLID_1469_" fill="#909090" d="M61.6,118.9c1.2,0.7,1.2,1.8,0,2.4c-1.2,0.7-3.1,0.7-4.2,0c-1.2-0.7-1.2-1.8,0-2.4
				C58.6,118.2,60.5,118.2,61.6,118.9z"/>
			<path id="XMLID_1468_" fill="#909090" d="M72.7,112.5c1.2,0.7,1.2,1.8,0,2.4c-1.2,0.7-3.1,0.7-4.2,0c-1.2-0.7-1.2-1.8,0-2.4
				C69.6,111.9,71.5,111.9,72.7,112.5z"/>
			<path id="XMLID_1467_" fill="#909090" d="M83.7,106.2c1.2,0.7,1.2,1.8,0,2.4c-1.2,0.7-3.1,0.7-4.2,0c-1.2-0.7-1.2-1.8,0-2.4
				C80.7,105.5,82.5,105.5,83.7,106.2z"/>
			<path id="XMLID_1466_" fill="#909090" d="M94.8,99.8c1.2,0.7,1.2,1.8,0,2.4c-1.2,0.7-3.1,0.7-4.2,0c-1.2-0.7-1.2-1.8,0-2.4
				C91.7,99.1,93.6,99.1,94.8,99.8z"/>
			<path id="XMLID_1465_" fill="#909090" d="M105.8,93.4c1.2,0.7,1.2,1.8,0,2.4c-1.2,0.7-3.1,0.7-4.2,0c-1.2-0.7-1.2-1.8,0-2.4
				C102.7,92.8,104.6,92.8,105.8,93.4z"/>
			<path id="XMLID_1464_" fill="#909090" d="M72.6,99.7c1.2,0.7,1.2,1.8,0,2.4c-1.2,0.7-3.1,0.7-4.2,0c-1.2-0.7-1.2-1.8,0-2.4
				C69.5,99.1,71.4,99.1,72.6,99.7z"/>
			<path id="XMLID_1463_" fill="#909090" d="M83.6,93.4c1.2,0.7,1.2,1.8,0,2.4c-1.2,0.7-3.1,0.7-4.2,0c-1.2-0.7-1.2-1.8,0-2.4
				C80.6,92.7,82.4,92.7,83.6,93.4z"/>
			<path id="XMLID_1462_" fill="#909090" d="M94.7,87c1.2,0.7,1.2,1.8,0,2.4c-1.2,0.7-3.1,0.7-4.2,0c-1.2-0.7-1.2-1.8,0-2.4
				C91.6,86.3,93.5,86.3,94.7,87z"/>
			<path id="XMLID_1461_" fill="#909090" d="M105.7,80.6c1.2,0.7,1.2,1.8,0,2.4c-1.2,0.7-3.1,0.7-4.2,0c-1.2-0.7-1.2-1.8,0-2.4
				C102.6,79.9,104.5,79.9,105.7,80.6z"/>
			<path id="XMLID_1460_" fill="#909090" d="M72.6,87c1.2,0.7,1.2,1.8,0,2.4c-1.2,0.7-3.1,0.7-4.2,0c-1.2-0.7-1.2-1.8,0-2.4
				C69.5,86.3,71.4,86.3,72.6,87z"/>
			<path id="XMLID_1459_" fill="#909090" d="M83.6,80.6c1.2,0.7,1.2,1.8,0,2.4c-1.2,0.7-3.1,0.7-4.2,0c-1.2-0.7-1.2-1.8,0-2.4
				C80.6,79.9,82.4,79.9,83.6,80.6z"/>
			<path id="XMLID_1458_" fill="#909090" d="M94.7,74.2c1.2,0.7,1.2,1.8,0,2.4c-1.2,0.7-3.1,0.7-4.2,0c-1.2-0.7-1.2-1.8,0-2.4
				C91.6,73.6,93.5,73.6,94.7,74.2z"/>
			<path id="XMLID_1457_" fill="#909090" d="M83.6,67.9c1.2,0.7,1.2,1.8,0,2.4c-1.2,0.7-3.1,0.7-4.2,0c-1.2-0.7-1.2-1.8,0-2.4
				C80.6,67.2,82.4,67.2,83.6,67.9z"/>
		</g>
	</g>
</g>
</svg>
