<?xml version="1.0" encoding="utf-8"?>
<!-- Generator: Adobe Illustrator 24.1.2, SVG Export Plug-In . SVG Version: 6.00 Build 0)  -->
<svg version="1.1" id="Layer_1" xmlns="http://www.w3.org/2000/svg" xmlns:xlink="http://www.w3.org/1999/xlink" x="0px" y="0px"
	 viewBox="0 0 200 232" enable-background="new 0 0 200 232" xml:space="preserve">
<g id="XMLID_2125_">
	<g id="_x36_">
		<g id="XMLID_2752_">
			<path id="XMLID_3704_" fill="#FFFFFF" d="M124,134.5l-42.5-9.4l-34.5-11l-30-23.6v39.9l0.1,0c0.1,4.9,1.7,9.8,4.9,14.9
				c6,9.4,17.9,19.2,35.8,29.5c17.7,10.2,35.7,15.7,54.1,16.4c18.4,0.7,35.1-3.3,50.3-12c14.3-8.2,21.3-17,21.1-26.3l0-40.5
				l-25.8,11.9L124,134.5z"/>
			<path id="XMLID_3705_" fill="#909090" d="M116,192.9c-1.4,0-2.9,0-4.3-0.1c-18.5-0.8-37-6.3-54.8-16.6
				c-18-10.4-30.3-20.5-36.4-30.1c-3.1-4.9-4.9-9.9-5.2-14.8l0,0l-0.1-0.9V87.1l32.4,25.5l34.2,10.9l42,9.3l32.9-10l27.9-12.9l0,43
				c0.2,9.9-7.1,19.2-21.9,27.7C148.7,188.8,132.9,192.9,116,192.9z M18.5,129.8l0.1,0.6c0.1,4.6,1.7,9.3,4.7,14
				c5.8,9.1,17.7,18.9,35.2,29c17.4,10,35.3,15.5,53.3,16.2c17.9,0.7,34.6-3.2,49.4-11.8c13.7-7.9,20.5-16.3,20.3-24.9l0-38
				L158,125.8L124,136.2l-42.9-9.5l-35.2-11.3L18.5,93.8V129.8z"/>
			<path id="XMLID_2513_" fill="#FFFFFF" d="M56.4,85.7C55.8,91.9,61,98.5,72,105.5l1.1-0.6c-4.7-8.8-1.2-16.5,10.4-23.3
				c3.8-2.2,7.8-4,11.8-5.4V56.3c-7,2.7-13.9,6.1-20.7,10C63.1,73.1,57,79.5,56.4,85.7z"/>
			<path id="XMLID_2528_" fill="#FFFFFF" d="M57.7,133.2c-17.9-10.3-29.8-20.2-35.8-29.5c-6-9.4-6.6-18.4-1.9-27.2
				c4.7-8.8,14.4-17.4,29-25.9c5.2-3,11.8-6.2,19.7-9.7l27.1,15.7c-7,2.7-13.9,6.1-20.7,10c-11.6,6.7-17.7,13.1-18.3,19.3
				c-0.6,6.2,4.6,12.8,15.6,19.8l1.1-0.6c-4.7-8.8-1.2-16.5,10.4-23.3c11.4-6.6,23.9-9.6,37.6-9c13.6,0.6,27,4.7,40.1,12.3
				c14.1,8.1,21.2,16.9,21.5,26.2c0.2,9.3-6.8,18.1-21.1,26.3c-15.2,8.7-31.9,12.7-50.3,12C93.4,148.8,75.4,143.4,57.7,133.2z
				 M138.6,114.6c-0.5-2.9-3.7-6.2-9.8-9.7c-10.4-6-19.7-6.7-27.7-2C97.1,105.2,139,117.5,138.6,114.6z"/>
			<path id="XMLID_2789_" fill="#E42629" d="M161.7,97.9c-13.1-7.6-26.5-11.6-40.1-12.3c-13.6-0.6-26.2,2.4-37.6,9
				c-11.6,6.7-15.1,14.5-10.4,23.3l-1.1,0.6c-11-7-16.2-13.5-15.6-19.8c0.6-6.2,6.7-12.7,18.3-19.4c6.8-4,13.7-7.3,20.7-10
				L68.7,53.7c-8,3.4-14.5,6.7-19.7,9.7c-14.6,8.4-24.3,17.1-29,25.9c-0.6,1.1-1.1,2.2-1.5,3.3v17.1c0.8,2.3,1.9,4.5,3.4,6.8
				c6,9.4,17.9,19.2,35.8,29.5c17.7,10.2,35.7,15.7,54.1,16.4c18.4,0.7,35.1-3.3,50.3-12c14.3-8.2,21.3-17,21.1-26.3
				C182.9,114.8,175.8,106.1,161.7,97.9z M133.8,135c-3.9,2.3-8.9,3-14.9,2.4c-6-0.7-11.8-2.7-17.4-5.9c-3.9-2.2-5.9-4.8-6.1-7.8
				c-0.2-3,1.7-5.6,5.7-7.9c8.1-4.7,17.3-4,27.7,2c6.1,3.5,9.4,6.7,9.8,9.7C139,130.4,137.4,132.9,133.8,135z"/>
			<g id="XMLID_2263_">
				<path id="XMLID_2606_" fill="#909090" d="M129.6,103.5c-10.9-6.3-20.8-7-29.3-2c-4.5,2.6-6.7,5.8-6.5,9.4
					c0.2,3.5,2.6,6.6,6.9,9.1c5.8,3.3,11.9,5.4,18,6.1c1.5,0.2,2.9,0.3,4.2,0.3c4.5,0,8.4-0.9,11.7-2.8c4.3-2.5,6.2-5.6,5.6-9.3
					C139.6,110.8,136.2,107.3,129.6,103.5z M133,120.8c-3.6,2.1-8.3,2.8-13.9,2.2c-5.7-0.7-11.4-2.6-16.8-5.7
					c-3.3-1.9-5.1-4.1-5.3-6.5c-0.2-2.3,1.4-4.4,4.9-6.4c3.3-1.9,6.8-2.9,10.5-2.9c4.8,0,10,1.6,15.7,4.9c7,4,8.8,6.9,9,8.5
					C137.1,115.6,137.5,118.1,133,120.8z"/>
				<path id="XMLID_2782_" fill="#909090" d="M162.5,83.7c-13.3-7.7-27-11.9-40.8-12.5c-8.6-0.4-16.9,0.7-24.7,3.1V57.8v-2.5
					l-1.4-0.8L68.8,39.1l-0.7,0.3c-8,3.5-14.7,6.7-19.9,9.8c-14.8,8.6-24.8,17.5-29.6,26.5c-5,9.3-4.3,19,2,28.9
					c6.1,9.5,18.3,19.6,36.4,30.1c17.8,10.3,36.3,15.9,54.8,16.6c1.4,0.1,2.9,0.1,4.3,0.1c17,0,32.7-4.1,46.9-12.3
					c14.8-8.5,22.1-17.9,21.9-27.7C184.5,101.4,177,92.1,162.5,83.7z M161.2,136.2c-14.8,8.5-31.4,12.6-49.4,11.8
					c-18-0.7-36-6.2-53.3-16.2c-17.6-10.2-29.4-19.9-35.2-29c-5.7-8.9-6.3-17.3-1.8-25.6c4.5-8.5,14.1-17,28.4-25.2
					c5-2.9,11.3-6,18.8-9.3l23.2,13.4c-6,2.5-12.1,5.5-18,8.9c-12.2,7-18.4,13.8-19,20.6c-0.7,6.9,4.7,13.9,16.4,21.3l0.8,0.5
					l0.1-0.1l0.4,0.2l3.2-1.9l-0.7-1.4c-4.2-7.9-1-14.8,9.8-21.1c11.1-6.4,23.5-9.3,36.7-8.8c13.3,0.6,26.5,4.6,39.4,12
					c13.5,7.8,20.5,16.1,20.6,24.8C181.7,119.9,174.9,128.3,161.2,136.2z"/>
			</g>
			<polygon id="XMLID_2750_" fill="#909090" points="99.7,148.4 100,190.1 130.6,190.2 150.1,184.9 169.9,174.1 182.7,159.9 
				183.1,140.9 184.3,115.5 169.9,134.4 151.9,144.3 133.8,149.7 			"/>
			<polygon id="XMLID_2514_" fill="#909090" points="86.4,144.8 86.4,187.2 66.1,180.9 66.1,137.6 			"/>
			<polygon id="XMLID_2670_" fill="#909090" points="114.8,100 114.8,123.1 100,117.7 95.4,110.8 100,103.2 			"/>
		</g>
	</g>
	<g id="XMLID_1600_">
		<path id="XMLID_1599_" fill="#909090" d="M133.6,152.4c-1.2-0.7-1.2-1.8,0-2.4c1.2-0.7,3.1-0.7,4.2,0c1.2,0.7,1.2,1.8,0,2.4
			C136.6,153.1,134.7,153.1,133.6,152.4C132.4,151.7,134.7,153.1,133.6,152.4z"/>
		<path id="XMLID_1598_" fill="#909090" d="M148.8,143.6c1.2,0.7,1.2,1.8,0,2.4c-1.2,0.7-3.1,0.7-4.2,0c-1.2-0.7-1.2-1.8,0-2.4
			C145.8,142.9,147.7,142.9,148.8,143.6z"/>
		<path id="XMLID_1597_" fill="#909090" d="M159.9,137.2c1.2,0.7,1.2,1.8,0,2.4c-1.2,0.7-3.1,0.7-4.2,0c-1.2-0.7-1.2-1.8,0-2.4
			C156.8,136.5,158.7,136.5,159.9,137.2z"/>
		<path id="XMLID_1596_" fill="#909090" d="M170.9,130.8c1.2,0.7,1.2,1.8,0,2.4c-1.2,0.7-3.1,0.7-4.2,0c-1.2-0.7-1.2-1.8,0-2.4
			C167.8,130.2,169.7,130.2,170.9,130.8z"/>
		<path id="XMLID_1595_" fill="#909090" d="M104.6,156.3c1.2,0.7,1.2,1.8,0,2.4c-1.2,0.7-3.1,0.7-4.2,0c-1.2-0.7-1.2-1.8,0-2.4
			C101.6,155.7,103.5,155.7,104.6,156.3z"/>
		<path id="XMLID_1594_" fill="#909090" d="M115.7,150c1.2,0.7,1.2,1.8,0,2.4c-1.2,0.7-3.1,0.7-4.2,0c-1.2-0.7-1.2-1.8,0-2.4
			C112.6,149.3,114.5,149.3,115.7,150z"/>
		<path id="XMLID_1593_" fill="#909090" d="M126.7,143.6c1.2,0.7,1.2,1.8,0,2.4c-1.2,0.7-3.1,0.7-4.2,0c-1.2-0.7-1.2-1.8,0-2.4
			C123.7,142.9,125.6,142.9,126.7,143.6z"/>
		<path id="XMLID_1592_" fill="#909090" d="M137.8,137.2c1.2,0.7,1.2,1.8,0,2.4c-1.2,0.7-3.1,0.7-4.2,0c-1.2-0.7-1.2-1.8,0-2.4
			C134.7,136.5,136.6,136.5,137.8,137.2z"/>
		<path id="XMLID_1591_" fill="#909090" d="M148.8,130.8c1.2,0.7,1.2,1.8,0,2.4c-1.2,0.7-3.1,0.7-4.2,0c-1.2-0.7-1.2-1.8,0-2.4
			C145.8,130.2,147.7,130.2,148.8,130.8z"/>
		<path id="XMLID_1590_" fill="#909090" d="M159.9,124.5c1.2,0.7,1.2,1.8,0,2.4c-1.2,0.7-3.1,0.7-4.2,0c-1.2-0.7-1.2-1.8,0-2.4
			C156.8,123.8,158.7,123.8,159.9,124.5z"/>
		<path id="XMLID_1589_" fill="#909090" d="M170.9,118.1c1.2,0.7,1.2,1.8,0,2.4c-1.2,0.7-3.1,0.7-4.2,0c-1.2-0.7-1.2-1.8,0-2.4
			C167.8,117.4,169.7,117.4,170.9,118.1z"/>
		<path id="XMLID_1588_" fill="#909090" d="M78.3,156.3c1.2-0.7,3.1-0.7,4.2,0c1.2,0.7,1.2,1.8,0,2.4
			C81.4,159.4,77.2,157,78.3,156.3z"/>
		<path id="XMLID_1587_" fill="#909090" d="M93.6,150c1.2,0.7,1.2,1.8,0,2.4c-1.2,0.7-3.1,0.7-4.2,0c-1.2-0.7-1.2-1.8,0-2.4
			C90.5,149.3,92.4,149.3,93.6,150z"/>
		<path id="XMLID_1586_" fill="#909090" d="M104.6,143.6c1.2,0.7,1.2,1.8,0,2.4c-1.2,0.7-3.1,0.7-4.2,0c-1.2-0.7-1.2-1.8,0-2.4
			C101.6,142.9,103.5,142.9,104.6,143.6z"/>
		<path id="XMLID_1585_" fill="#909090" d="M115.7,137.2c1.2,0.7,1.2,1.8,0,2.4c-1.2,0.7-3.1,0.7-4.2,0c-1.2-0.7-1.2-1.8,0-2.4
			C112.6,136.5,114.5,136.5,115.7,137.2z"/>
		<path id="XMLID_1582_" fill="#909090" d="M148.8,118.1c1.2,0.7,1.2,1.8,0,2.4c-1.2,0.7-3.1,0.7-4.2,0c-1.2-0.7-1.2-1.8,0-2.4
			C145.8,117.4,147.7,117.4,148.8,118.1z"/>
		<path id="XMLID_1581_" fill="#909090" d="M159.9,111.7c1.2,0.7,1.2,1.8,0,2.4c-1.2,0.7-3.1,0.7-4.2,0c-1.2-0.7-1.2-1.8,0-2.4
			C156.8,111,158.7,111,159.9,111.7z"/>
		<path id="XMLID_1580_" fill="#909090" d="M170.9,105.3c1.2,0.7,1.2,1.8,0,2.4c-1.2,0.7-3.1,0.7-4.2,0c-1.2-0.7-1.2-1.8,0-2.4
			C167.8,104.7,169.7,104.7,170.9,105.3z"/>
		<path id="XMLID_1579_" fill="#909090" d="M67.3,152.4c-1.2-0.7-1.2-1.8,0-2.4c1.2-0.7,3.1-0.7,4.2,0c1.2,0.7,1.2,1.8,0,2.4
			C70.4,153.1,68.5,153.1,67.3,152.4z"/>
		<path id="XMLID_1578_" fill="#909090" d="M82.6,143.6c1.2,0.7,1.2,1.8,0,2.4c-1.2,0.7-3.1,0.7-4.2,0c-1.2-0.7-1.2-1.8,0-2.4
			C79.5,142.9,81.4,142.9,82.6,143.6z"/>
		<path id="XMLID_1577_" fill="#909090" d="M93.6,137.2c1.2,0.7,1.2,1.8,0,2.4c-1.2,0.7-3.1,0.7-4.2,0c-1.2-0.7-1.2-1.8,0-2.4
			C90.5,136.5,92.4,136.5,93.6,137.2z"/>
		<path id="XMLID_1576_" fill="#909090" d="M104.6,130.8c1.2,0.7,1.2,1.8,0,2.4c-1.2,0.7-3.1,0.7-4.2,0c-1.2-0.7-1.2-1.8,0-2.4
			C101.6,130.2,103.5,130.2,104.6,130.8z"/>
		<path id="XMLID_1573_" fill="#909090" d="M137.8,111.7c1.2,0.7,1.2,1.8,0,2.4c-1.2,0.7-3.1,0.7-4.2,0c-1.2-0.7-1.2-1.8,0-2.4
			C134.7,111,136.6,111,137.8,111.7z"/>
		<path id="XMLID_1572_" fill="#909090" d="M148.8,105.3c1.2,0.7,1.2,1.8,0,2.4c-1.2,0.7-3.1,0.7-4.2,0c-1.2-0.7-1.2-1.8,0-2.4
			C145.8,104.7,147.7,104.7,148.8,105.3z"/>
		<path id="XMLID_1571_" fill="#909090" d="M159.9,99c1.2,0.7,1.2,1.8,0,2.4c-1.2,0.7-3.1,0.7-4.2,0c-1.2-0.7-1.2-1.8,0-2.4
			C156.8,98.3,158.7,98.3,159.9,99z"/>
		<path id="XMLID_1570_" fill="#909090" d="M60.5,143.6c1.2,0.7,1.2,1.8,0,2.4c-1.2,0.7-3.1,0.7-4.2,0c-1.2-0.7-1.2-1.8,0-2.4
			C57.4,142.9,59.3,142.9,60.5,143.6z"/>
		<path id="XMLID_1569_" fill="#909090" d="M71.5,137.2c1.2,0.7,1.2,1.8,0,2.4c-1.2,0.7-3.1,0.7-4.2,0c-1.2-0.7-1.2-1.8,0-2.4
			C68.5,136.5,70.4,136.5,71.5,137.2z"/>
		<path id="XMLID_1568_" fill="#909090" d="M82.6,130.8c1.2,0.7,1.2,1.8,0,2.4c-1.2,0.7-3.1,0.7-4.2,0c-1.2-0.7-1.2-1.8,0-2.4
			C79.5,130.2,81.4,130.2,82.6,130.8z"/>
		<path id="XMLID_1567_" fill="#909090" d="M93.6,124.5c1.2,0.7,1.2,1.8,0,2.4c-1.2,0.7-3.1,0.7-4.2,0c-1.2-0.7-1.2-1.8,0-2.4
			C90.5,123.8,92.4,123.8,93.6,124.5z"/>
		<path id="XMLID_1564_" fill="#909090" d="M126.7,105.3c1.2,0.7,1.2,1.8,0,2.4c-1.2,0.7-3.1,0.7-4.2,0c-1.2-0.7-1.2-1.8,0-2.4
			C123.7,104.7,125.6,104.7,126.7,105.3z"/>
		<path id="XMLID_1563_" fill="#909090" d="M137.8,99c1.2,0.7,1.2,1.8,0,2.4c-1.2,0.7-3.1,0.7-4.2,0c-1.2-0.7-1.2-1.8,0-2.4
			C134.7,98.3,136.6,98.3,137.8,99z"/>
		<path id="XMLID_1562_" fill="#909090" d="M148.8,92.6c1.2,0.7,1.2,1.8,0,2.4c-1.2,0.7-3.1,0.7-4.2,0c-1.2-0.7-1.2-1.8,0-2.4
			C145.8,91.9,147.7,91.9,148.8,92.6z"/>
		<path id="XMLID_1561_" fill="#909090" d="M49.4,137.2c1.2,0.7,1.2,1.8,0,2.4c-1.2,0.7-3.1,0.7-4.2,0c-1.2-0.7-1.2-1.8,0-2.4
			C46.4,136.5,48.3,136.5,49.4,137.2z"/>
		<path id="XMLID_1560_" fill="#909090" d="M60.5,130.8c1.2,0.7,1.2,1.8,0,2.4c-1.2,0.7-3.1,0.7-4.2,0c-1.2-0.7-1.2-1.8,0-2.4
			C57.4,130.2,59.3,130.2,60.5,130.8z"/>
		<path id="XMLID_1559_" fill="#909090" d="M71.5,124.5c1.2,0.7,1.2,1.8,0,2.4c-1.2,0.7-3.1,0.7-4.2,0c-1.2-0.7-1.2-1.8,0-2.4
			C68.5,123.8,70.4,123.8,71.5,124.5z"/>
		<path id="XMLID_1558_" fill="#909090" d="M82.6,118.1c1.2,0.7,1.2,1.8,0,2.4c-1.2,0.7-3.1,0.7-4.2,0c-1.2-0.7-1.2-1.8,0-2.4
			C79.5,117.4,81.4,117.4,82.6,118.1z"/>
		<path id="XMLID_1557_" fill="#909090" d="M93.6,111.7c1.2,0.7,1.2,1.8,0,2.4c-1.2,0.7-3.1,0.7-4.2,0c-1.2-0.7-1.2-1.8,0-2.4
			C90.5,111,92.4,111,93.6,111.7z"/>
		<path id="XMLID_1556_" fill="#909090" d="M104.6,105.3c1.2,0.7,1.2,1.8,0,2.4c-1.2,0.7-3.1,0.7-4.2,0c-1.2-0.7-1.2-1.8,0-2.4
			C101.6,104.7,103.5,104.7,104.6,105.3z"/>
		<path id="XMLID_1555_" fill="#909090" d="M115.7,99c1.2,0.7,1.2,1.8,0,2.4c-1.2,0.7-3.1,0.7-4.2,0c-1.2-0.7-1.2-1.8,0-2.4
			C112.6,98.3,114.5,98.3,115.7,99z"/>
		<path id="XMLID_1554_" fill="#909090" d="M126.7,92.6c1.2,0.7,1.2,1.8,0,2.4c-1.2,0.7-3.1,0.7-4.2,0c-1.2-0.7-1.2-1.8,0-2.4
			C123.7,91.9,125.6,91.9,126.7,92.6z"/>
		<path id="XMLID_1553_" fill="#909090" d="M38.4,130.8c1.2,0.7,1.2,1.8,0,2.4c-1.2,0.7-3.1,0.7-4.2,0c-1.2-0.7-1.2-1.8,0-2.4
			C35.3,130.2,37.2,130.2,38.4,130.8z"/>
		<path id="XMLID_1552_" fill="#909090" d="M49.4,124.5c1.2,0.7,1.2,1.8,0,2.4c-1.2,0.7-3.1,0.7-4.2,0c-1.2-0.7-1.2-1.8,0-2.4
			C46.4,123.8,48.3,123.8,49.4,124.5z"/>
		<path id="XMLID_1551_" fill="#909090" d="M60.5,118.1c1.2,0.7,1.2,1.8,0,2.4c-1.2,0.7-3.1,0.7-4.2,0c-1.2-0.7-1.2-1.8,0-2.4
			C57.4,117.4,59.3,117.4,60.5,118.1z"/>
		<path id="XMLID_1550_" fill="#909090" d="M82.6,105.3c1.2,0.7,1.2,1.8,0,2.4c-1.2,0.7-3.1,0.7-4.2,0c-1.2-0.7-1.2-1.8,0-2.4
			C79.5,104.7,81.4,104.7,82.6,105.3z"/>
		<path id="XMLID_1549_" fill="#909090" d="M93.6,99c1.2,0.7,1.2,1.8,0,2.4c-1.2,0.7-3.1,0.7-4.2,0c-1.2-0.7-1.2-1.8,0-2.4
			C90.5,98.3,92.4,98.3,93.6,99z"/>
		<path id="XMLID_1548_" fill="#909090" d="M104.7,92.6c1.2,0.7,1.2,1.8,0,2.4c-1.2,0.7-3.1,0.7-4.2,0c-1.2-0.7-1.2-1.8,0-2.4
			C101.6,91.9,103.5,91.9,104.7,92.6z"/>
		<path id="XMLID_1547_" fill="#909090" d="M38.3,118c1.2,0.7,1.2,1.8,0,2.4c-1.2,0.7-3.1,0.7-4.2,0c-1.2-0.7-1.2-1.8,0-2.4
			C35.2,117.3,37.1,117.3,38.3,118z"/>
		<path id="XMLID_1546_" fill="#909090" d="M49.3,111.6c1.2,0.7,1.2,1.8,0,2.4c-1.2,0.7-3.1,0.7-4.2,0c-1.2-0.7-1.2-1.8,0-2.4
			C46.3,111,48.2,111,49.3,111.6z"/>
		<path id="XMLID_1545_" fill="#909090" d="M27.3,111.6c1.2,0.7,1.2,1.8,0,2.4c-1.2,0.7-3.1,0.7-4.2,0c-1.2-0.7-1.2-1.8,0-2.4
			C24.2,111,26.1,111,27.3,111.6z"/>
		<path id="XMLID_1544_" fill="#909090" d="M38.3,105.3c1.2,0.7,1.2,1.8,0,2.4c-1.2,0.7-3.1,0.7-4.2,0c-1.2-0.7-1.2-1.8,0-2.4
			C35.2,104.6,37.1,104.6,38.3,105.3z"/>
		<path id="XMLID_1543_" fill="#909090" d="M49.3,98.9c1.2,0.7,1.2,1.8,0,2.4c-1.2,0.7-3.1,0.7-4.2,0c-1.2-0.7-1.2-1.8,0-2.4
			C46.3,98.2,48.2,98.2,49.3,98.9z"/>
		<path id="XMLID_1542_" fill="#909090" d="M60.4,92.5c1.2,0.7,1.2,1.8,0,2.4c-1.2,0.7-3.1,0.7-4.2,0c-1.2-0.7-1.2-1.8,0-2.4
			C57.3,91.9,59.2,91.9,60.4,92.5z"/>
		<path id="XMLID_1541_" fill="#909090" d="M27.3,98.9c1.2,0.7,1.2,1.8,0,2.4c-1.2,0.7-3.1,0.7-4.2,0c-1.2-0.7-1.2-1.8,0-2.4
			C24.2,98.2,26.1,98.2,27.3,98.9z"/>
		<path id="XMLID_1540_" fill="#909090" d="M38.3,92.5c1.2,0.7,1.2,1.8,0,2.4c-1.2,0.7-3.1,0.7-4.2,0c-1.2-0.7-1.2-1.8,0-2.4
			C35.2,91.9,37.1,91.9,38.3,92.5z"/>
		<path id="XMLID_1539_" fill="#909090" d="M49.3,86.2c1.2,0.7,1.2,1.8,0,2.4c-1.2,0.7-3.1,0.7-4.2,0c-1.2-0.7-1.2-1.8,0-2.4
			C46.3,85.5,48.2,85.5,49.3,86.2z"/>
		<path id="XMLID_1538_" fill="#909090" d="M60.4,79.8c1.2,0.7,1.2,1.8,0,2.4c-1.2,0.7-3.1,0.7-4.2,0c-1.2-0.7-1.2-1.8,0-2.4
			C57.3,79.1,59.2,79.1,60.4,79.8z"/>
		<path id="XMLID_1537_" fill="#909090" d="M27.3,86.2c1.2,0.7,1.2,1.8,0,2.4c-1.2,0.7-3.1,0.7-4.2,0c-1.2-0.7-1.2-1.8,0-2.4
			C24.2,85.5,26.1,85.5,27.3,86.2z"/>
		<path id="XMLID_1536_" fill="#909090" d="M38.3,79.8c1.2,0.7,1.2,1.8,0,2.4c-1.2,0.7-3.1,0.7-4.2,0c-1.2-0.7-1.2-1.8,0-2.4
			C35.2,79.1,37.1,79.1,38.3,79.8z"/>
		<path id="XMLID_1535_" fill="#909090" d="M49.3,73.4c1.2,0.7,1.2,1.8,0,2.4c-1.2,0.7-3.1,0.7-4.2,0c-1.2-0.7-1.2-1.8,0-2.4
			C46.3,72.7,48.2,72.7,49.3,73.4z"/>
		<path id="XMLID_1534_" fill="#909090" d="M60.4,67c1.2,0.7,1.2,1.8,0,2.4c-1.2,0.7-3.1,0.7-4.2,0c-1.2-0.7-1.2-1.8,0-2.4
			C57.3,66.4,59.2,66.4,60.4,67z"/>
		<path id="XMLID_1533_" fill="#909090" d="M71.4,60.7c1.2,0.7,1.2,1.8,0,2.4c-1.2,0.7-3.1,0.7-4.2,0c-1.2-0.7-1.2-1.8,0-2.4
			C68.4,60,70.3,60,71.4,60.7z"/>
	</g>
</g>
</svg>
