<?xml version="1.0" encoding="utf-8"?>
<!-- Generator: Adobe Illustrator 24.1.2, SVG Export Plug-In . SVG Version: 6.00 Build 0)  -->
<svg version="1.1" id="Layer_1" xmlns="http://www.w3.org/2000/svg" xmlns:xlink="http://www.w3.org/1999/xlink" x="0px" y="0px"
	 viewBox="0 0 200 232" enable-background="new 0 0 200 232" xml:space="preserve">
<g id="XMLID_2124_">
	<g id="_x35_">
		<g id="XMLID_2290_">
			<polygon id="XMLID_2785_" fill="#FFFFFF" points="127.4,75.8 127.4,117.9 168.6,141.7 168.6,99.6 			"/>
			<path id="XMLID_2786_" fill="#909090" d="M168.6,143.5l-42.8-24.7V73l44.4,25.6v43.9L168.6,143.5z M129,117l38,21.9v-38.3
				l-38-21.9V117z"/>
			<polygon id="XMLID_2777_" fill="#FFFFFF" points="64.5,88.7 64.5,127.3 97.8,124.5 103.8,108 88.3,90.6 			"/>
			<path id="XMLID_2778_" fill="#909090" d="M62.9,129.1V86.9L89.1,89l16.5,18.6L99,126L62.9,129.1z M66.1,90.4v35.2l30.6-2.6
				l5.2-14.6L87.6,92.2L66.1,90.4z"/>
			<polygon id="XMLID_2773_" fill="#FFFFFF" points="58.4,78.3 58.4,121.3 64.5,127.3 64.5,88.7 			"/>
			<path id="XMLID_2774_" fill="#909090" d="M66.1,131.2l-9.3-9.2V77.3l2.2-1.1l7,12V131.2z M60.1,120.6l2.8,2.8V89.1l-2.8-4.8
				V120.6z"/>
			<path id="XMLID_2355_" fill="#FFFFFF" d="M48.8,127.1L4.2,107.2v42.1c4.6,7.7,13.9,15.6,28,23.7c16.5,9.5,32.4,14.5,47.8,15.1
				c15.4,0.5,29.8-3.1,43.3-10.9c7.7-4.5,13-9.3,15.8-14.5c1.4-2.6,2.1-5.2,2.2-7.8h0v-42.1l-77.9,16L48.8,127.1z"/>
			<path id="XMLID_2770_" fill="#909090" d="M82.8,189.8c-1,0-1.9,0-2.9-0.1c-15.6-0.5-31.9-5.7-48.5-15.3
				C17.1,166.2,7.5,158,2.8,150.1l-0.2-0.4v-43.4l1.5-0.9l45.1,20.1l14.1,1.6l79.6-16.3v44c-0.1,2.9-0.9,5.7-2.4,8.5
				c-2.9,5.5-8.4,10.5-16.4,15.1C111.2,186,97.4,189.8,82.8,189.8z M5.8,148.9c4.5,7.3,13.7,14.9,27.2,22.8
				c16.2,9.3,32,14.3,47,14.9c15,0.6,29.3-3.1,42.4-10.7c7.4-4.3,12.5-8.9,15.1-13.9c1.3-2.4,2-4.8,2.1-7.1v-40l-76.2,15.6l-0.3,0
				l-15.1-1.8L5.8,109.7V148.9z"/>
			<path id="XMLID_2559_" fill="#FFFFFF" d="M125.7,91.5c6.9,4,11.6,8.6,14,13.7c2.4,5.1,2.2,10.2-0.6,15.4c-2.8,5.2-8,10-15.8,14.5
				c-13.5,7.8-27.9,11.4-43.3,10.9c-15.4-0.5-31.3-5.5-47.8-15.1c-14.1-8.2-23.5-16.1-28-23.7L31,91.8c2.6,4,6.2,8.2,10.8,12.5
				c4.6,4.3,9.1,7.7,13.4,10.2c6.1,3.5,12,5.4,17.8,5.8c5.8,0.4,11.2-0.9,16.3-3.8c4.6-2.7,6.6-5.7,5.9-9.1
				c-0.7-3.4-4.4-7.1-11.2-10.9c-5.1-3-11.6-5.6-19.5-7.9l-6-10.4l68.4-34.2l69,39.8l-27.2,15.7l-41.2-23.8L110,84.2
				c5.1,2,8.6,3.5,10.5,4.5C122.4,89.7,124.1,90.6,125.7,91.5z"/>
			<path id="XMLID_2354_" fill="#E42629" d="M126.3,101.9c6.9,4,11.6,8.6,14,13.7c2.4,5.1,2.2,10.2-0.6,15.4
				c-2.8,5.2-8,10-15.8,14.5c-13.5,7.8-27.9,11.4-43.3,10.9c-15.4-0.5-31.3-5.5-47.8-15.1c-13.2-7.6-22.2-15-27.1-22.2
				c0,0,0.3-1.5,0-2l25.9-14.9c2.6,4,6.2,8.2,10.8,12.5c4.6,4.3,9.1,7.7,13.4,10.2c6.1,3.5,12,5.5,17.8,5.8
				c5.8,0.4,11.2-0.9,16.3-3.7c4.6-2.7,6.6-5.7,5.9-9.1c-0.7-3.4-4.4-7.1-11.2-10.9c-5.1-3-10.7-5.3-18.6-7.6v-8.9l-1.4-4.6
				l62.8-31.4l69,39.8L169.3,110l-41.2-23.8l-17.4,8.4c5.1,2,8.6,3.5,10.5,4.5C123.1,100,124.8,101,126.3,101.9z"/>
			<path id="XMLID_2754_" fill="#909090" d="M195.8,82l-68.9-39.8L56.8,77.3v1.4L63.4,90l0.6,0.2c7.7,2.3,14.2,4.9,19.2,7.8
				c7.8,4.5,10,7.9,10.4,9.9c0.2,1,0.8,4-5.1,7.4c-4.7,2.7-9.9,3.9-15.3,3.5c-5.5-0.4-11.3-2.3-17.1-5.6c-4.2-2.4-8.6-5.8-13.1-10
				c-4.5-4.2-8-8.3-10.5-12.2l-0.8-1.3L2.6,106.3v1.4l0.2,0.4c4.7,7.9,14.3,16.1,28.6,24.3c16.6,9.6,33,14.7,48.5,15.3
				c1,0,1.9,0,2.9,0c14.5,0,28.4-3.8,41.3-11.2c7.9-4.6,13.4-9.7,16.4-15.1c3-5.7,3.2-11.3,0.7-16.9c-2.5-5.4-7.4-10.2-14.6-14.4
				c-1.6-0.9-3.3-1.9-5.2-2.9c-1.5-0.8-3.9-1.9-7.3-3.2l13.4-6.4l39.6,22.9v42.1l1.6,0.9l28.8-16.6V84.8V83L195.8,82z M168.6,97.7
				L127.5,74l-21.6,10.3l3.5,1.4c5,2,8.5,3.5,10.4,4.4c1.9,1,3.6,1.9,5.1,2.8c6.6,3.8,11.1,8.2,13.3,12.9c2.2,4.6,2,9.2-0.6,14
				c-2.6,4.9-7.7,9.6-15.1,13.9c-13.2,7.6-27.4,11.2-42.4,10.7c-15-0.5-30.8-5.5-47-14.8c-12.9-7.5-21.9-14.8-26.6-21.8l24-13.9
				c2.6,3.7,6,7.6,10.2,11.6c4.7,4.4,9.3,7.9,13.7,10.5c6.2,3.6,12.5,5.6,18.5,6.1c6.1,0.4,11.9-0.9,17.2-4c5.3-3,7.5-6.7,6.6-10.8
				c-0.8-3.9-4.7-7.8-11.9-12c-5.1-2.9-11.5-5.6-19.3-7.9L60.7,79l66.1-33.1l65.8,38l-0.2,0.1L168.6,97.7z"/>
			<polygon id="XMLID_2262_" fill="#909090" points="86.4,146 86.4,188.1 114,182 130.4,171.8 141.3,159.1 142.9,116.1 134.4,129.1 
				117.4,140 			"/>
			<polygon id="XMLID_2654_" fill="#909090" points="72.7,145.4 72.7,186.6 52.4,182.5 52.4,140 			"/>
			<polygon id="XMLID_2671_" fill="#909090" points="107.2,83.7 129,93.9 129,75.2 			"/>
		</g>
	</g>
	<g id="XMLID_1532_">
		<path id="XMLID_1531_" fill="#909090" d="M85.3,149.2c1.2,0.7,1.2,1.8,0,2.4c-1.2,0.7-3.1,0.7-4.2,0c-1.2-0.7-1.2-1.8,0-2.4
			C82.2,148.6,84.1,148.6,85.3,149.2z"/>
		<path id="XMLID_1530_" fill="#909090" d="M96.3,142.9c1.2,0.7,1.2,1.8,0,2.4c-1.2,0.7-3.1,0.7-4.2,0c-1.2-0.7-1.2-1.8,0-2.4
			C93.2,142.2,95.1,142.2,96.3,142.9z"/>
		<path id="XMLID_1529_" fill="#909090" d="M107.3,136.5c1.2,0.7,1.2,1.8,0,2.4c-1.2,0.7-3.1,0.7-4.2,0c-1.2-0.7-1.2-1.8,0-2.4
			C104.3,135.8,106.2,135.8,107.3,136.5z"/>
		<path id="XMLID_1528_" fill="#909090" d="M118.4,130.1c1.2,0.7,1.2,1.8,0,2.4c-1.2,0.7-3.1,0.7-4.2,0c-1.2-0.7-1.2-1.8,0-2.4
			C115.3,129.4,117.2,129.4,118.4,130.1z"/>
		<path id="XMLID_1527_" fill="#909090" d="M129.4,123.7c1.2,0.7,1.2,1.8,0,2.4c-1.2,0.7-3.1,0.7-4.2,0c-1.2-0.7-1.2-1.8,0-2.4
			C126.4,123.1,128.3,123.1,129.4,123.7z"/>
		<path id="XMLID_1526_" fill="#909090" d="M140.5,117.4c1.2,0.7,1.2,1.8,0,2.4c-1.2,0.7-3.1,0.7-4.2,0c-1.2-0.7-1.2-1.8,0-2.4
			C137.4,116.7,139.3,116.7,140.5,117.4z"/>
		<path id="XMLID_1525_" fill="#909090" d="M58.9,151.7c-1.2-0.7-1.2-1.8,0-2.4c1.2-0.7,3.1-0.7,4.2,0c1.2,0.7,1.2,1.8,0,2.4
			C62,152.4,60.1,152.4,58.9,151.7z"/>
		<path id="XMLID_1524_" fill="#909090" d="M74.2,142.9c1.2,0.7,1.2,1.8,0,2.4c-1.2,0.7-3.1,0.7-4.2,0c-1.2-0.7-1.2-1.8,0-2.4
			C71.2,142.2,73,142.2,74.2,142.9z"/>
		<path id="XMLID_1523_" fill="#909090" d="M85.3,136.5c1.2,0.7,1.2,1.8,0,2.4c-1.2,0.7-3.1,0.7-4.2,0c-1.2-0.7-1.2-1.8,0-2.4
			C82.2,135.8,84.1,135.8,85.3,136.5z"/>
		<path id="XMLID_1522_" fill="#909090" d="M96.3,130.1c1.2,0.7,1.2,1.8,0,2.4c-1.2,0.7-3.1,0.7-4.2,0c-1.2-0.7-1.2-1.8,0-2.4
			C93.2,129.4,95.1,129.4,96.3,130.1z"/>
		<path id="XMLID_1521_" fill="#909090" d="M107.3,123.7c1.2,0.7,1.2,1.8,0,2.4c-1.2,0.7-3.1,0.7-4.2,0c-1.2-0.7-1.2-1.8,0-2.4
			C104.3,123.1,106.2,123.1,107.3,123.7z"/>
		<path id="XMLID_1520_" fill="#909090" d="M118.4,117.4c1.2,0.7,1.2,1.8,0,2.4c-1.2,0.7-3.1,0.7-4.2,0c-1.2-0.7-1.2-1.8,0-2.4
			C115.3,116.7,117.2,116.7,118.4,117.4z"/>
		<path id="XMLID_1519_" fill="#909090" d="M129.4,111c1.2,0.7,1.2,1.8,0,2.4c-1.2,0.7-3.1,0.7-4.2,0c-1.2-0.7-1.2-1.8,0-2.4
			C126.4,110.3,128.3,110.3,129.4,111z"/>
		<path id="XMLID_1518_" fill="#909090" d="M162.6,91.9c1.2,0.7,1.2,1.8,0,2.4c-1.2,0.7-3.1,0.7-4.2,0c-1.2-0.7-1.2-1.8,0-2.4
			C159.5,91.2,161.4,91.2,162.6,91.9z"/>
		<ellipse id="XMLID_1517_" fill="#909090" cx="171.5" cy="86.7" rx="3" ry="1.7"/>
		<path id="XMLID_1516_" fill="#909090" d="M52.1,142.9c1.2,0.7,1.2,1.8,0,2.4c-1.2,0.7-3.1,0.7-4.2,0c-1.2-0.7-1.2-1.8,0-2.4
			C49.1,142.2,51,142.2,52.1,142.9z"/>
		<path id="XMLID_1515_" fill="#909090" d="M63.2,136.5c1.2,0.7,1.2,1.8,0,2.4c-1.2,0.7-3.1,0.7-4.2,0c-1.2-0.7-1.2-1.8,0-2.4
			C60.1,135.8,62,135.8,63.2,136.5z"/>
		<path id="XMLID_1514_" fill="#909090" d="M74.2,130.1c1.2,0.7,1.2,1.8,0,2.4c-1.2,0.7-3.1,0.7-4.2,0c-1.2-0.7-1.2-1.8,0-2.4
			C71.2,129.4,73,129.4,74.2,130.1z"/>
		<path id="XMLID_1513_" fill="#909090" d="M107.3,111c1.2,0.7,1.2,1.8,0,2.4c-1.2,0.7-3.1,0.7-4.2,0c-1.2-0.7-1.2-1.8,0-2.4
			C104.3,110.3,106.2,110.3,107.3,111z"/>
		<path id="XMLID_1512_" fill="#909090" d="M118.4,104.6c1.2,0.7,1.2,1.8,0,2.4c-1.2,0.7-3.1,0.7-4.2,0c-1.2-0.7-1.2-1.8,0-2.4
			C115.3,104,117.2,104,118.4,104.6z"/>
		<ellipse id="XMLID_1511_" fill="#909090" cx="149.4" cy="86.7" rx="3" ry="1.7"/>
		<path id="XMLID_1510_" fill="#909090" d="M162.6,79.1c1.2,0.7,1.2,1.8,0,2.4c-1.2,0.7-3.1,0.7-4.2,0c-1.2-0.7-1.2-1.8,0-2.4
			C159.5,78.5,161.4,78.5,162.6,79.1z"/>
		<path id="XMLID_1509_" fill="#909090" d="M41.1,136.5c1.2,0.7,1.2,1.8,0,2.4c-1.2,0.7-3.1,0.7-4.2,0c-1.2-0.7-1.2-1.8,0-2.4
			C38,135.8,39.9,135.8,41.1,136.5z"/>
		<path id="XMLID_1508_" fill="#909090" d="M52.1,130.1c1.2,0.7,1.2,1.8,0,2.4c-1.2,0.7-3.1,0.7-4.2,0c-1.2-0.7-1.2-1.8,0-2.4
			C49.1,129.4,51,129.4,52.1,130.1z"/>
		<path id="XMLID_1507_" fill="#909090" d="M96.3,104.6c1.2,0.7,1.2,1.8,0,2.4c-1.2,0.7-3.1,0.7-4.2,0c-1.2-0.7-1.2-1.8,0-2.4
			C93.2,104,95.1,104,96.3,104.6z"/>
		<path id="XMLID_1506_" fill="#909090" d="M107.3,98.3c1.2,0.7,1.2,1.8,0,2.4c-1.2,0.7-3.1,0.7-4.2,0c-1.2-0.7-1.2-1.8,0-2.4
			C104.3,97.6,106.2,97.6,107.3,98.3z"/>
		<path id="XMLID_1505_" fill="#909090" d="M140.5,79.1c1.2,0.7,1.2,1.8,0,2.4c-1.2,0.7-3.1,0.7-4.2,0c-1.2-0.7-1.2-1.8,0-2.4
			C137.4,78.5,139.3,78.5,140.5,79.1z"/>
		<path id="XMLID_1504_" fill="#909090" d="M151.5,72.8c1.2,0.7,1.2,1.8,0,2.4c-1.2,0.7-3.1,0.7-4.2,0c-1.2-0.7-1.2-1.8,0-2.4
			C148.5,72.1,150.3,72.1,151.5,72.8z"/>
		<path id="XMLID_1503_" fill="#909090" d="M30,130.1c1.2,0.7,1.2,1.8,0,2.4c-1.2,0.7-3.1,0.7-4.2,0c-1.2-0.7-1.2-1.8,0-2.4
			C27,129.4,28.9,129.4,30,130.1z"/>
		<ellipse id="XMLID_1502_" fill="#909090" cx="39" cy="125" rx="3" ry="1.7"/>
		<path id="XMLID_1501_" fill="#909090" d="M85.3,98.3c1.2,0.7,1.2,1.8,0,2.4c-1.2,0.7-3.1,0.7-4.2,0c-1.2-0.7-1.2-1.8,0-2.4
			C82.2,97.6,84.1,97.6,85.3,98.3z"/>
		<path id="XMLID_1500_" fill="#909090" d="M96.3,91.9c1.2,0.7,1.2,1.8,0,2.4c-1.2,0.7-3.1,0.7-4.2,0c-1.2-0.7-1.2-1.8,0-2.4
			C93.2,91.2,95.1,91.2,96.3,91.9z"/>
		<path id="XMLID_1499_" fill="#909090" d="M107.3,85.5c1.2,0.7,1.2,1.8,0,2.4c-1.2,0.7-3.1,0.7-4.2,0c-1.2-0.7-1.2-1.8,0-2.4
			C104.3,84.8,106.2,84.8,107.3,85.5z"/>
		<path id="XMLID_1498_" fill="#909090" d="M118.4,79.1c1.2,0.7,1.2,1.8,0,2.4c-1.2,0.7-3.1,0.7-4.2,0c-1.2-0.7-1.2-1.8,0-2.4
			C115.3,78.5,117.2,78.5,118.4,79.1z"/>
		<path id="XMLID_1497_" fill="#909090" d="M129.4,72.8c1.2,0.7,1.2,1.8,0,2.4c-1.2,0.7-3.1,0.7-4.2,0c-1.2-0.7-1.2-1.8,0-2.4
			C126.4,72.1,128.3,72.1,129.4,72.8z"/>
		<path id="XMLID_1496_" fill="#909090" d="M140.5,66.4c1.2,0.7,1.2,1.8,0,2.4c-1.2,0.7-3.1,0.7-4.2,0c-1.2-0.7-1.2-1.8,0-2.4
			C137.4,65.7,139.3,65.7,140.5,66.4z"/>
		<path id="XMLID_1495_" fill="#909090" d="M18.9,123.7c1.2,0.7,1.2,1.8,0,2.4c-1.2,0.7-3.1,0.7-4.2,0c-1.2-0.7-1.2-1.8,0-2.4
			C15.8,123,17.7,123,18.9,123.7z"/>
		<path id="XMLID_1494_" fill="#909090" d="M29.9,117.3c1.2,0.7,1.2,1.8,0,2.4c-1.2,0.7-3.1,0.7-4.2,0c-1.2-0.7-1.2-1.8,0-2.4
			C26.9,116.6,28.8,116.6,29.9,117.3z"/>
		<path id="XMLID_1493_" fill="#909090" d="M74.1,91.8c1.2,0.7,1.2,1.8,0,2.4c-1.2,0.7-3.1,0.7-4.2,0c-1.2-0.7-1.2-1.8,0-2.4
			C71.1,91.1,72.9,91.1,74.1,91.8z"/>
		<path id="XMLID_1492_" fill="#909090" d="M85.2,85.4c1.2,0.7,1.2,1.8,0,2.4c-1.2,0.7-3.1,0.7-4.2,0c-1.2-0.7-1.2-1.8,0-2.4
			C82.1,84.8,84,84.8,85.2,85.4z"/>
		<path id="XMLID_1491_" fill="#909090" d="M96.2,79.1c1.2,0.7,1.2,1.8,0,2.4c-1.2,0.7-3.1,0.7-4.2,0c-1.2-0.7-1.2-1.8,0-2.4
			C93.1,78.4,95,78.4,96.2,79.1z"/>
		<path id="XMLID_1490_" fill="#909090" d="M107.2,72.7c1.2,0.7,1.2,1.8,0,2.4c-1.2,0.7-3.1,0.7-4.2,0c-1.2-0.7-1.2-1.8,0-2.4
			C104.2,72,106.1,72,107.2,72.7z"/>
		<path id="XMLID_1489_" fill="#909090" d="M118.3,66.3c1.2,0.7,1.2,1.8,0,2.4c-1.2,0.7-3.1,0.7-4.2,0c-1.2-0.7-1.2-1.8,0-2.4
			C115.2,65.6,117.1,65.6,118.3,66.3z"/>
		<path id="XMLID_1488_" fill="#909090" d="M129.3,59.9c1.2,0.7,1.2,1.8,0,2.4c-1.2,0.7-3.1,0.7-4.2,0c-1.2-0.7-1.2-1.8,0-2.4
			C126.3,59.3,128.2,59.3,129.3,59.9z"/>
		<path id="XMLID_1487_" fill="#909090" d="M18.9,110.9c1.2,0.7,1.2,1.8,0,2.4c-1.2,0.7-3.1,0.7-4.2,0c-1.2-0.7-1.2-1.8,0-2.4
			C15.8,110.3,17.7,110.3,18.9,110.9z"/>
		<path id="XMLID_1486_" fill="#909090" d="M29.9,104.6c1.2,0.7,1.2,1.8,0,2.4c-1.2,0.7-3.1,0.7-4.2,0c-1.2-0.7-1.2-1.8,0-2.4
			C26.9,103.9,28.8,103.9,29.9,104.6z"/>
	</g>
</g>
</svg>
