<?xml version="1.0" encoding="utf-8"?>
<!-- Generator: Adobe Illustrator 24.1.2, SVG Export Plug-In . SVG Version: 6.00 Build 0)  -->
<svg version="1.1" id="Layer_1" xmlns="http://www.w3.org/2000/svg" xmlns:xlink="http://www.w3.org/1999/xlink" x="0px" y="0px"
	 viewBox="0 0 200 232" enable-background="new 0 0 200 232" xml:space="preserve">
<g id="XMLID_1654_">
	<g id="_x38_">
		<g id="XMLID_2265_">
			<path id="XMLID_3023_" fill="#FFFFFF" d="M72.9,148.3l3-0.7V84.6c-0.9,0.1-1.8,0.1-2.7,0.2c-6.8,0.6-13.7,2.2-20.7,4.7l-28.7-3
				L9.3,83.5v41.9l0.1,0c0.1,5.9,4,11.1,12,15.7c6.3,3.6,13.6,6,21.9,7.2C51.7,149.6,61.6,149.6,72.9,148.3z"/>
			<path id="XMLID_3024_" fill="#909090" d="M56.6,150.9c-4.9,0-9.4-0.3-13.5-0.9c-8.5-1.2-16.1-3.7-22.5-7.4
				c-8-4.6-12.3-10-12.7-16.1l0,0l-0.1-1.1V81.6l16.3,3.2l28.2,2.9c7-2.4,14-4,20.8-4.6c0.7-0.1,1.3-0.1,2-0.1l2.5-0.1v66.1l-4.4,1
				C67.2,150.6,61.7,150.9,56.6,150.9z M11,124.5l0.1,0.9c0.1,5.3,3.8,10.1,11.2,14.3c6.1,3.5,13.2,5.9,21.4,7
				c8.2,1.2,18,1.2,29.1-0.1l1.7-0.4V86.3c-0.3,0-0.6,0-0.9,0.1c-6.6,0.6-13.4,2.2-20.3,4.6L52.7,91l-29.1-3L11,85.5V124.5z"/>
			<path id="XMLID_2506_" fill="#FFFFFF" d="M157.3,120.7c-1.4-0.2-5.3,6.6-6.8,6.5c-9.2-0.8-21.7,2-36.6,4.4l-33.2-5.8
				c0,0.1-0.1,0.2-0.1,0.2c-1,0.2-1.9,0.3-2.8,0.4l-0.6-0.3l-8.7-4.8l0,27.4v12.5c-0.1,2,0.1,3.9,0.7,5.7c1.7,5.1,6.2,9.8,13.6,14.1
				c11.5,6.6,24.3,9.4,38.4,8.3c14.1-1.1,28.7-6,43.8-14.7c14.8-8.5,23.2-17,25.2-25.4c0.3-1,0.4-2.1,0.4-3.1v0v-41.9L157.3,120.7z"
				/>
			<path id="XMLID_2507_" fill="#909090" d="M115.3,191.1c-12.1,0-23.2-2.9-33.3-8.7c-7.8-4.5-12.6-9.5-14.4-15
				c-0.6-1.9-0.9-4-0.7-6.3l0-42.6l11.2,6.2c0.5-0.1,1-0.1,1.4-0.2l0.2-0.3l1.3,0l33,5.7c3.3-0.5,6.4-1.1,9.4-1.6
				c10.5-1.8,19.7-3.4,27-2.8c0.5-0.4,1.7-1.8,2.3-2.7c1.7-2.1,2.9-3.6,4.2-3.8l35.4-17.6v44.5c0,1.2-0.2,2.3-0.5,3.5
				c-2.1,8.9-10.6,17.5-25.9,26.4c-15.2,8.8-30.2,13.8-44.5,14.9C119.3,191,117.3,191.1,115.3,191.1z M70.1,124.1l0,37.2
				c-0.1,2,0.1,3.7,0.6,5.2c1.5,4.7,5.9,9.1,12.9,13.2c11.1,6.4,23.7,9.1,37.5,8.1c13.8-1.1,28.3-6,43.2-14.5
				c14.3-8.3,22.5-16.5,24.4-24.4c0.2-0.9,0.4-1.9,0.4-2.8v-39.3l-31.5,15.6l-0.1,0c-0.5,0.4-1.6,1.7-2.2,2.5
				c-1.9,2.3-3.1,4.1-4.8,3.9c-6.9-0.6-16,0.9-26.4,2.7c-3.1,0.5-6.3,1.1-9.7,1.6l-0.3,0l-32.8-5.7l-0.3,0.1
				c-0.9,0.1-1.8,0.3-2.6,0.4l-0.5,0.1l-1.3-0.5L70.1,124.1z"/>
			<path id="XMLID_3011_" fill="#FFFFFF" d="M33.5,56.3C47,48.5,60.3,44,73.2,42.8c13-1.2,24.4,1.1,34.4,6.9
				c6.8,3.9,11,8.4,12.5,13.4c1.6,5,0.4,10.8-3.4,17.4c14.9-2.4,26.9-3.1,36.2-2.3c9.2,0.8,17,3.1,23.2,6.6
				c11.4,6.6,16.1,14.1,14.1,22.4c-2,8.4-10.4,16.8-25.2,25.4c-15.1,8.7-29.7,13.6-43.8,14.7c-14.1,1.1-26.9-1.7-38.4-8.3
				c-7.4-4.3-12-9-13.6-14.1c-1.7-5.1-0.4-11.3,3.7-18.6c-11.3,1.3-21.2,1.3-29.6,0.1c-8.4-1.2-15.7-3.6-21.9-7.2
				C11.6,93.6,7.8,87,9.9,79.4C12.1,71.8,20,64.1,33.5,56.3z M58.3,70.8c-3,1.7-4.6,3.7-5,5.8c-0.3,2.2,0.9,4.1,3.6,5.7
				c5,2.9,12.9,3.5,23.6,1.8c1.8-3.8,2.4-6.7,1.9-8.7c-0.5-2-2-3.8-4.5-5.2c-2.8-1.6-6.1-2.3-9.8-2.1C64.5,68.2,61.2,69.2,58.3,70.8
				z M113.2,119.9c3.6,2.1,7.8,3,12.6,2.8c4.8-0.2,9.4-1.6,14-4.3c10.3-5.9,11.7-11.1,4.1-15.5c-2.9-1.7-6.8-2.6-11.8-2.9
				c-5-0.3-12.2,0.2-21.4,1.6c-2.5,4.6-3.4,8.3-2.9,11.2C108.3,115.8,110.1,118.1,113.2,119.9z"/>
			<path id="XMLID_2792_" fill="#E42629" d="M176.1,96c-6.2-3.6-13.9-5.8-23.2-6.6c-9.2-0.8-21.3-0.1-36.2,2.3
				c2.5-4.3,3.9-8.3,4.1-11.9l-3.1,0.4l2.1-6.8c-1.8-4.6-5.8-8.8-12.2-12.5c-10-5.8-21.5-8.1-34.4-6.9c-13,1.2-26.2,5.7-39.7,13.5
				C21.6,74.3,14.1,81.1,11,87.9v12.9c1.9,3.5,5.3,6.7,10.4,9.7c6.3,3.6,13.6,6,21.9,7.2c8.4,1.2,18.2,1.2,29.6-0.1
				c-1.8,3.2-3.1,6.2-3.8,9h1v11.8c2.2,4.2,6.4,8.2,12.7,11.8c11.5,6.6,24.3,9.4,38.4,8.3c14.1-1.1,28.7-6,43.8-14.7
				c14.8-8.5,23.2-17,25.2-25.4C192.2,110,187.5,102.5,176.1,96z M80.6,95.2C69.9,97,62.1,96.4,57,93.5c-2.8-1.6-4-3.5-3.6-5.7
				c0.3-2.2,2-4.1,5-5.8c2.9-1.7,6.2-2.6,9.9-2.8c3.8-0.2,7,0.5,9.8,2.1c2.5,1.5,4,3.2,4.5,5.2C83,88.6,82.4,91.5,80.6,95.2z
				 M139.8,129.6c-4.6,2.6-9.2,4.1-14,4.3c-4.8,0.2-9-0.7-12.6-2.8c-3.1-1.8-4.9-4.1-5.4-7c-0.5-2.9,0.4-6.7,2.9-11.2
				c9.2-1.4,16.4-1.9,21.4-1.6c5,0.3,9,1.3,11.8,2.9C151.4,118.5,150.1,123.6,139.8,129.6z"/>
			<path id="XMLID_3015_" fill="#909090" d="M115.3,149.2c-12.1,0-23.3-2.9-33.3-8.7c-7.8-4.5-12.6-9.5-14.4-14.9
				c-1.6-4.9-0.8-10.6,2.4-17.2c-10.2,1-19.3,0.9-27-0.2c-8.5-1.2-16.1-3.8-22.5-7.4C10.1,94.6,6,87.3,8.4,78.9
				c2.3-8.1,10.3-15.9,24.3-24l0,0C46.4,47,59.9,42.4,73.1,41.2c13.3-1.2,25.1,1.2,35.4,7.1c7.1,4.1,11.6,8.9,13.3,14.3
				c1.5,4.7,0.8,10-2,15.8c13.5-2,24.7-2.6,33.4-1.8c9.4,0.9,17.5,3.2,23.8,6.8c12,6.9,17.1,15.1,14.9,24.2
				c-2.1,8.9-10.6,17.5-25.9,26.4c-15.2,8.8-30.2,13.8-44.5,14.9C119.3,149.1,117.3,149.2,115.3,149.2z M75.9,104.4l-1.6,2.8
				c-3.9,6.9-5.1,12.7-3.6,17.3c1.5,4.7,5.9,9.1,12.9,13.2c11.1,6.4,23.7,9.1,37.5,8.1c13.8-1.1,28.3-6,43.2-14.5
				c14.3-8.3,22.5-16.5,24.4-24.4c1.8-7.7-2.5-14.4-13.4-20.7c-6-3.4-13.5-5.6-22.5-6.4c-9-0.8-21.1-0.1-35.8,2.3l-3.4,0.5l1.7-2.9
				c3.6-6.2,4.7-11.6,3.3-16.1c-1.4-4.6-5.4-8.8-11.8-12.5c-9.7-5.6-20.9-7.8-33.5-6.7c-12.7,1.2-25.8,5.6-39,13.3l0,0
				c-13.1,7.5-20.7,15-22.8,22.1c-2,6.8,1.5,12.7,10.7,18c6,3.5,13.2,5.9,21.4,7c8.2,1.2,18,1.2,29.2-0.1L75.9,104.4z M124.4,124.4
				c-4.5,0-8.5-1-12.1-3.1l0,0c-3.5-2-5.6-4.8-6.2-8.1c-0.6-3.3,0.4-7.3,3.1-12.3l0.4-0.7l0.8-0.1c9.3-1.4,16.6-1.9,21.7-1.6
				c5.3,0.3,9.5,1.4,12.6,3.1c3.7,2.1,5.6,4.6,5.6,7.4c0,3.6-3.2,7.1-9.7,10.9c-4.8,2.8-9.7,4.3-14.7,4.5
				C125.4,124.4,124.9,124.4,124.4,124.4z M69.8,86.7c-5.7,0-10.2-1-13.6-3c-4.2-2.4-4.7-5.3-4.4-7.3c0.4-2.7,2.3-5,5.7-7v0
				c3.1-1.8,6.7-2.8,10.6-3c4.1-0.2,7.7,0.6,10.7,2.3c2.9,1.7,4.7,3.8,5.2,6.3c0.6,2.4-0.1,5.6-2,9.8l-0.4,0.8l-0.8,0.1
				C76.8,86.4,73.1,86.7,69.8,86.7z"/>
			<polygon id="XMLID_2296_" fill="#909090" points="32.4,103.6 32.4,146 55.3,150.9 68.5,148.7 68.6,119.5 72.9,106.4 51.7,107.3 
							"/>
			<polygon id="XMLID_2505_" fill="#909090" points="116.6,147.5 116.6,189.5 141.8,185.1 168,173.5 182.3,162.2 190.2,149.2 
				191.8,107.6 180.2,122.8 167.3,131.4 148.7,141.8 128.1,147.6 			"/>
		</g>
	</g>
	<g id="XMLID_1712_">
		<path id="XMLID_1711_" fill="#909090" d="M126.4,151.4c-1.2-0.7-1.2-1.8,0-2.4c1.2-0.7,3.1-0.7,4.2,0c1.2,0.7,1.2,1.8,0,2.4
			C129.4,152.1,127.5,152.1,126.4,151.4z"/>
		<path id="XMLID_1710_" fill="#909090" d="M141.6,142.6c1.2,0.7,1.2,1.8,0,2.4c-1.2,0.7-3.1,0.7-4.2,0c-1.2-0.7-1.2-1.8,0-2.4
			C138.6,141.9,140.5,141.9,141.6,142.6z"/>
		<path id="XMLID_1709_" fill="#909090" d="M152.7,136.2c1.2,0.7,1.2,1.8,0,2.4c-1.2,0.7-3.1,0.7-4.2,0c-1.2-0.7-1.2-1.8,0-2.4
			C149.6,135.5,151.5,135.5,152.7,136.2z"/>
		<path id="XMLID_1708_" fill="#909090" d="M163.7,129.8c1.2,0.7,1.2,1.8,0,2.4c-1.2,0.7-3.1,0.7-4.2,0c-1.2-0.7-1.2-1.8,0-2.4
			C160.6,129.2,162.5,129.2,163.7,129.8z"/>
		<path id="XMLID_1707_" fill="#909090" d="M174.7,123.5c1.2,0.7,1.2,1.8,0,2.4c-1.2,0.7-3.1,0.7-4.2,0c-1.2-0.7-1.2-1.8,0-2.4
			C171.7,122.8,173.6,122.8,174.7,123.5z"/>
		<path id="XMLID_1706_" fill="#909090" d="M108.5,149c1.2,0.7,1.2,1.8,0,2.4c-1.2,0.7-3.1,0.7-4.2,0c-1.2-0.7-1.2-1.8,0-2.4
			C105.4,148.3,107.3,148.3,108.5,149z"/>
		<path id="XMLID_1705_" fill="#909090" d="M119.5,142.6c1.2,0.7,1.2,1.8,0,2.4c-1.2,0.7-3.1,0.7-4.2,0c-1.2-0.7-1.2-1.8,0-2.4
			C116.5,141.9,118.4,141.9,119.5,142.6z"/>
		<path id="XMLID_1704_" fill="#909090" d="M130.6,136.2c1.2,0.7,1.2,1.8,0,2.4c-1.2,0.7-3.1,0.7-4.2,0c-1.2-0.7-1.2-1.8,0-2.4
			C127.5,135.5,129.4,135.5,130.6,136.2z"/>
		<path id="XMLID_1703_" fill="#909090" d="M141.6,129.8c1.2,0.7,1.2,1.8,0,2.4c-1.2,0.7-3.1,0.7-4.2,0c-1.2-0.7-1.2-1.8,0-2.4
			C138.6,129.2,140.5,129.2,141.6,129.8z"/>
		<path id="XMLID_1702_" fill="#909090" d="M152.7,123.5c1.2,0.7,1.2,1.8,0,2.4c-1.2,0.7-3.1,0.7-4.2,0c-1.2-0.7-1.2-1.8,0-2.4
			C149.6,122.8,151.5,122.8,152.7,123.5z"/>
		<path id="XMLID_1701_" fill="#909090" d="M163.7,117.1c1.2,0.7,1.2,1.8,0,2.4c-1.2,0.7-3.1,0.7-4.2,0c-1.2-0.7-1.2-1.8,0-2.4
			C160.6,116.4,162.5,116.4,163.7,117.1z"/>
		<path id="XMLID_1700_" fill="#909090" d="M174.7,110.7c1.2,0.7,1.2,1.8,0,2.4c-1.2,0.7-3.1,0.7-4.2,0c-1.2-0.7-1.2-1.8,0-2.4
			C171.7,110.1,173.6,110.1,174.7,110.7z"/>
		<path id="XMLID_1699_" fill="#909090" d="M185.8,104.4c1.2,0.7,1.2,1.8,0,2.4c-1.2,0.7-3.1,0.7-4.2,0c-1.2-0.7-1.2-1.8,0-2.4
			C182.7,103.7,184.6,103.7,185.8,104.4z"/>
		<path id="XMLID_1698_" fill="#909090" d="M97.4,142.6c1.2,0.7,1.2,1.8,0,2.4c-1.2,0.7-3.1,0.7-4.2,0c-1.2-0.7-1.2-1.8,0-2.4
			C94.4,141.9,96.3,141.9,97.4,142.6z"/>
		<path id="XMLID_1697_" fill="#909090" d="M108.5,136.2c1.2,0.7,1.2,1.8,0,2.4c-1.2,0.7-3.1,0.7-4.2,0c-1.2-0.7-1.2-1.8,0-2.4
			C105.4,135.5,107.3,135.5,108.5,136.2z"/>
		<path id="XMLID_1693_" fill="#909090" d="M152.7,110.7c1.2,0.7,1.2,1.8,0,2.4c-1.2,0.7-3.1,0.7-4.2,0c-1.2-0.7-1.2-1.8,0-2.4
			C149.6,110.1,151.5,110.1,152.7,110.7z"/>
		<path id="XMLID_1692_" fill="#909090" d="M163.7,104.4c1.2,0.7,1.2,1.8,0,2.4c-1.2,0.7-3.1,0.7-4.2,0c-1.2-0.7-1.2-1.8,0-2.4
			C160.6,103.7,162.5,103.7,163.7,104.4z"/>
		<path id="XMLID_1691_" fill="#909090" d="M174.7,98c1.2,0.7,1.2,1.8,0,2.4c-1.2,0.7-3.1,0.7-4.2,0c-1.2-0.7-1.2-1.8,0-2.4
			C171.7,97.3,173.6,97.3,174.7,98z"/>
		<path id="XMLID_1690_" fill="#909090" d="M86.4,136.2c1.2,0.7,1.2,1.8,0,2.4c-1.2,0.7-3.1,0.7-4.2,0c-1.2-0.7-1.2-1.8,0-2.4
			C83.3,135.5,85.2,135.5,86.4,136.2z"/>
		<path id="XMLID_1689_" fill="#909090" d="M97.4,129.8c1.2,0.7,1.2,1.8,0,2.4c-1.2,0.7-3.1,0.7-4.2,0c-1.2-0.7-1.2-1.8,0-2.4
			C94.4,129.2,96.3,129.2,97.4,129.8z"/>
		<path id="XMLID_1687_" fill="#909090" d="M119.5,117.1c1.2,0.7,1.2,1.8,0,2.4c-1.2,0.7-3.1,0.7-4.2,0c-1.2-0.7-1.2-1.8,0-2.4
			C116.5,116.4,118.4,116.4,119.5,117.1z"/>
		<path id="XMLID_1686_" fill="#909090" d="M130.6,110.7c1.2,0.7,1.2,1.8,0,2.4c-1.2,0.7-3.1,0.7-4.2,0c-1.2-0.7-1.2-1.8,0-2.4
			C127.5,110.1,129.4,110.1,130.6,110.7z"/>
		<path id="XMLID_1685_" fill="#909090" d="M141.6,104.4c1.2,0.7,1.2,1.8,0,2.4c-1.2,0.7-3.1,0.7-4.2,0c-1.2-0.7-1.2-1.8,0-2.4
			C138.6,103.7,140.5,103.7,141.6,104.4z"/>
		<path id="XMLID_1684_" fill="#909090" d="M152.7,98c1.2,0.7,1.2,1.8,0,2.4c-1.2,0.7-3.1,0.7-4.2,0c-1.2-0.7-1.2-1.8,0-2.4
			C149.6,97.3,151.5,97.3,152.7,98z"/>
		<path id="XMLID_1683_" fill="#909090" d="M163.7,91.6c1.2,0.7,1.2,1.8,0,2.4c-1.2,0.7-3.1,0.7-4.2,0c-1.2-0.7-1.2-1.8,0-2.4
			C160.6,90.9,162.5,90.9,163.7,91.6z"/>
		<path id="XMLID_1682_" fill="#909090" d="M75.4,129.8c1.2,0.7,1.2,1.8,0,2.4c-1.2,0.7-3.1,0.7-4.2,0c-1.2-0.7-1.2-1.8,0-2.4
			C72.3,129.2,74.2,129.2,75.4,129.8z"/>
		<path id="XMLID_1681_" fill="#909090" d="M86.4,123.5c1.2,0.7,1.2,1.8,0,2.4c-1.2,0.7-3.1,0.7-4.2,0c-1.2-0.7-1.2-1.8,0-2.4
			C83.3,122.8,85.2,122.8,86.4,123.5z"/>
		<path id="XMLID_1680_" fill="#909090" d="M97.4,117.1c1.2,0.7,1.2,1.8,0,2.4c-1.2,0.7-3.1,0.7-4.2,0c-1.2-0.7-1.2-1.8,0-2.4
			C94.4,116.4,96.3,116.4,97.4,117.1z"/>
		<path id="XMLID_1679_" fill="#909090" d="M108.5,110.7c1.2,0.7,1.2,1.8,0,2.4c-1.2,0.7-3.1,0.7-4.2,0c-1.2-0.7-1.2-1.8,0-2.4
			C105.4,110.1,107.3,110.1,108.5,110.7z"/>
		<path id="XMLID_1678_" fill="#909090" d="M119.5,104.4c1.2,0.7,1.2,1.8,0,2.4c-1.2,0.7-3.1,0.7-4.2,0c-1.2-0.7-1.2-1.8,0-2.4
			C116.5,103.7,118.4,103.7,119.5,104.4z"/>
		<path id="XMLID_1677_" fill="#909090" d="M130.6,98c1.2,0.7,1.2,1.8,0,2.4c-1.2,0.7-3.1,0.7-4.2,0c-1.2-0.7-1.2-1.8,0-2.4
			C127.5,97.3,129.4,97.3,130.6,98z"/>
		<path id="XMLID_1676_" fill="#909090" d="M141.6,91.6c1.2,0.7,1.2,1.8,0,2.4c-1.2,0.7-3.1,0.7-4.2,0c-1.2-0.7-1.2-1.8,0-2.4
			C138.6,90.9,140.5,90.9,141.6,91.6z"/>
		<path id="XMLID_1675_" fill="#909090" d="M64.3,123.5c1.2,0.7,1.2,1.8,0,2.4c-1.2,0.7-3.1,0.7-4.2,0
			C58.9,125.2,63.2,122.8,64.3,123.5z"/>
		<path id="XMLID_1674_" fill="#909090" d="M75.4,117.1c1.2,0.7,1.2,1.8,0,2.4c-1.2,0.7-3.1,0.7-4.2,0c-1.2-0.7-1.2-1.8,0-2.4
			C72.3,116.4,74.2,116.4,75.4,117.1z"/>
		<path id="XMLID_1673_" fill="#909090" d="M86.4,110.7c1.2,0.7,1.2,1.8,0,2.4c-1.2,0.7-3.1,0.7-4.2,0c-1.2-0.7-1.2-1.8,0-2.4
			C83.3,110.1,85.2,110.1,86.4,110.7z"/>
		<path id="XMLID_1672_" fill="#909090" d="M97.4,104.4c1.2,0.7,1.2,1.8,0,2.4c-1.2,0.7-3.1,0.7-4.2,0c-1.2-0.7-1.2-1.8,0-2.4
			C94.4,103.7,96.3,103.7,97.4,104.4z"/>
		<path id="XMLID_1671_" fill="#909090" d="M108.5,98c1.2,0.7,1.2,1.8,0,2.4c-1.2,0.7-3.1,0.7-4.2,0c-1.2-0.7-1.2-1.8,0-2.4
			C105.4,97.3,107.3,97.3,108.5,98z"/>
		<path id="XMLID_1670_" fill="#909090" d="M119.5,91.6c1.2,0.7,1.2,1.8,0,2.4c-1.2,0.7-3.1,0.7-4.2,0c-1.2-0.7-1.2-1.8,0-2.4
			C116.5,90.9,118.4,90.9,119.5,91.6z"/>
		<path id="XMLID_1669_" fill="#909090" d="M64.3,110.7c1.2,0.7,1.2,1.8,0,2.4c-1.2,0.7-3.1,0.7-4.2,0c-1.2-0.7-1.2-1.8,0-2.4
			C61.3,110.1,63.2,110.1,64.3,110.7z"/>
		<path id="XMLID_1668_" fill="#909090" d="M75.4,104.4c1.2,0.7,1.2,1.8,0,2.4c-1.2,0.7-3.1,0.7-4.2,0c-1.2-0.7-1.2-1.8,0-2.4
			C72.3,103.7,74.2,103.7,75.4,104.4z"/>
		<path id="XMLID_1667_" fill="#909090" d="M86.4,98c1.2,0.7,1.2,1.8,0,2.4c-1.2,0.7-3.1,0.7-4.2,0c-1.2-0.7-1.2-1.8,0-2.4
			C83.3,97.3,85.2,97.3,86.4,98z"/>
		<path id="XMLID_1666_" fill="#909090" d="M97.4,91.6c1.2,0.7,1.2,1.8,0,2.4c-1.2,0.7-3.1,0.7-4.2,0c-1.2-0.7-1.2-1.8,0-2.4
			C94.4,90.9,96.3,90.9,97.4,91.6z"/>
		<path id="XMLID_1665_" fill="#909090" d="M108.5,85.2c1.2,0.7,1.2,1.8,0,2.4c-1.2,0.7-3.1,0.7-4.2,0c-1.2-0.7-1.2-1.8,0-2.4
			C105.4,84.6,107.3,84.6,108.5,85.2z"/>
		<path id="XMLID_1664_" fill="#909090" d="M37.9,110.7c1.2-0.7,3.1-0.7,4.2,0c1.2,0.7,1.2,1.8,0,2.4
			C41,113.8,36.7,111.3,37.9,110.7z"/>
		<path id="XMLID_1663_" fill="#909090" d="M53.2,104.3c1.2,0.7,1.2,1.8,0,2.4c-1.2,0.7-3.1,0.7-4.2,0c-1.2-0.7-1.2-1.8,0-2.4
			C50.1,103.6,52,103.6,53.2,104.3z"/>
		<path id="XMLID_1662_" fill="#909090" d="M64.2,97.9c1.2,0.7,1.2,1.8,0,2.4c-1.2,0.7-3.1,0.7-4.2,0c-1.2-0.7-1.2-1.8,0-2.4
			C61.2,97.2,63.1,97.2,64.2,97.9z"/>
		<path id="XMLID_1659_" fill="#909090" d="M97.3,78.8c1.2,0.7,1.2,1.8,0,2.4c-1.2,0.7-3.1,0.7-4.2,0c-1.2-0.7-1.2-1.8,0-2.4
			C94.3,78.1,96.2,78.1,97.3,78.8z"/>
		<path id="XMLID_1658_" fill="#909090" d="M108.4,72.4c1.2,0.7,1.2,1.8,0,2.4c-1.2,0.7-3.1,0.7-4.2,0c-1.2-0.7-1.2-1.8,0-2.4
			C105.3,71.7,107.2,71.7,108.4,72.4z"/>
		<path id="XMLID_1657_" fill="#909090" d="M31.1,104.3c1.2,0.7,1.2,1.8,0,2.4c-1.2,0.7-3.1,0.7-4.2,0c-1.2-0.7-1.2-1.8,0-2.4
			C28,103.6,29.9,103.6,31.1,104.3z"/>
		<path id="XMLID_1656_" fill="#909090" d="M42.1,97.9c1.2,0.7,1.2,1.8,0,2.4c-1.2,0.7-3.1,0.7-4.2,0c-1.2-0.7-1.2-1.8,0-2.4
			C39.1,97.2,41,97.2,42.1,97.9z"/>
		<path id="XMLID_1655_" fill="#909090" d="M53.2,91.5c1.2,0.7,1.2,1.8,0,2.4c-1.2,0.7-3.1,0.7-4.2,0c-1.2-0.7-1.2-1.8,0-2.4
			C50.1,90.9,52,90.9,53.2,91.5z"/>
		<path id="XMLID_1653_" fill="#909090" d="M75.3,78.8c1.2,0.7,1.2,1.8,0,2.4c-1.2,0.7-3.1,0.7-4.2,0c-1.2-0.7-1.2-1.8,0-2.4
			C72.2,78.1,74.1,78.1,75.3,78.8z"/>
		<path id="XMLID_1652_" fill="#909090" d="M86.3,72.4c1.2,0.7,1.2,1.8,0,2.4c-1.2,0.7-3.1,0.7-4.2,0c-1.2-0.7-1.2-1.8,0-2.4
			C83.3,71.7,85.1,71.7,86.3,72.4z"/>
		<path id="XMLID_1651_" fill="#909090" d="M97.3,66c1.2,0.7,1.2,1.8,0,2.4c-1.2,0.7-3.1,0.7-4.2,0c-1.2-0.7-1.2-1.8,0-2.4
			C94.3,65.4,96.2,65.4,97.3,66z"/>
		<path id="XMLID_1650_" fill="#909090" d="M20,97.9c1.2,0.7,1.2,1.8,0,2.4c-1.2,0.7-3.1,0.7-4.2,0c-1.2-0.7-1.2-1.8,0-2.4
			C17,97.2,18.9,97.2,20,97.9z"/>
		<path id="XMLID_1649_" fill="#909090" d="M31.1,91.5c1.2,0.7,1.2,1.8,0,2.4c-1.2,0.7-3.1,0.7-4.2,0c-1.2-0.7-1.2-1.8,0-2.4
			C28,90.9,29.9,90.9,31.1,91.5z"/>
		<path id="XMLID_1648_" fill="#909090" d="M42.1,85.2c1.2,0.7,1.2,1.8,0,2.4c-1.2,0.7-3.1,0.7-4.2,0c-1.2-0.7-1.2-1.8,0-2.4
			C39.1,84.5,41,84.5,42.1,85.2z"/>
		<path id="XMLID_1647_" fill="#909090" d="M53.2,78.8c1.2,0.7,1.2,1.8,0,2.4c-1.2,0.7-3.1,0.7-4.2,0c-1.2-0.7-1.2-1.8,0-2.4
			C50.1,78.1,52,78.1,53.2,78.8z"/>
		<path id="XMLID_1646_" fill="#909090" d="M64.2,72.4c1.2,0.7,1.2,1.8,0,2.4c-1.2,0.7-3.1,0.7-4.2,0c-1.2-0.7-1.2-1.8,0-2.4
			C61.2,71.7,63.1,71.7,64.2,72.4z"/>
		<path id="XMLID_1645_" fill="#909090" d="M75.3,66c1.2,0.7,1.2,1.8,0,2.4c-1.2,0.7-3.1,0.7-4.2,0c-1.2-0.7-1.2-1.8,0-2.4
			C72.2,65.4,74.1,65.4,75.3,66z"/>
		<path id="XMLID_1644_" fill="#909090" d="M86.3,59.7c1.2,0.7,1.2,1.8,0,2.4c-1.2,0.7-3.1,0.7-4.2,0c-1.2-0.7-1.2-1.8,0-2.4
			C83.3,59,85.1,59,86.3,59.7z"/>
		<path id="XMLID_1643_" fill="#909090" d="M20,85.2c1.2,0.7,1.2,1.8,0,2.4c-1.2,0.7-3.1,0.7-4.2,0c-1.2-0.7-1.2-1.8,0-2.4
			C17,84.5,18.9,84.5,20,85.2z"/>
		<path id="XMLID_1642_" fill="#909090" d="M31.1,78.8c1.2,0.7,1.2,1.8,0,2.4c-1.2,0.7-3.1,0.7-4.2,0c-1.2-0.7-1.2-1.8,0-2.4
			C28,78.1,29.9,78.1,31.1,78.8z"/>
		<path id="XMLID_1641_" fill="#909090" d="M42.1,72.4c1.2,0.7,1.2,1.8,0,2.4c-1.2,0.7-3.1,0.7-4.2,0c-1.2-0.7-1.2-1.8,0-2.4
			C39.1,71.7,41,71.7,42.1,72.4z"/>
		<path id="XMLID_1640_" fill="#909090" d="M53.2,66c1.2,0.7,1.2,1.8,0,2.4c-1.2,0.7-3.1,0.7-4.2,0c-1.2-0.7-1.2-1.8,0-2.4
			C50.1,65.4,52,65.4,53.2,66z"/>
		<path id="XMLID_1639_" fill="#909090" d="M64.2,59.7c1.2,0.7,1.2,1.8,0,2.4c-1.2,0.7-3.1,0.7-4.2,0c-1.2-0.7-1.2-1.8,0-2.4
			C61.2,59,63.1,59,64.2,59.7z"/>
	</g>
</g>
</svg>
