<?xml version="1.0" encoding="utf-8"?>
<!-- Generator: Adobe Illustrator 24.1.2, SVG Export Plug-In . SVG Version: 6.00 Build 0)  -->
<svg version="1.1" id="Layer_1" xmlns="http://www.w3.org/2000/svg" xmlns:xlink="http://www.w3.org/1999/xlink" x="0px" y="0px"
	 viewBox="0 0 200 232" enable-background="new 0 0 200 232" xml:space="preserve">
<g id="XMLID_1660_">
	<g id="_x39_">
		<g id="XMLID_2310_">
			<path id="XMLID_3007_" fill="#FFFFFF" d="M154.4,188.9c11.8-7.3,17.7-26.8,17.7-58.4c0-24.2-4.7-45.5-14.1-64
				c-9.4-18.5-22.6-32.7-39.7-42.6C103,15,90.9,13.1,82,18.2L42.4,41.5l26.5,14.1l-8.5,68.3l62.8,36.3l-9.7,52.3L154.4,188.9z"/>
			<path id="XMLID_2758_" fill="#E42629" d="M75.3,122.4l17.3-10.5l0.8,6.9l-5.1,7c0,0-6.9,0.7-7.3,0.5
				C80.7,126.2,75.3,122.4,75.3,122.4z"/>
			<path id="XMLID_3008_" fill="#909090" d="M111.3,215.6l10.3-55.5l-5-58.6L67.9,56.9L39.1,41.6l42.1-24.8
				c9.3-5.4,22.1-3.4,37.9,5.7c17.3,10,30.9,24.5,40.3,43.3c9.4,18.7,14.2,40.4,14.2,64.7c0,32.5-6,52-18.5,59.7l0,0L111.3,215.6z
				 M45.7,41.5L70,54.4l49.7,45.6l5.2,60.3l0,0.2l-9,48.8l37.8-21.9c11.2-7,16.9-26.2,16.9-57c0-23.8-4.7-45.1-13.9-63.3
				c-9.2-18.1-22.3-32.2-39.1-41.9c-14.8-8.5-26.4-10.4-34.7-5.7L45.7,41.5z"/>
			<path id="XMLID_2584_" fill="#FFFFFF" d="M85.2,173.9c7.3-2.2,11.3-10.1,12-23.6l-1.2-0.7c-2.5,3.9-4.9,6.3-7.4,7.2
				c-2.4,1-5.4,1-8.9,0.3c-3.5-0.8-7.9-2.7-13.1-5.7c-4.1-2.4-7.9-5.1-11.3-8.2l-17.8,11c5.5,4.3,11,8.1,16.5,11.3
				C67.4,173.3,77.9,176.1,85.2,173.9z"/>
			<path id="XMLID_2997_" fill="#FFFFFF" d="M131.2,154.5c0,31.6-5.9,51-17.7,58.4c-11.8,7.3-30.7,3.5-56.6-11.5
				c-8.5-4.9-15.1-9.1-19.5-12.4v-34.6c5.5,4.3,11,8.1,16.5,11.3c13.5,7.8,23.9,10.6,31.3,8.4c7.3-2.2,11.3-10.1,12-23.6l-1.2-0.7
				c-2.5,3.9-4.9,6.3-7.4,7.2c-2.4,1-5.4,1.1-8.9,0.3c-3.5-0.8-7.9-2.7-13.1-5.7c-12.1-7-21.6-17.1-28.4-30.4
				c-6.8-13.3-10.2-28.1-10.2-44.6c0-17.9,4.4-29.4,13.2-34.4c8.8-5.1,20.9-3.2,36.3,5.7c17.1,9.9,30.3,24.1,39.7,42.6
				C126.5,109,131.2,130.4,131.2,154.5z M78.5,83.4c-4.1-2.4-7.5-2.6-10.1-0.6c-2.6,2-3.9,6.8-3.9,14.4c0,6,1.1,11.5,3.4,16.3
				c2.2,4.9,5.6,8.6,10.2,11.3c4.1,2.4,7.7,2.7,10.8,1.1c3.1-1.7,4.6-5,4.6-9.8c0-6.6-1.4-13-4.3-19.4
				C86.4,90.4,82.8,85.9,78.5,83.4z"/>
			<path id="XMLID_3000_" fill="#E42629" d="M90.1,184.1c7.3-2.2,11.3-10.1,12-23.6l-1.1-0.7c-2.5,3.9-4.9,6.3-7.4,7.2
				c-2.4,1-5.4,1.1-8.9,0.3c-3.5-0.8-7.9-2.7-13.1-5.7c-4.1-2.4-7.9-5.1-11.3-8.2l-17.8,11c5.5,4.3,11,8.1,16.5,11.3
				C72.4,183.5,82.8,186.3,90.1,184.1z"/>
			<polygon id="XMLID_2607_" fill="#909090" points="70.4,118 91.9,105.4 86.3,89.5 73.2,81.5 66.7,84 64.5,95.4 67.9,113.6 			"/>
			<path id="XMLID_2583_" fill="#E42629" d="M112.1,91.3l40.5-24.7c-8.6-12.9-19.6-23.3-32.9-31c-15.4-8.9-27.5-10.8-36.3-5.7
				L43.8,53.3l0.1,0c8.7-4.2,20.3-2.1,34.9,6.3C92.4,67.5,103.4,78.1,112.1,91.3z"/>
			<g id="XMLID_2600_">
				<path id="XMLID_2766_" fill="#909090" d="M79.3,82c-4.7-2.7-8.7-2.9-11.9-0.5c-3,2.3-4.5,7.5-4.5,15.7c0,6.2,1.2,12,3.5,17
					c2.4,5.1,6,9.2,10.9,12c2.7,1.5,5.2,2.3,7.5,2.3c1.7,0,3.3-0.4,4.9-1.3c3.6-2,5.4-5.8,5.4-11.2c0-6.8-1.5-13.5-4.4-20
					C87.8,89.4,83.9,84.7,79.3,82z M88.1,124.5c-2.5,1.4-5.6,1.1-9.2-1c-4.3-2.5-7.5-6-9.6-10.5c-2.1-4.6-3.2-9.9-3.2-15.7
					c0-8.8,1.8-12,3.2-13.2c0.9-0.7,1.9-1,3-1c1.5,0,3.3,0.6,5.3,1.8c4,2.3,7.4,6.5,10.1,12.5c2.7,6.1,4.1,12.4,4.1,18.7
					C91.9,120.3,90.7,123.1,88.1,124.5z"/>
				<path id="XMLID_3030_" fill="#909090" d="M118.6,89.8c-9.5-18.7-23-33.3-40.3-43.3c-15.8-9.1-28.6-11.1-37.9-5.7
					C31,46.2,26.3,58.2,26.3,76.6c0,16.6,3.5,31.8,10.4,45.3c4.2,8.2,9.5,15.3,15.7,21.1l-15.1,9.3l-1.6,1v1.6v34.9l0.7,0.5
					c4.5,3.3,11.1,7.5,19.7,12.5c17.8,10.3,32.2,15.4,43.5,15.4c5.7,0,10.6-1.3,14.8-3.9c12.4-7.7,18.5-27.3,18.5-59.7
					C132.8,130.2,128,108.4,118.6,89.8z M54.9,145.3c3.4,2.9,6.9,5.5,10.8,7.7c5.4,3.1,9.9,5.1,13.6,5.9c3.8,0.8,7.1,0.7,9.8-0.4
					c2.1-0.8,4.1-2.5,6.1-5c-0.4,4-1.1,7.3-2.2,10.1c-1.8,4.6-4.6,7.5-8.4,8.7c-6.9,2.1-17-0.7-30-8.2c-4.8-2.8-9.6-6-14.4-9.7
					L54.9,145.3z M112.7,211.5c-11.2,6.9-29.7,3.1-55-11.5c-8-4.6-14.3-8.6-18.7-11.8v-30.5c4.7,3.5,9.4,6.7,14,9.4
					c14,8.1,24.7,10.9,32.5,8.5c5-1.5,8.7-5.4,10.8-11.7c1.3-3.7,2.1-8.3,2.4-13.7l0-1l-3.3-1.9l-0.8,1.3c-2.3,3.6-4.5,5.8-6.6,6.6
					c-2.1,0.8-4.8,0.9-8,0.2c-3.3-0.7-7.6-2.6-12.6-5.5c-3.9-2.2-7.6-4.9-11.1-8l-0.9-0.8l-0.2,0.1c-6.2-5.8-11.5-12.7-15.7-20.9
					c-6.7-13-10.1-27.7-10.1-43.8c0-17.2,4.2-28.3,12.4-33c8.3-4.7,19.9-2.8,34.7,5.7c16.7,9.7,29.9,23.8,39.1,41.9
					c9.2,18.2,13.9,39.5,13.9,63.3C129.6,185.4,123.9,204.5,112.7,211.5z"/>
			</g>
			<polygon id="XMLID_2267_" fill="#909090" points="128.1,115.4 167.5,91.9 172.9,125.4 170.5,163.2 162.8,180.1 154.4,188.9 
				119.8,207.3 128.4,193.2 131.2,169.1 131.8,135.6 			"/>
		</g>
	</g>
	<g id="XMLID_2088_">
		<g id="XMLID_1733_">
			<path id="XMLID_1732_" fill="#909090" d="M114.8,81.4c1.2,0.7,1.2,1.8,0,2.4c-1.2,0.7-3.1,0.7-4.2,0c-1.2-0.7-1.2-1.8,0-2.4
				C111.7,80.7,113.6,80.7,114.8,81.4z"/>
			<path id="XMLID_1731_" fill="#909090" d="M125.8,75c1.2,0.7,1.2,1.8,0,2.4c-1.2,0.7-3.1,0.7-4.2,0c-1.2-0.7-1.2-1.8,0-2.4
				C122.8,74.4,124.6,74.4,125.8,75z"/>
			<path id="XMLID_1730_" fill="#909090" d="M136.9,68.7c1.2,0.7,1.2,1.8,0,2.4c-1.2,0.7-3.1,0.7-4.2,0c-1.2-0.7-1.2-1.8,0-2.4
				C133.8,68,135.7,68,136.9,68.7z"/>
			<path id="XMLID_1729_" fill="#909090" d="M147.9,62.3c1.2,0.7,1.2,1.8,0,2.4c-1.2,0.7-3.1,0.7-4.2,0c-1.2-0.7-1.2-1.8,0-2.4
				C144.8,61.6,146.7,61.6,147.9,62.3z"/>
			<path id="XMLID_1728_" fill="#909090" d="M114.8,68.7c1.2,0.7,1.2,1.8,0,2.4c-1.2,0.7-3.1,0.7-4.2,0c-1.2-0.7-1.2-1.8,0-2.4
				C111.7,68,113.6,68,114.8,68.7z"/>
			<path id="XMLID_1727_" fill="#909090" d="M125.8,62.3c1.2,0.7,1.2,1.8,0,2.4c-1.2,0.7-3.1,0.7-4.2,0c-1.2-0.7-1.2-1.8,0-2.4
				C122.8,61.6,124.6,61.6,125.8,62.3z"/>
			<path id="XMLID_1726_" fill="#909090" d="M136.9,55.9c1.2,0.7,1.2,1.8,0,2.4c-1.2,0.7-3.1,0.7-4.2,0c-1.2-0.7-1.2-1.8,0-2.4
				C133.8,55.2,135.7,55.2,136.9,55.9z"/>
			<path id="XMLID_1725_" fill="#909090" d="M103.6,62.2c1.2,0.7,1.2,1.8,0,2.4c-1.2,0.7-3.1,0.7-4.2,0c-1.2-0.7-1.2-1.8,0-2.4
				C100.6,61.6,102.5,61.6,103.6,62.2z"/>
			<path id="XMLID_1724_" fill="#909090" d="M114.7,55.9c1.2,0.7,1.2,1.8,0,2.4c-1.2,0.7-3.1,0.7-4.2,0c-1.2-0.7-1.2-1.8,0-2.4
				C111.6,55.2,113.5,55.2,114.7,55.9z"/>
			<path id="XMLID_1723_" fill="#909090" d="M125.7,49.5c1.2,0.7,1.2,1.8,0,2.4c-1.2,0.7-3.1,0.7-4.2,0c-1.2-0.7-1.2-1.8,0-2.4
				C122.7,48.8,124.6,48.8,125.7,49.5z"/>
			<path id="XMLID_1722_" fill="#909090" d="M92.6,55.9c1.2,0.7,1.2,1.8,0,2.4c-1.2,0.7-3.1,0.7-4.2,0c-1.2-0.7-1.2-1.8,0-2.4
				C89.5,55.2,91.4,55.2,92.6,55.9z"/>
			<path id="XMLID_1721_" fill="#909090" d="M103.6,49.5c1.2,0.7,1.2,1.8,0,2.4c-1.2,0.7-3.1,0.7-4.2,0c-1.2-0.7-1.2-1.8,0-2.4
				C100.6,48.8,102.5,48.8,103.6,49.5z"/>
			<path id="XMLID_1720_" fill="#909090" d="M114.7,43.1c1.2,0.7,1.2,1.8,0,2.4c-1.2,0.7-3.1,0.7-4.2,0c-1.2-0.7-1.2-1.8,0-2.4
				C111.6,42.4,113.5,42.4,114.7,43.1z"/>
			<path id="XMLID_1719_" fill="#909090" d="M81.5,49.5c1.2,0.7,1.2,1.8,0,2.4c-1.2,0.7-3.1,0.7-4.2,0c-1.2-0.7-1.2-1.8,0-2.4
				C78.5,48.8,80.4,48.8,81.5,49.5z"/>
			<path id="XMLID_1718_" fill="#909090" d="M92.6,43.1c1.2,0.7,1.2,1.8,0,2.4c-1.2,0.7-3.1,0.7-4.2,0c-1.2-0.7-1.2-1.8,0-2.4
				C89.5,42.4,91.4,42.4,92.6,43.1z"/>
			<path id="XMLID_1717_" fill="#909090" d="M103.6,36.7c1.2,0.7,1.2,1.8,0,2.4c-1.2,0.7-3.1,0.7-4.2,0c-1.2-0.7-1.2-1.8,0-2.4
				C100.6,36.1,102.5,36.1,103.6,36.7z"/>
			<ellipse id="XMLID_1716_" fill="#909090" cx="57.4" cy="50.7" rx="3" ry="1.7"/>
			<path id="XMLID_1715_" fill="#909090" d="M70.5,43.1c1.2,0.7,1.2,1.8,0,2.4c-1.2,0.7-3.1,0.7-4.2,0c-1.2-0.7-1.2-1.8,0-2.4
				C67.4,42.4,69.3,42.4,70.5,43.1z"/>
			<path id="XMLID_1714_" fill="#909090" d="M81.5,36.7c1.2,0.7,1.2,1.8,0,2.4c-1.2,0.7-3.1,0.7-4.2,0c-1.2-0.7-1.2-1.8,0-2.4
				C78.5,36.1,80.4,36.1,81.5,36.7z"/>
			<path id="XMLID_1713_" fill="#909090" d="M92.6,30.4c1.2,0.7,1.2,1.8,0,2.4c-1.2,0.7-3.1,0.7-4.2,0c-1.2-0.7-1.2-1.8,0-2.4
				C89.5,29.7,91.4,29.7,92.6,30.4z"/>
		</g>
		<g id="XMLID_1741_">
			<path id="XMLID_1740_" fill="#909090" d="M96.2,177.4c1.2,0.7,1.2,1.8,0,2.4c-1.2,0.7-3.1,0.7-4.2,0c-1.2-0.7-1.2-1.8,0-2.4
				C93.2,176.8,95.1,176.8,96.2,177.4z"/>
			<path id="XMLID_1739_" fill="#909090" d="M74.1,177.4c1.2,0.7,1.2,1.8,0,2.4c-1.2,0.7-3.1,0.7-4.2,0c-1.2-0.7-1.2-1.8,0-2.4
				C71.1,176.8,73,176.8,74.1,177.4z"/>
			<path id="XMLID_1738_" fill="#909090" d="M85.2,171.1c1.2,0.7,1.2,1.8,0,2.4c-1.2,0.7-3.1,0.7-4.2,0c-1.2-0.7-1.2-1.8,0-2.4
				C82.1,170.4,84,170.4,85.2,171.1z"/>
			<path id="XMLID_1737_" fill="#909090" d="M63.1,171.1c1.2,0.7,1.2,1.8,0,2.4c-1.2,0.7-3.1,0.7-4.2,0c-1.2-0.7-1.2-1.8,0-2.4
				C60,170.4,61.9,170.4,63.1,171.1z"/>
			<path id="XMLID_1736_" fill="#909090" d="M74.1,164.7c1.2,0.7,1.2,1.8,0,2.4c-1.2,0.7-3.1,0.7-4.2,0c-1.2-0.7-1.2-1.8,0-2.4
				C71.1,164,73,164,74.1,164.7z"/>
			<path id="XMLID_1735_" fill="#909090" d="M52.1,164.7c1.2,0.7,1.2,1.8,0,2.4c-1.2,0.7-3.1,0.7-4.2,0c-1.2-0.7-1.2-1.8,0-2.4
				C49,164,50.9,164,52.1,164.7z"/>
			<path id="XMLID_1734_" fill="#909090" d="M63.1,158.3c1.2,0.7,1.2,1.8,0,2.4c-1.2,0.7-3.1,0.7-4.2,0c-1.2-0.7-1.2-1.8,0-2.4
				C60,157.6,61.9,157.6,63.1,158.3z"/>
		</g>
	</g>
</g>
</svg>
