<svg xmlns="http://www.w3.org/2000/svg" viewBox="0 0 512 512" xml:space="preserve">
  <path fill="#fff" d="M298.8 361.6c-34.5-10.5-64.5-32.8-84.5-62.9-47.7-71.7-28.2-168.8 43.4-216.5 39-26 87.1-33.1 132-19.4 34.5 10.5 64.5 32.8 84.5 62.9 47.7 71.7 28.2 168.8-43.4 216.5-39 25.9-87.1 33-132 19.4zm85.9-282.5c-40-12.1-82.9-5.8-117.6 17.3-63.9 42.5-81.2 129.1-38.7 192.9 17.8 26.8 44.6 46.7 75.3 56 40 12.1 82.9 5.8 117.6-17.3 63.9-42.5 81.2-129.1 38.7-192.9-17.8-26.8-44.5-46.7-75.3-56zm-72.7 239c-24.5-7.4-45.7-23.3-59.9-44.6-33.8-50.8-20-119.7 30.8-153.5 27.7-18.4 61.8-23.4 93.6-13.8 24.5 7.4 45.7 23.3 59.9 44.6 33.8 50.8 20 119.7-30.8 153.5-27.7 18.5-61.8 23.5-93.6 13.8zm59.5-195.5c-26.9-8.2-55.8-3.9-79.2 11.6-43 28.6-54.7 86.9-26.1 129.9 12 18 30 31.4 50.7 37.7 26.9 8.2 55.8 3.9 79.2-11.6 43-28.6 54.7-86.9 26.1-129.9-12-18.1-30-31.5-50.7-37.7zm-75.8 62c3.9-6.3 9.1-11.7 15.4-15.8 13-8.6 28.9-11 43.8-6.5 4.5 1.4 9.3-1.2 10.6-5.7 1.4-4.5-1.2-9.3-5.7-10.6-19.8-6-41-2.9-58.2 8.6-8.3 5.5-15.2 12.6-20.4 21-2.5 4-1.2 9.2 2.8 11.7.6.4 1.3.7 2 .9 3.6 1.2 7.6-.2 9.7-3.6zM284 236.7c4.5-1.3 7.1-6 5.9-10.5-1.8-6.3-2.4-12.9-1.7-19.5.5-4.7-3-8.9-7.6-9.3-4.7-.5-8.9 2.9-9.3 7.6-.9 8.7-.1 17.4 2.3 25.8.8 2.9 3.1 5 5.7 5.8 1.4.5 3.1.6 4.7.1zM61.3 455.6c-1.9-.6-3.6-1.8-4.7-3.5L13 385c-2.5-3.9-1.5-9.1 2.4-11.7l136.7-93c1.9-1.3 4.2-1.8 6.4-1.3 2.2.4 4.2 1.7 5.5 3.6l44.9 67.5c2.6 3.9 1.6 9.2-2.3 11.8L68.5 454.6c-1.9 1.3-4.2 1.7-6.5 1.3-.2-.1-.5-.2-.7-.3zm-29.4-72.8 34.3 52.8 123.9-83.1-35.5-53.3-122.7 83.6zm137.4 4c3.9-2.6 4.9-7.9 2.3-11.8l-45.3-67.3c-2.6-3.9-7.9-4.9-11.8-2.3-3.9 2.6-4.9 7.9-2.3 11.8l45.3 67.3c1.1 1.7 2.8 2.9 4.6 3.4 2.3.7 5 .3 7.2-1.1zm2.6-76.5 39.2-26.1c3.9-2.6 5-7.9 2.4-11.8-2.6-3.9-7.9-5-11.8-2.4l-39.2 26.1c-3.9 2.6-5 7.9-2.4 11.8 1.1 1.7 2.8 2.9 4.6 3.4 2.3.8 5 .5 7.2-1zm25.2 38 39.7-26.5c3.9-2.6 5-7.9 2.4-11.8-2.6-3.9-7.9-5-11.8-2.4L187.7 334c-3.9 2.6-5 7.9-2.4 11.8 1.1 1.7 2.8 2.9 4.6 3.4 2.4.8 5 .5 7.2-.9z"/>
</svg>
