<svg xmlns="http://www.w3.org/2000/svg" viewBox="0 0 512 512" xml:space="preserve">
  <circle transform="rotate(-87.067 256.002 287.454) scale(1.00001)" fill="#FFF" cx="256" cy="287.5" r="197.8"/>
	<path fill="#E5292A" d="M256 502.7c-118.7 0-215.2-96.5-215.2-215.2S137.3 72.2 256 72.2c118.7 0 215.2 96.5 215.2 215.2S374.7 502.7 256 502.7zm0-395.6c-99.4 0-180.3 80.9-180.3 180.3S156.6 467.7 256 467.7s180.3-80.9 180.3-180.3S355.4 107.1 256 107.1z"/>
	<g fill="#E5292A">
    <path d="M234.8 36.1h42.4v52.7h-42.4z"/>
		<path d="M288 48.9h-64c-1.7 0-3.1-1.4-3.1-3.1V12.5c0-1.7 1.4-3.1 3.1-3.1h64c1.7 0 3.1 1.4 3.1 3.1v33.3c0 1.7-1.4 3.1-3.1 3.1z"/>
  </g>
	<g fill="#E5292A">
    <path d="M64.256 136.541 88.297 112.5l29.84 29.84-24.042 24.04z"/>
		<path d="m98.5 116.7-30.2 30.2c-2.6 2.6-6.9 2.6-9.6 0L46 134.1c-2.6-2.6-2.6-6.9 0-9.5l30.2-30.2c2.6-2.6 6.9-2.6 9.6 0l12.8 12.8c2.6 2.6 2.6 6.8-.1 9.5z"/>
  </g>
	<g fill="#E5292A">
    <path d="m417.2 166.4-24-24 29.8-29.8 24 24z"/>
		<path d="m442.9 146.9-30.2-30.2c-2.6-2.6-2.6-6.9 0-9.6l12.8-12.8c2.6-2.6 6.9-2.6 9.6 0l30.2 30.2c2.6 2.6 2.6 6.9 0 9.5l-12.8 12.8c-2.7 2.7-7 2.7-9.6.1z"/>
  </g>
	<g>
    <path fill="#01323F" d="M256.2 452h-.2c-1.6 0-3.3 0-4.9-.1l1-34.9c1.3 0 2.6.1 3.9.1l.2 34.9zm77.8-19.6-16.6-30.7c1.2-.6 2.3-1.3 3.5-2l17.5 30.2c-1.5.9-2.9 1.7-4.4 2.5zm-160.1-2.3c-1.5-.9-2.9-1.7-4.4-2.6l18.4-29.6c1.1.7 2.3 1.4 3.4 2l-17.4 30.2zm222-56.1-29.6-18.4c.7-1.1 1.4-2.3 2.1-3.4l30.2 17.5c-.9 1.5-1.8 2.9-2.7 4.3zm-282.3-4c-.8-1.5-1.7-2.9-2.5-4.4l30.7-16.6c.6 1.2 1.3 2.3 1.9 3.5L113.6 370zm306.9-77.5-34.9-1c0-1.3.1-2.7.1-4v-.6h34.9v.5c-.1 1.7-.1 3.4-.1 5.1zm-323.6-4.8h-5.5c0-1.8 0-3.4.1-5l34.9 1v3.7l-29.5.3zm273.1-62c-.6-1.2-1.3-2.3-2-3.5l30.1-17.6c.8 1.4 1.7 2.9 2.5 4.4L370 225.7zm-226.5-2.8-30.3-17.4c.9-1.5 1.7-2.9 2.6-4.4l29.7 18.4c-.6 1.1-1.3 2.3-2 3.4zM323.9 177c-1.1-.7-2.3-1.4-3.5-2l17.4-30.3c1.5.8 2.9 1.7 4.3 2.6L323.9 177zm-133-1.7-17.6-30.1c1.5-.9 2.9-1.7 4.4-2.5l16.6 30.7c-1.1.6-2.3 1.3-3.4 1.9zm68.7-17.5h-4.1v-34.9h.5c1.5 0 3 0 4.5.1l-.9 34.8z"/>
  </g>
	<path fill="#E5292A" d="M257.7 281.8c-2.1 10.6-5.4 10.6-7.3-.1l-10.3-56.5c-1.9-10.7-.9-27.8 2.3-38.1l6.3-20.3c3.2-10.3 8.5-10.3 11.8 0l6.3 20.3c3.2 10.3 4.2 27.5 2.1 38.1l-11.2 56.6z"/>
	<path fill="#E5292A" d="M265.5 290.9c-13.9 1.3-14.3-.7-.8-4.6l71.4-20.3c13.5-3.8 35.7-7.4 49.3-8l26.8-1.1c13.7-.5 14.3 2.7 1.4 7.3l-25.3 8.9c-12.9 4.5-34.8 9.3-48.7 10.7l-74.1 7.1z"/>
	<path fill="#E5292A" d="M268.8 286.9c0 7.9-6.4 14.4-14.3 14.4s-14.4-6.4-14.4-14.4c0-7.9 6.4-14.4 14.4-14.4 7.9 0 14.3 6.4 14.3 14.4z"/>
</svg>
