<svg xmlns="http://www.w3.org/2000/svg" viewBox="0 0 952 680.3" xml:space="preserve">
	<path fill="#808181" d="M405.1 174.3H894v269.3H405.1z"/>
	<circle transform="rotate(-7.973 319.128 318.879)" fill="#FFF" cx="319.1" cy="318.9" r="226.8"/>
	<path fill="#E5292A" d="M319.1 565.6C183 565.6 72.3 454.9 72.3 318.8 72.3 182.7 183 72 319.1 72c136.1 0 246.8 110.7 246.8 246.8 0 136.1-110.7 246.8-246.8 246.8zm0-453.5c-114 0-206.8 92.8-206.8 206.8 0 114 92.8 206.8 206.8 206.8 114 0 206.8-92.8 206.8-206.8 0-114-92.8-206.8-206.8-206.8z"/>
	<g fill="#E5292A">
    <path d="M294.8 30.7h48.7v60.5h-48.7z"/>
		<path d="M349.7 45.4h-61.2c-5.3 0-9.7-4.3-9.7-9.7v-26c0-5.3 4.3-9.7 9.7-9.7h61.2c5.3 0 9.7 4.3 9.7 9.7v26c0 5.3-4.3 9.7-9.7 9.7z"/>
  </g>
	<g fill="#E5292A">
    <path d="m99.19 145.876 27.505-27.506 34.224 34.223-27.506 27.507z"/>
		<path d="M138.6 123.1 104 157.7c-3 3-7.9 3-11 0L78.3 143c-3-3-3-7.9 0-11l34.6-34.6c3-3 7.9-3 11 0l14.7 14.7c3 3.1 3 8 0 11z"/>
  </g>
	<g fill="#E5292A">
    <path d="m510.644 118.34 27.507 27.51-34.229 34.224-27.506-27.51z"/>
		<path d="m533.4 157.7-34.6-34.6c-3-3-3-7.9 0-11l14.7-14.7c3-3 7.9-3 11 0l34.6 34.6c3 3 3 7.9 0 11l-14.7 14.7c-3.1 3-8 3-11 0z"/>
  </g>
	<g>
    <path fill="#01323F" d="M319.5 507.5h-.2c-1.9 0-3.7 0-5.6-.1l1.2-40c1.5 0 2.9.1 4.4.1l.2 40zm89.3-22.5-19-35.2c1.4-.7 2.7-1.5 4-2.3l20 34.6c-1.7 1.1-3.3 2-5 2.9zm-183.6-2.6c-1.7-1-3.4-2-5-3l21.1-34c1.3.8 2.6 1.6 3.9 2.3l-20 34.7zm254.6-64.2-34-21.1 2.4-3.9 34.6 20c-1 1.7-2 3.3-3 5zm-323.7-4.7c-1-1.7-1.9-3.4-2.8-5.1l35.2-19c.7 1.3 1.5 2.7 2.2 4l-34.6 20.1zm351.8-88.8-40-1.2c0-1.5.1-3.1.1-4.6v-.7h40v.5c0 2.1 0 4-.1 6zM137 319.2h-6.3c0-2.1 0-3.9.1-5.7l40 1.2c0 1.4-.1 2.8-.1 4.2l-33.7.3zM450.1 248c-.7-1.3-1.5-2.7-2.2-4l34.5-20.2c1 1.7 1.9 3.3 2.8 5L450.1 248zm-259.7-3.1L155.7 225c1-1.7 2-3.4 3-5l34 21.1c-.8 1.2-1.5 2.5-2.3 3.8zm206.8-52.7c-1.3-.8-2.6-1.6-4-2.4l19.9-34.7c1.7 1 3.3 1.9 5 3l-20.9 34.1zm-152.5-1.9-20.1-34.6c1.7-1 3.4-1.9 5.1-2.8l19 35.2c-1.4.7-2.7 1.4-4 2.2zm78.8-20c-1.4 0-2.7-.1-4.1-.1h-.5v-40h.5c1.7 0 3.5 0 5.2.1l-1.1 40z"/>
  </g>
	<g>
    <path fill="#E5292A" d="M452.6 61.4c0 4.2-3.4 7.6-7.6 7.6-4.2 0-7.6-3.4-7.6-7.6 0-4.2 3.4-7.6 7.6-7.6 4.2.1 7.6 3.4 7.6 7.6zM49.1 398.2c0 6-4.9 10.9-10.9 10.9s-10.9-4.9-10.9-10.9 4.9-10.9 10.9-10.9c6.1.1 10.9 4.9 10.9 10.9zM138.9 540.4c0 14.6-11.8 26.5-26.5 26.5-14.6 0-26.5-11.8-26.5-26.5 0-14.6 11.8-26.5 26.5-26.5 14.6.1 26.5 11.9 26.5 26.5zM538.6 500.3c0 7.6-6.1 13.7-13.7 13.7s-13.7-6.1-13.7-13.7 6.1-13.7 13.7-13.7c7.5 0 13.7 6.1 13.7 13.7zM175.7 35c0 7.3-5.9 13.2-13.2 13.2-7.3 0-13.2-5.9-13.2-13.2 0-7.3 5.9-13.2 13.2-13.2 7.3-.1 13.2 5.9 13.2 13.2z"/>
		<path fill="#808181" d="M54.8 221.1c0 9.9-8 17.9-18 17.9-9.9 0-17.9-8-17.9-17.9 0-9.9 8-18 17.9-18 10 0 18 8.1 18 18z"/>
		<circle fill="#808181" cx="421.4" cy="594.3" r="23.6"/>
		<path fill="#01323F" d="M590.5 468.2c0 2.3-1.9 4.3-4.3 4.3-2.3 0-4.3-1.9-4.3-4.3 0-2.3 1.9-4.3 4.3-4.3s4.3 1.9 4.3 4.3z"/>
		<path fill="#808181" d="M585.8 69.9c0 9.4-7.6 17-17 17s-17-7.6-17-17 7.6-17 17-17 17 7.6 17 17z"/>
		<path fill="#01323F" d="M229.6 586.3c0 5.5-4.4 9.9-9.9 9.9s-9.9-4.4-9.9-9.9 4.4-9.9 9.9-9.9c5.5-.1 9.9 4.4 9.9 9.9z"/>
  </g>
	<g fill="#FFF">
    <path d="M644.9 303.8h-12.1v-14.2h-35.6v14.2h-12.1v-25.4h6c5.1-7.9 7.6-20 7.6-36.5v-16.4h38.6v52.9h7.4v25.4zM625 278.4v-41.8h-14.1v9.3c0 14-1.9 24.9-5.7 32.5H625zM698.9 289.6h-42.2v-64.1h42.2v11.2h-29.7v15h25.3v11.2h-25.3v15.6h29.7v11.1zM759.7 289.6h-12.5v-26.8h-21.7v26.8H713v-64.1h12.5v26.2h21.7v-26.2h12.5v64.1zM816.7 255.2c3.8 3.7 5.7 8.5 5.7 14.4s-1.9 10.7-5.8 14.4c-3.8 3.7-8.9 5.6-15 5.6h-25.2v-64.1h12.5v24.1h12.7c6.2 0 11.3 1.9 15.1 5.6zm-9.3 20.8c1.7-1.6 2.5-3.7 2.5-6.4 0-2.6-.8-4.8-2.5-6.4-1.7-1.6-3.9-2.4-6.8-2.4h-11.7v17.6h11.7c2.8 0 5.1-.8 6.8-2.4zM640.1 397.6h-12.5v-41.1l-24.9 41.1h-11.2v-64.1H604v41l24.9-41h11.2v64.1zM697.4 344.7h-27.8v52.9h-12.5v-64.1h40.3v11.2zM749.4 339.3c3.8 3.8 5.7 8.6 5.7 14.2s-1.9 10.4-5.7 14.2c-3.8 3.8-9 5.8-15.4 5.8h-12.3v24.1h-12.5v-64.1H734c6.4 0 11.5 1.9 15.4 5.8zm-9.4 20.5c1.7-1.6 2.5-3.7 2.5-6.3 0-2.6-.8-4.8-2.5-6.4-1.7-1.6-3.9-2.4-6.8-2.4h-11.7v17.5h11.7c2.9 0 5.2-.8 6.8-2.4zM807.2 363.2c3.8 3.7 5.7 8.5 5.7 14.4s-1.9 10.7-5.8 14.4c-3.8 3.7-8.9 5.6-15 5.6H767v-64.1h12.5v24.1h12.7c6.2 0 11.2 1.9 15 5.6zm-9.3 20.8c1.7-1.6 2.5-3.7 2.5-6.4 0-2.6-.8-4.8-2.5-6.4-1.7-1.6-3.9-2.4-6.8-2.4h-11.7v17.6h11.7c2.9 0 5.1-.8 6.8-2.4zm34.5 13.6h-12.5v-64.1h12.5v64.1z"/>
  </g>
	<g>
    <path fill="#E52B2B" d="M384.9 368.5c0 20.5-6.2 36.6-18.6 48.5-12.4 11.8-28.3 17.7-47.6 17.7s-35.1-5.8-47.6-17.4c-12.4-11.6-18.6-27.7-18.6-48.2 0-13.5 6-32.4 17.9-56.7l44.7-91.8h42.3l-44.1 87.7c4.4-1.8 9.6-2.7 15.8-2.7 15.1 0 28.2 5.8 39.2 17.3 11.1 11.5 16.6 26.7 16.6 45.6zm-38.8.2c0-9.3-2.5-16.8-7.6-22.5-5.1-5.7-11.7-8.5-19.8-8.5-8.2 0-14.8 2.8-19.8 8.3-5.1 5.6-7.6 13.1-7.6 22.7 0 9.5 2.5 17.1 7.6 22.7 5.1 5.6 11.7 8.3 19.8 8.3 8.1 0 14.8-2.8 19.8-8.3 5.1-5.6 7.6-13.1 7.6-22.7z"/>
  </g>
</svg>
